<?xml version="1.0" encoding="utf-8"?>
<!-- Generator: Adobe Illustrator 16.0.0, SVG Export Plug-In . SVG Version: 6.00 Build 0)  -->
<!DOCTYPE svg PUBLIC "-//W3C//DTD SVG 1.1//EN" "http://www.w3.org/Graphics/SVG/1.1/DTD/svg11.dtd">
<svg version="1.1" id="Layer_1" xmlns="http://www.w3.org/2000/svg" xmlns:xlink="http://www.w3.org/1999/xlink" x="0px" y="0px"
	 width="150px" height="150px" viewBox="0 0 150 150" enable-background="new 0 0 150 150" xml:space="preserve">
<radialGradient id="SVGID_1_" cx="297.6602" cy="-269.96" r="75" gradientTransform="matrix(1 0 0 -1 -222.6602 -194.96)" gradientUnits="userSpaceOnUse">
	<stop  offset="0" style="stop-color:#FFFFFF"/>
	<stop  offset="1" style="stop-color:#82E510"/>
</radialGradient>
<rect fill="url(#SVGID_1_)" width="150" height="150"/>
<path d="M85.85,16.514c4.494-5.455,10.116-8.405,16.895-8.966c1.414,1.973,1.982,4.2,2.947,6.227
	c1.24,6.245,0.887,12.288-2.559,17.793c0.983,1.994,2.057,3.889,2.708,6.011c0.556,1.81,1.433,3.519,2.079,5.305
	c0.864,2.386,1.629,4.809,2.475,7.202c0.137,0.384,0.473,0.698,0.766,1.115c0.549-0.233,1.008-0.412,1.453-0.62
	c3.255-1.519,6.508-3.045,9.762-4.568c1.537-0.719,2.418-1.761,2.721-3.587c0.221-1.332,0.512-2.759,1.241-4.039
	c0.728-1.278,1.619-2.001,3.097-1.974c0.838,0.015,1.676,0.003,2.797,0.003c0.662,0.894,1.424,1.924,2.334,3.157
	c0.5,0,1.315,0,2.133,0c2.32,0.917,2.847,2.983,3.312,5.15c-0.282,0.808-0.608,1.743-0.968,2.772
	c1.34,1.306,2.891,2.515,2.402,4.533c-0.649,1.429-1.528,2.471-3.373,3.146c-1.674,0.339-3.631-0.6-5.657-1.078
	c-0.894-0.211-1.754-0.584-2.653-0.753c-1.427-0.268-2.857,0.184-3.922,0.95c-2.336,1.681-5.104,2.49-7.484,4.045
	c-0.938,0.613-1.986,1.056-3.121,1.647c2.065,2.714,3.182,5.776,4.041,8.911c0.451,1.644,0.877,3.309,1.207,5
	c0.854,4.352,0.199,8.72,0.387,13.075c0.033,0.766-0.313,1.543-0.424,2.323c-0.383,2.683-1.332,5.195-2.189,7.874
	c3.069,0.217,5.876-0.645,8.471-2.361c0.709-0.47,1.604-0.733,2.178-1.322c1.974-2.027,3.711-4.192,4.375-7.094
	c0.367-1.605,0.466-3.041,0.035-4.679c-0.375-1.425-0.254-3.053-0.024-4.541c0.188-1.226,1.065-2.206,2.222-2.821
	c0.936-0.497,1.799-0.534,2.883-0.162c2.85,0.977,4.498,2.898,5.381,5.696c0.319,1.015,0.847,1.944,0.906,3.058
	c0.057,1.084,0.346,2.156,0.418,3.24c0.077,1.137,0.117,2.297-0.012,3.424c-0.121,1.051-0.537,2.065-0.732,3.112
	c-0.408,2.194-1.68,4.03-2.438,6.076c-2.949,3.552-6.127,6.765-10.779,8.086c-1.248,0.354-2.443,0.804-3.765,0.853
	c-0.627,0.024-1.238,0.351-1.87,0.424c-2.305,0.263-4.48-0.491-6.688-0.949c-0.818-0.17-1.607-0.529-2.373-0.879
	c-0.775-0.354-1.506-0.803-2.338-1.254c-1.006,1.308-2.039,2.83-3.258,4.185c-1.238,1.376-2.658,2.589-4.109,3.978
	c2.646,4.66,5.648,9.426,5.512,15.307c0.73,0.969,1.697,0.773,2.633,0.477c2.176-0.687,4.378-0.705,6.579-0.259
	c0.524,0.106,0.992,0.546,1.459,0.87c0.246,0.171,0.423,0.439,0.654,0.637c1.382,1.176,2.263,2.559,1.79,4.69
	c-0.68,1.843-2.268,2.788-4.35,2.97c-0.459,2.104-0.673,2.393-2.625,3.569c-1.003,0-2.061,0-3.064,0
	c-0.512,0.668-0.99,1.291-1.428,1.86c-0.268,0-0.437-0.045-0.569,0.006c-1.839,0.697-3.468,0.115-4.964-0.9
	c-2.112-1.434-2.9-2.826-3.489-5.365c-0.289-1.246-0.849-2.445-0.876-3.74c-0.027-1.33-0.366-2.627-0.566-3.908
	c-0.336-2.143-0.768-4.352-1.76-6.329c-0.852-1.698-1.923-3.283-3.611-4.536c-1.045,0.412-2.179,0.809-3.27,1.3
	c-1.943,0.874-3.98,1.49-6.038,1.955c-1.972,0.447-3.933,0.916-6.004,1.05c-2.226,0.146-4.457,0.704-6.712,0.795
	c-2.357,0.094-4.723,0.073-7.082-0.002c-1.167-0.037-2.343,0.278-3.521-0.313c-1.033-0.518-2.27,0.101-3.453-0.502
	c-0.82-0.418-1.989-0.328-2.981-0.445c-1.674-0.197-3.23-0.77-4.767-1.26c-2.466-0.788-4.947-1.65-7.234-2.934
	c-0.116-0.065-0.3-0.009-0.551-0.009c-3.192,1.479-4.386,4.65-5.845,7.438c-0.518,2.636-1.134,5.162-1.485,7.725
	c-0.352,2.569-1.078,5.018-1.864,7.463c-0.7,0.7-1.345,1.471-2.117,2.079c-0.661,0.521-1.468,0.858-2.337,1.349
	c-1.24-0.103-2.675,0.291-3.998-0.469c-0.245-0.423-0.495-0.854-0.758-1.308c-0.942,0-1.842,0-2.925,0
	c-0.936-0.772-1.954-1.611-2.644-2.181c-0.347-0.918-0.546-1.442-0.737-1.949c-0.769,0-1.367,0-2.112,0
	c-0.661-0.785-1.364-1.619-1.981-2.35c-0.094-1.423,0.063-2.551,0.68-3.748c0.98-1.899,2.689-2.662,4.457-2.987
	c1.291-0.237,2.735-0.339,4.186,0.235c1.101,0.437,2.513,0.088,3.921,0.088c-0.303-3.336,0.573-6.424,1.864-9.306
	c1.279-2.854,2.801-5.649,5.148-8.062c-0.527-0.527-1.008-0.986-1.463-1.469c-2.66-2.817-4.974-5.851-7.05-9.168
	c-2.185-3.49-3.271-7.348-4.908-11.013c-0.06-2.118-0.776-4.126-1.019-6.229c-0.293-2.539-0.448-5.061-0.338-7.59
	c0.099-2.297,0.626-4.574,0.426-6.896c1.03-3.9,1.742-7.885,3.445-11.6c0.553-1.207,1.011-2.474,1.668-3.744
	c-1.768-1.518-3.17-3.355-5.105-4.714c-1.474-1.035-2.663-2.496-3.904-3.836c-1.747-1.886-3.971-2.59-6.424-2.696
	c-1.821-0.079-3.648-0.015-5.541-0.015c-0.774-0.617-1.577-1.257-2.28-1.817c-0.3-1.374-1.056-2.604-0.133-3.84
	c0.804-1.076,1.826-1.882,3.134-2.235c0.029-3.963,0.116-4.168,1.178-5.354c1.259-1.406,2.935-1.871,5.493-0.892
	c1.286-1.45,2.684-2.796,5.22-2.175c1.064,0.491,2.169,1.393,2.793,3.125c0,1.438,0.042,3.189-0.015,4.937
	c-0.037,1.114,0.335,2.008,1.132,2.734c1.152,1.049,2.051,2.379,3.514,3.094c0.388,0.19,0.641,0.643,0.982,0.947
	c1.605,1.431,3.219,2.852,4.99,4.42c1.018-1.345,2.345-2.238,3.255-3.674c0.836-1.318,2.235-2.269,3.321-3.441
	c1.327-1.433,2.301-3.09,2.939-4.949c0.319-0.93,0.705-1.841,1.12-2.734c0.337-0.726,0.324-1.283-0.117-2.043
	c-1.317-2.268-1.995-4.81-2.767-7.301c-0.128-0.415-0.068-0.893-0.07-1.342c-0.007-1.371,0.031-2.743-0.009-4.113
	c-0.09-3.11,0.809-5.958,2.208-8.686c0.354-0.691,0.664-1.405,1.045-2.217c2.291,0.388,4.502,0.405,6.584,1.415
	c2.045,0.991,4.172,1.722,5.999,3.213c1.791,1.462,3.511,2.924,4.878,5.045c1.041-0.173,2.224,0.445,3.302-0.441
	c0.091-0.075,0.297-0.005,0.449-0.011c2.073-0.073,4.133-0.127,6.212-0.358c2.714-0.301,5.475,0.638,8.255,0.359
	C82.078,15.738,84.105,15.542,85.85,16.514z M32.308,71.69c0.886,0.603,1.712,1.195,2.569,1.738
	c1.021,0.647,2.044,1.299,3.111,1.863c2.058,1.088,4.119,2.182,6.234,3.15c1.788,0.818,3.665,1.443,5.486,2.194
	c2.316,0.956,4.742,1.486,7.191,1.942c0.997,0.186,1.95,0.636,3.001,0.472c2.025,1.169,4.38,0.728,6.526,1.335
	c0.898,0.254,1.847,0.444,2.776,0.453c4.644,0.045,9.288,0.021,13.933,0.021c0.457,0,1.108,0.193,1.336-0.034
	c0.896-0.898,2.109-0.159,3.131-0.804c0.842-0.529,2.114-0.356,3.187-0.545c0.481-0.086,0.933-0.367,1.414-0.428
	c0.599-0.076,1.269,0.139,1.817-0.043c4.282-1.413,8.698-2.473,12.779-4.429c2.992-1.435,6.102-2.658,8.824-4.635
	c0.904-0.657,1.995-1.06,2.926-1.54c0.34-1.619-0.552-2.886-0.851-4.281c-0.39-1.814-1.562-3.312-2.017-5.11
	c-0.149-0.587-0.76-1.043-1.088-1.601c-1.043-1.772-2.104-3.537-3.061-5.357c-0.885-1.684-1.463-3.509-2.184-5.261
	c-0.678-1.645-1.184-3.318-1.746-4.99c-0.562-1.664-1.248-3.287-1.824-4.954c-0.826-2.391-1.676-4.809-2.861-7.031
	c-1.912-3.582-3.881-7.168-7.053-9.882c-0.924-0.79-1.614-1.899-2.619-2.533c-1.848-1.165-3.798-2.2-5.803-3.069
	c-1.352-0.586-2.905-0.69-4.301-1.199c-1.381-0.505-2.744-0.868-4.224-0.843c-0.94,0.015-1.905,0.198-2.806-0.404
	c-0.231-0.154-0.784,0.174-1.219,0.288c-0.233-0.086-0.559-0.303-0.889-0.31c-1.247-0.028-2.466,0.176-3.704,0.366
	c-2.035,0.313-4.143-0.065-6.204,0.5c-1.184,0.324-2.536,0.115-3.669,0.532c-2.775,1.023-5.613,1.943-8.044,3.755
	c-0.757,0.564-1.651,1.089-2.142,1.804c-2.006,2.919-3.667,6.025-4.788,9.427c-1.061,3.22-2.507,6.276-5.104,8.622
	c-0.448,0.405-1.154,0.836-1.2,1.307c-0.094,0.97-1.07,0.568-1.403,1.223c-0.831,1.635-2.092,2.991-3.344,4.332
	c-0.341,0.365-0.599,0.794-0.863,1.229c-1.44,2.366-2.92,4.686-4.105,7.215c-0.9,1.92-1.782,3.84-2.437,5.844
	c-0.568,1.739-1.644,3.419-1.083,5.215c1.042,0.903,1.781,1.887,3.043,2.29C30.241,69.938,30.923,71.482,32.308,71.69z
	 M25.473,88.475c1.47,0.547,2.981,1.127,4.507,1.664c0.601,0.213,1.414,0.146,1.812,0.534c0.691,0.673,1.584,0.835,2.344,0.984
	c2.593,0.508,5.001,1.63,7.614,2.077c2.31,0.396,4.547,1.244,6.861,1.586c1.935,0.287,3.753,1.294,5.783,0.966
	c0.557,0.802,1.392,0.325,2.095,0.458c0.776,0.146,1.543,0.369,2.326,0.441c1.238,0.113,2.456,0.021,3.715,0.4
	c1.117,0.337,2.42,0.012,3.633,0.087c1.236,0.077,2.462,0.39,3.696,0.42c2.74,0.067,5.484,0.065,8.224,0.009
	c2.758-0.058,5.515,0.192,8.276-0.388c1.531-0.321,3.32,0.332,4.75-0.159c1.646-0.566,3.307-0.103,4.943-0.728
	c1.458-0.558,3.193-0.384,4.805-0.548c0.278-0.029,0.555-0.123,0.824-0.213c1.776-0.596,3.578-1.057,5.461-1.164
	c0.344-0.02,0.678-0.197,1.021-0.285c2.351-0.604,4.701-1.201,7.36-1.879c0.008-0.008,0.276-0.276,0.627-0.627
	c0.584,0,1.25,0,1.927,0c0.641-1.06,0.79-2.178,1.053-3.305c0.274-1.171,0.5-2.32,0.356-3.478c-0.152-1.231,0.533-2.31,0.457-3.468
	c-0.072-1.139-0.394-2.26-0.604-3.379c-0.106-0.008-0.198-0.045-0.252-0.015c-1.046,0.603-2.028,1.532-3.146,1.741
	c-1.334,0.25-2.053,1.748-3.522,1.467c-1.597,1.094-3.464,1.579-5.239,2.241c-1.785,0.666-3.56,1.37-5.486,1.675
	c-2.172,0.344-4.156,1.551-6.428,1.555c-0.839,0.693-1.947,0.16-2.752,0.521c-0.959,0.429-2.015,0.058-2.773,0.461
	c-1.045,0.556-2.038,0.267-3.045,0.386c-0.225,0.027-0.547-0.094-0.672,0.021c-0.92,0.837-2.021,0.282-3.023,0.44
	c-1.002,0.157-2.012,0.465-3.008,0.426c-2.451-0.096-4.885,0.187-7.37-0.34c-2.445-0.519-5.024-0.021-7.576-0.453
	c-2.284-0.389-4.618-0.616-6.916-1.012c-0.556-0.096-1.086-0.341-1.642-0.436c-0.582-0.1-1.2-0.02-1.766-0.162
	c-1.033-0.26-2.103-0.477-3.075-0.848c-1.017-0.389-2.083-0.539-3.061-0.889c-4.437-1.589-9.003-2.861-13.16-5.18
	c-2.529-1.41-5.119-2.713-7.692-4.041c-0.434-0.225-1.241-0.227-1.337-0.512c-0.315-0.94-1.377-0.846-1.807-1.607
	c-0.131,2.488-0.16,4.908-0.123,7.327C24.505,83.657,25.118,85.997,25.473,88.475z M109.866,107.318
	c0.512-0.282,1.086-0.473,1.485-0.85c0.465-0.437,0.739-1.064,1.156-1.56c1.479-1.755,2.983-4.878,3.737-7.017
	c-0.211-0.25-0.403-0.479-0.417-0.496c-1.65,0.416-3.146,0.853-4.672,1.156c-1.213,0.242-2.561,0.074-3.666,0.53
	c-1.973,0.812-4.077,0.944-6.09,1.21c-2.332,0.307-4.699,0.889-7.104,0.568c-0.299-0.039-0.711-0.131-0.894,0.018
	c-0.723,0.588-1.557,0.506-2.338,0.408c-0.934-0.118-1.699,0.507-2.553,0.463c-3.154-0.164-6.269,0.389-9.402,0.439
	c-2.291,0.035-4.58,0.185-6.906-0.332c-1.886-0.42-3.939-0.117-5.917-0.071c-0.927,0.021-1.851,0.19-2.862,0.303
	c-0.046-0.131-0.138-0.396-0.23-0.655c-2.51-0.192-5.018-0.386-7.527-0.574c-0.227-0.017-0.552,0.096-0.669-0.019
	c-0.625-0.606-1.391-0.364-2.108-0.454c-0.781-0.096-1.546-0.313-2.325-0.438c-0.943-0.15-1.931,0.249-2.855-0.28
	c-0.828-0.474-1.843,0.033-2.736-0.591c-0.592-0.413-1.512-0.365-2.288-0.504c-0.924-0.165-1.919-0.146-2.763-0.496
	c-1.454-0.604-3.063-0.546-4.497-1.282c-0.64-0.328-1.526-0.209-2.318-0.429c-0.837-0.232-1.597-0.557-2.396-0.852
	c-0.946-0.35-2.019-0.353-3.186-0.527c0.27,0.662,0.508,1.104,0.631,1.576c0.377,1.453,1.296,2.656,1.877,4.019
	c0.636,1.492,1.942,2.702,2.988,4.009c0.159,0.198,0.483,0.303,0.751,0.368c2.897,0.702,5.696,1.728,8.615,2.406
	c2.412,0.561,4.907,0.848,7.272,1.681c1.007,0.355,2.154,0.505,3.221,0.447c1.222-0.066,2.292,0.383,3.429,0.595
	c0.414,0.077,0.806,0.313,1.219,0.351c1.688,0.146,3.376-0.146,5.081,0.408c1.033,0.334,2.267,0.002,3.404,0.078
	c1.084,0.073,2.155,0.389,3.237,0.42c2.357,0.066,4.719,0.063,7.077,0.008c2.376-0.057,4.755,0.226,7.131-0.395
	c1.141-0.297,2.439-0.182,3.635-0.016c1.313,0.182,2.454-0.672,3.692-0.465c1.239,0.209,2.291-0.461,3.467-0.508
	c0.854-0.033,1.697-0.313,2.554-0.426c1.379-0.18,2.885-0.029,4.109-0.553c0.996-0.426,2.136,0.081,2.754-0.443
	c0.746-0.631,1.561-0.141,2.294-0.648c0.58-0.4,1.582-0.191,2.709-0.276c0.081-0.146,0.289-0.522,0.47-0.849
	C109.488,107.036,109.66,107.164,109.866,107.318z M39.502,111.747c0.771,0.554,1.532,1.121,2.314,1.66
	c1.418,0.977,2.761,2.118,4.296,2.854c1.528,0.733,2.897,1.765,4.516,2.312c1.399,0.474,2.753,1.18,4.188,1.424
	c1.561,0.265,2.954,1.302,4.625,0.984c2.352,1.123,4.957,0.897,7.435,1.283c2.153,0.336,4.401,0.118,6.605,0.057
	c2.222-0.063,4.427-0.002,6.671-0.342c2.22-0.336,4.484-0.556,6.662-1.082c1.029-0.25,2.106-0.254,3.123-0.698
	c1.992-0.873,4.239-1.123,6.063-2.435c1.095,0.144,2.133-0.457,2.713-1.053c0.786-0.807,1.872-0.721,2.65-1.49
	c0.973-0.961,2.297-1.566,3.825-2.555c-2.092,0.2-3.822,0.366-5.553,0.532c-0.791,0.913-2,0.04-2.732,0.534
	c-0.963,0.648-1.893,0.248-2.825,0.359c-0.675,0.081-1.504-0.228-2.022,0.065c-1.156,0.651-2.334,0.266-3.49,0.409
	c-1.154,0.143-2.305,0.416-3.461,0.434c-3.727,0.057-7.455,0.1-11.18-0.001c-3.74-0.101-7.495,0.411-11.227-0.399
	c-1.491-0.324-3.056,0.086-4.616-0.424c-1.132-0.369-2.436-0.109-3.685-0.462c-1.162-0.328-2.454-0.28-3.682-0.429
	c-1.951-0.234-3.856-0.62-5.783-0.928C43.176,112.077,41.424,111.744,39.502,111.747z M138.33,101.078
	c-1.869-0.762-3.239-2.064-4.811-3.036c-1.564-0.966-3.481-1.491-4.578-2.94c-1.424,0.771-2.89,1.566-4.336,2.351
	c1.797,0.983,3.543,2.071,5.401,2.918c1.903,0.866,3.211,2.659,5.13,3.252C136.251,102.734,137.264,101.927,138.33,101.078z
	 M142.576,92.173c-1.553-0.297-2.852-1.198-4.249-1.849c-1.429-0.665-2.901-1.086-4.345-1.373c-0.545,0.933-1.043,1.781-1.627,2.779
	c3.14,1.197,6.408,2.293,9.447,4.09c0.771-1.262,1.079-2.657,1.535-4.344C142.902,91.874,142.738,92.023,142.576,92.173z
	 M143.145,82.669c-2.879-0.392-5.711-0.969-8.508-1.769c0.194,1.317,0.385,2.599,0.571,3.861c1.382,0.363,2.854,0.324,4.165,0.986
	c1.566-0.458,2.791,1.043,4.333,0.902C143.756,85.182,143.953,83.844,143.145,82.669z M128.105,47.928
	c1.084,1.282,2.279,1.43,3.308,1.273c0.729-0.648,1.291-1.149,1.784-1.588c0-0.697,0-1.296,0-1.584
	c-0.655-0.751-1.149-1.318-1.729-1.981c-0.895,0.193-1.804,0.388-2.884,0.621C128.411,45.85,128.245,46.98,128.105,47.928z
	 M16.699,39.777c0.973-0.734,1.894-1.429,2.734-2.062c0-0.621,0-1.075,0-1.387c-0.497-0.913-0.884-1.695-1.884-2.087
	c-1.096-0.43-1.698,0.742-2.768,0.29c-0.189,1.29-0.346,2.358-0.514,3.509C15.085,38.624,15.841,39.164,16.699,39.777z
	 M8.427,40.451c0.941,0,1.603,0,2.192,0c0.179-0.405,0.321-0.725,0.503-1.136c-0.306-0.469-0.678-1.04-0.972-1.491
	c-1.22-0.21-1.6,0.618-2.244,1.276C8.066,39.514,8.242,39.97,8.427,40.451z M16.969,30.849c0.728,0.919,1.277,1.724,2.455,1.452
	c0.135-0.031,0.261-0.098,0.371-0.141c0.202-0.468,0.394-0.914,0.57-1.322c-0.275-0.463-0.519-0.874-0.744-1.255
	c-0.481,0-0.927,0-1.271,0C17.896,29.999,17.508,30.354,16.969,30.849z M137.48,49.67c-0.365,0-0.822,0-1.282,0
	c-0.052,0.052-0.104,0.107-0.158,0.161c-0.161,0.162-0.323,0.323-0.483,0.485c0.008,1.593,0.246,2.097,1.221,2.097
	c0.375-0.162,0.947-0.409,1.477-0.638C138.227,51.016,138.445,50.291,137.48,49.67z M12.512,31.227
	c-0.479,0.479-0.962,0.846-1.276,1.324c-0.163,0.248-0.029,0.693-0.029,1.036c0.637,0.365,1.156,0.663,1.454,0.833
	c0.553-0.39,0.979-0.691,1.247-0.88c0-0.668,0-1.108,0-1.665C13.478,31.675,13.037,31.471,12.512,31.227z M134.197,43.799
	c0.566,0.74,0.959,1.254,1.433,1.876c0.427-0.226,0.862-0.458,1.183-0.628c0-0.829,0-1.495,0-2.192c-0.737,0-1.4,0-2.185,0
	C134.432,43.289,134.225,43.737,134.197,43.799z M132.104,40.478c-0.681-0.593-1.162-1.012-1.664-1.45
	c-0.678,0.292-1.246,0.537-1.756,0.757c-0.279,1.254,0.717,1.558,1.102,2.08C131.061,42.059,131.35,41.167,132.104,40.478z"/>
<linearGradient id="SVGID_2_" gradientUnits="userSpaceOnUse" x1="393.417" y1="-486.3525" x2="486.2842" y2="-486.3525" gradientTransform="matrix(1 0 0 -1 -367.6602 -435.96)">
	<stop  offset="0" style="stop-color:#FF63D4"/>
	<stop  offset="1" style="stop-color:#FFE2D4"/>
</linearGradient>
<path fill="url(#SVGID_2_)" d="M32.308,71.69c-1.385-0.209-2.067-1.752-3.351-2.163c-1.261-0.403-2.001-1.387-3.043-2.29
	c-0.561-1.797,0.515-3.477,1.083-5.215c0.655-2.004,1.537-3.924,2.437-5.844c1.185-2.529,2.666-4.849,4.105-7.215
	c0.265-0.435,0.522-0.863,0.863-1.229c1.252-1.342,2.513-2.697,3.344-4.332c0.333-0.656,1.31-0.254,1.403-1.223
	c0.046-0.471,0.752-0.902,1.2-1.307c2.596-2.346,4.042-5.401,5.104-8.622c1.122-3.402,2.783-6.508,4.788-9.427
	c0.491-0.715,1.385-1.239,2.142-1.804c2.431-1.812,5.268-2.732,8.044-3.755c1.134-0.417,2.485-0.208,3.669-0.532
	c2.061-0.564,4.168-0.186,6.204-0.5c1.239-0.191,2.457-0.394,3.704-0.366c0.331,0.007,0.656,0.224,0.889,0.31
	c0.434-0.114,0.987-0.442,1.218-0.288c0.902,0.602,1.865,0.419,2.807,0.404c1.479-0.024,2.842,0.339,4.225,0.843
	c1.394,0.51,2.948,0.613,4.301,1.199c2.004,0.868,3.955,1.904,5.802,3.069c1.005,0.634,1.696,1.743,2.619,2.533
	c3.171,2.714,5.141,6.3,7.053,9.882c1.187,2.222,2.035,4.64,2.86,7.031c0.576,1.667,1.264,3.291,1.824,4.954
	c0.563,1.672,1.069,3.344,1.746,4.99c0.721,1.752,1.301,3.577,2.185,5.261c0.954,1.819,2.017,3.584,3.061,5.357
	c0.328,0.558,0.938,1.014,1.087,1.601c0.457,1.798,1.629,3.296,2.018,5.11c0.299,1.395,1.191,2.662,0.851,4.281
	c-0.931,0.481-2.021,0.883-2.926,1.54c-2.722,1.977-5.832,3.202-8.824,4.635c-4.081,1.956-8.498,3.016-12.78,4.429
	c-0.549,0.181-1.218-0.034-1.816,0.043c-0.482,0.062-0.932,0.343-1.414,0.427c-1.072,0.189-2.346,0.016-3.186,0.547
	c-1.021,0.644-2.234-0.097-3.131,0.803c-0.229,0.229-0.88,0.033-1.337,0.033c-4.644,0-9.289,0.025-13.933-0.021
	c-0.928-0.009-1.878-0.198-2.776-0.453c-2.145-0.606-4.501-0.165-6.526-1.335c-1.051,0.164-2.005-0.285-3.001-0.472
	c-2.449-0.457-4.875-0.986-7.191-1.942c-1.821-0.751-3.697-1.376-5.486-2.195c-2.115-0.969-4.176-2.062-6.234-3.149
	c-1.067-0.564-2.09-1.216-3.111-1.863C34.019,72.886,33.194,72.294,32.308,71.69z M69.276,57.789
	c3.494,2.347,7.297,3.241,11.322,3.283c0.848,0.009,1.695-0.37,2.551-0.417c2.754-0.153,5.371-0.701,7.953-1.772
	c1.508-0.625,2.877-1.248,4.045-2.395c0.65-0.638,1.504-1.068,2.571-1.802c0.605-0.67,0.421-1.654-0.251-2.612
	c-0.54-0.148-1.063-0.29-1.615-0.441c-0.438,0.271-0.926,0.573-1.528,0.946c0.089,0.818,0.179,1.643,0.243,2.244
	c-0.324,0.411-0.633,0.798-0.936,1.18c-0.134-0.134-0.242-0.242-0.349-0.349c-0.431,0.944-1.326,1.389-2.171,1.753
	c-1.032,0.445-2.207,0.553-3.252,0.973c-1.071,0.43-2.149,0.822-3.287,0.865c-1.18,0.044-2.316,0.175-3.475,0.44
	c-1.141,0.26-2.322-0.266-3.461-0.343c-2.437-0.166-4.525-1.063-6.641-2.192c0.996-1.427,1.94-2.78,2.957-4.238
	c-0.171-1.027-0.349-2.093-0.467-2.805c-0.834-0.601-1.353-0.975-1.815-1.308c-2.33-0.156-4.617-0.312-6.072,2.199
	c0.252,0.866-0.439,2.003,0.424,3.055c0.695,0.846,1.163,1.877,1.731,2.826c-2.671,1.78-3.89,1.812-10.621,1.02
	c-3.031-1.243-5.872-2.768-7.914-5.202c-0.457-1.377,1.301-2.668-0.281-3.89c-0.593,0-1.257,0-2.015,0
	c-0.341,0.584-0.698,1.198-1.017,1.744c0.195,0.423,0.286,0.793,0.508,1.048c0.209,0.24,0.593,0.32,0.836,0.541
	c0.562,0.513,1.263,0.979,1.587,1.625c0.767,1.531,2.04,2.504,3.413,3.324c2.468,1.474,5.084,2.609,8.041,2.635
	c1.371,0.012,2.76,0.144,4.107-0.034C66.086,59.465,67.773,59.071,69.276,57.789z M82.141,37.049
	c-0.947,1.364-0.647,2.646,0.518,3.883c0.627,0,1.29,0,1.992,0c0.531-0.577,1.08-1.173,1.578-1.715
	c-0.272-1.581-0.998-2.529-2.256-2.762C83.32,36.668,82.85,36.82,82.141,37.049z M59.738,35.967
	c-0.461,0.649-0.961,1.352-1.393,1.96c0.412,0.939,0.859,1.771,1.754,2.162c1.573-0.473,1.573-0.473,2.733-1.654
	c0-0.469,0-0.919,0-1.283c-0.41-0.441-0.769-0.829-1.099-1.184C61.073,35.967,60.468,35.967,59.738,35.967z"/>
<linearGradient id="SVGID_3_" gradientUnits="userSpaceOnUse" x1="392.1152" y1="-521.9893" x2="487.6113" y2="-521.9893" gradientTransform="matrix(1 0 0 -1 -367.6602 -435.96)">
	<stop  offset="0" style="stop-color:#FF63D4"/>
	<stop  offset="1" style="stop-color:#FFE2D4"/>
</linearGradient>
<path fill="url(#SVGID_3_)" d="M25.473,88.475c-0.355-2.478-0.968-4.817-1.004-7.229c-0.036-2.419-0.008-4.839,0.123-7.327
	c0.43,0.761,1.492,0.667,1.807,1.607c0.096,0.285,0.903,0.289,1.337,0.513c2.574,1.328,5.163,2.632,7.692,4.041
	c4.158,2.317,8.724,3.591,13.16,5.18c0.977,0.351,2.044,0.5,3.061,0.888c0.972,0.371,2.042,0.59,3.075,0.849
	c0.567,0.142,1.185,0.063,1.766,0.162c0.556,0.095,1.086,0.341,1.642,0.436c2.298,0.396,4.632,0.623,6.916,1.011
	c2.551,0.434,5.13-0.064,7.576,0.453c2.484,0.527,4.918,0.244,7.37,0.342c0.996,0.039,2.006-0.269,3.008-0.428
	c1.002-0.158,2.104,0.397,3.023-0.439c0.125-0.114,0.445,0.007,0.672-0.021c1.008-0.12,2.002,0.169,3.045-0.386
	c0.76-0.404,1.816-0.032,2.773-0.461c0.805-0.361,1.914,0.173,2.752-0.52c2.271-0.004,4.256-1.211,6.428-1.556
	c1.927-0.305,3.701-1.009,5.486-1.675c1.775-0.662,3.644-1.146,5.239-2.241c1.47,0.281,2.188-1.218,3.522-1.467
	c1.117-0.209,2.1-1.138,3.146-1.741c0.054-0.031,0.146,0.008,0.252,0.016c0.21,1.117,0.531,2.24,0.604,3.377
	c0.076,1.16-0.609,2.238-0.457,3.469c0.143,1.156-0.082,2.307-0.356,3.479c-0.263,1.125-0.411,2.244-1.053,3.305
	c-0.677,0-1.343,0-1.927,0c-0.351,0.35-0.619,0.619-0.627,0.625c-2.659,0.679-5.01,1.276-7.36,1.88
	c-0.342,0.088-0.676,0.266-1.021,0.286c-1.883,0.107-3.685,0.567-5.461,1.162c-0.27,0.09-0.545,0.185-0.824,0.213
	c-1.611,0.166-3.346-0.008-4.805,0.549c-1.637,0.625-3.299,0.16-4.943,0.727c-1.43,0.492-3.219-0.16-4.75,0.16
	c-2.764,0.58-5.519,0.33-8.276,0.387c-2.741,0.057-5.484,0.059-8.224-0.008c-1.234-0.029-2.46-0.342-3.696-0.42
	c-1.214-0.076-2.516,0.25-3.633-0.087c-1.258-0.38-2.477-0.288-3.715-0.401c-0.782-0.072-1.55-0.295-2.326-0.44
	c-0.703-0.132-1.538,0.344-2.095-0.458c-2.03,0.328-3.847-0.68-5.783-0.965c-2.314-0.342-4.551-1.19-6.861-1.586
	c-2.613-0.447-5.02-1.569-7.614-2.078c-0.761-0.149-1.653-0.312-2.344-0.984c-0.398-0.388-1.212-0.322-1.812-0.534
	C28.455,89.602,26.944,89.021,25.473,88.475z"/>
<linearGradient id="SVGID_4_" gradientUnits="userSpaceOnUse" x1="395.1836" y1="-539.1538" x2="483.9033" y2="-539.1538" gradientTransform="matrix(1 0 0 -1 -367.6602 -435.96)">
	<stop  offset="0" style="stop-color:#FF63D4"/>
	<stop  offset="1" style="stop-color:#FFE2D4"/>
</linearGradient>
<path fill="url(#SVGID_4_)" d="M109.866,107.318c-0.206-0.154-0.38-0.282-0.726-0.541c-0.181,0.326-0.39,0.703-0.47,0.849
	c-1.127,0.085-2.129-0.124-2.709,0.276c-0.733,0.508-1.548,0.018-2.294,0.648c-0.619,0.524-1.758,0.018-2.754,0.443
	c-1.225,0.523-2.73,0.373-4.109,0.553c-0.856,0.112-1.699,0.393-2.554,0.426c-1.177,0.047-2.228,0.717-3.467,0.508
	c-1.239-0.207-2.38,0.646-3.692,0.465c-1.195-0.166-2.494-0.281-3.635,0.016c-2.376,0.62-4.755,0.337-7.131,0.395
	c-2.358,0.056-4.72,0.059-7.077-0.008c-1.082-0.031-2.153-0.347-3.237-0.42c-1.137-0.076-2.371,0.256-3.404-0.078
	c-1.705-0.554-3.393-0.262-5.081-0.408c-0.413-0.037-0.805-0.273-1.219-0.351c-1.137-0.212-2.207-0.661-3.429-0.595
	c-1.067,0.059-2.214-0.092-3.221-0.447c-2.365-0.833-4.86-1.121-7.272-1.681c-2.918-0.679-5.718-1.704-8.615-2.406
	c-0.268-0.065-0.592-0.17-0.751-0.368c-1.047-1.307-2.353-2.518-2.988-4.009c-0.581-1.362-1.5-2.565-1.877-4.019
	c-0.123-0.471-0.361-0.914-0.631-1.576c1.167,0.175,2.241,0.178,3.186,0.527c0.799,0.295,1.559,0.619,2.396,0.852
	c0.792,0.219,1.677,0.1,2.318,0.429c1.434,0.736,3.043,0.679,4.497,1.282c0.844,0.35,1.839,0.331,2.763,0.496
	c0.776,0.138,1.696,0.091,2.288,0.504c0.894,0.623,1.908,0.118,2.736,0.591c0.924,0.528,1.912,0.13,2.855,0.28
	c0.779,0.124,1.544,0.342,2.325,0.438c0.718,0.088,1.483-0.154,2.108,0.454c0.117,0.114,0.442,0.001,0.669,0.019
	c2.509,0.188,5.017,0.382,7.527,0.574c0.092,0.26,0.184,0.524,0.23,0.655c1.011-0.112,1.935-0.282,2.862-0.303
	c1.978-0.045,4.031-0.349,5.917,0.071c2.328,0.517,4.615,0.367,6.906,0.332c3.134-0.049,6.248-0.603,9.402-0.439
	c0.854,0.044,1.619-0.581,2.553-0.463c0.781,0.1,1.615,0.182,2.338-0.408c0.183-0.148,0.595-0.057,0.894-0.017
	c2.404,0.319,4.772-0.261,7.104-0.569c2.013-0.266,4.115-0.398,6.09-1.21c1.105-0.455,2.453-0.288,3.666-0.53
	c1.523-0.304,3.021-0.74,4.672-1.156c0.014,0.018,0.207,0.246,0.417,0.496c-0.755,2.139-2.259,5.262-3.737,7.017
	c-0.417,0.495-0.693,1.123-1.156,1.56C110.952,106.846,110.378,107.036,109.866,107.318z"/>
<linearGradient id="SVGID_5_" gradientUnits="userSpaceOnUse" x1="407.1621" y1="-553.0571" x2="472.8477" y2="-553.0571" gradientTransform="matrix(1 0 0 -1 -367.6602 -435.96)">
	<stop  offset="0" style="stop-color:#FF63D4"/>
	<stop  offset="1" style="stop-color:#FFE2D4"/>
</linearGradient>
<path fill="url(#SVGID_5_)" d="M39.502,111.747c1.921-0.004,3.674,0.33,5.43,0.61c1.927,0.309,3.831,0.694,5.783,0.929
	c1.229,0.147,2.521,0.101,3.682,0.429c1.249,0.352,2.553,0.092,3.685,0.462c1.56,0.511,3.125,0.101,4.616,0.425
	c3.732,0.81,7.487,0.299,11.227,0.398c3.724,0.1,7.453,0.057,11.179,0.001c1.156-0.017,2.308-0.291,3.463-0.435
	c1.154-0.143,2.332,0.242,3.488-0.408c0.52-0.293,1.35,0.015,2.023-0.065c0.932-0.11,1.863,0.289,2.826-0.36
	c0.731-0.493,1.939,0.381,2.73-0.533c1.731-0.166,3.463-0.331,5.553-0.532c-1.528,0.99-2.852,1.595-3.824,2.556
	c-0.778,0.768-1.864,0.683-2.65,1.489c-0.58,0.595-1.618,1.195-2.713,1.054c-1.824,1.311-4.07,1.561-6.064,2.434
	c-1.016,0.445-2.093,0.449-3.121,0.697c-2.179,0.527-4.443,0.746-6.664,1.084c-2.243,0.34-4.448,0.278-6.67,0.34
	c-2.204,0.063-4.452,0.279-6.605-0.055c-2.479-0.387-5.083-0.162-7.435-1.285c-1.671,0.317-3.064-0.719-4.625-0.983
	c-1.435-0.244-2.789-0.951-4.188-1.424c-1.618-0.548-2.988-1.579-4.516-2.312c-1.535-0.736-2.878-1.877-4.296-2.854
	C41.034,112.868,40.273,112.301,39.502,111.747z"/>
<linearGradient id="SVGID_6_" gradientUnits="userSpaceOnUse" x1="492.2676" y1="-535.3203" x2="505.9902" y2="-535.3203" gradientTransform="matrix(1 0 0 -1 -367.6602 -435.96)">
	<stop  offset="0" style="stop-color:#FF63D4"/>
	<stop  offset="1" style="stop-color:#FFE2D4"/>
</linearGradient>
<path fill="url(#SVGID_6_)" d="M138.33,101.078c-1.066,0.849-2.079,1.656-3.193,2.543c-1.919-0.594-3.226-2.387-5.129-3.252
	c-1.857-0.846-3.605-1.936-5.4-2.918c1.445-0.784,2.91-1.578,4.336-2.352c1.096,1.451,3.013,1.976,4.576,2.941
	C135.091,99.014,136.461,100.316,138.33,101.078z"/>
<linearGradient id="SVGID_7_" gradientUnits="userSpaceOnUse" x1="500.0156" y1="-528.3472" x2="510.998" y2="-528.3472" gradientTransform="matrix(1 0 0 -1 -367.6602 -435.96)">
	<stop  offset="0" style="stop-color:#FF63D4"/>
	<stop  offset="1" style="stop-color:#FFE2D4"/>
</linearGradient>
<path fill="url(#SVGID_7_)" d="M142.576,92.173c0.162-0.149,0.326-0.298,0.762-0.694c-0.456,1.685-0.764,3.082-1.535,4.344
	c-3.039-1.797-6.308-2.893-9.447-4.092c0.584-0.998,1.082-1.846,1.627-2.778c1.442,0.287,2.916,0.708,4.345,1.373
	C139.725,90.975,141.021,91.874,142.576,92.173z"/>
<linearGradient id="SVGID_8_" gradientUnits="userSpaceOnUse" x1="502.2969" y1="-519.7422" x2="511.4238" y2="-519.7422" gradientTransform="matrix(1 0 0 -1 -367.6602 -435.96)">
	<stop  offset="0" style="stop-color:#FF63D4"/>
	<stop  offset="1" style="stop-color:#FFE2D4"/>
</linearGradient>
<path fill="url(#SVGID_8_)" d="M143.145,82.669c0.809,1.177,0.611,2.515,0.562,3.983c-1.542,0.139-2.767-1.362-4.333-0.903
	c-1.311-0.662-2.783-0.624-4.165-0.985c-0.187-1.265-0.377-2.546-0.571-3.861C137.434,81.699,140.266,82.275,143.145,82.669z"/>
<path fill="#AA7013" d="M128.105,47.928c0.14-0.948,0.306-2.078,0.479-3.259c1.08-0.233,1.989-0.429,2.884-0.621
	c0.579,0.664,1.073,1.23,1.729,1.981c0,0.288,0,0.887,0,1.584c-0.493,0.439-1.057,0.94-1.784,1.588
	C130.385,49.359,129.189,49.211,128.105,47.928z"/>
<path fill="#AA7013" d="M16.699,39.777c-0.858-0.613-1.614-1.153-2.432-1.738c0.169-1.15,0.325-2.219,0.514-3.509
	c1.07,0.453,1.671-0.719,2.768-0.29c1,0.392,1.387,1.173,1.884,2.087c0,0.311,0,0.766,0,1.387
	C18.593,38.348,17.672,39.043,16.699,39.777z"/>
<path fill="#AA7013" d="M8.427,40.451C8.241,39.97,8.066,39.515,7.906,39.1c0.645-0.658,1.024-1.486,2.244-1.276
	c0.294,0.451,0.666,1.022,0.972,1.491c-0.182,0.411-0.324,0.731-0.503,1.136C10.03,40.451,9.368,40.451,8.427,40.451z"/>
<path fill="#AA7013" d="M16.969,30.849c0.539-0.494,0.927-0.85,1.38-1.265c0.344,0,0.79,0,1.271,0
	c0.226,0.38,0.47,0.792,0.744,1.255c-0.176,0.408-0.368,0.853-0.57,1.322c-0.11,0.042-0.236,0.109-0.371,0.141
	C18.246,32.572,17.697,31.768,16.969,30.849z"/>
<path fill="#AA7013" d="M137.48,49.67c0.965,0.621,0.744,1.346,0.773,2.104c-0.531,0.229-1.102,0.476-1.477,0.638
	c-0.976,0-1.213-0.504-1.221-2.097c0.161-0.162,0.322-0.323,0.484-0.485c0.055-0.054,0.107-0.108,0.158-0.161
	C136.659,49.67,137.115,49.67,137.48,49.67z"/>
<path fill="#AA7013" d="M12.512,31.227c0.525,0.243,0.966,0.448,1.396,0.648c0,0.557,0,0.997,0,1.665
	c-0.268,0.189-0.693,0.489-1.247,0.88c-0.298-0.17-0.817-0.468-1.454-0.833c0-0.343-0.134-0.787,0.029-1.036
	C11.55,32.073,12.033,31.706,12.512,31.227z"/>
<path fill="#AA7013" d="M134.197,43.799c0.027-0.062,0.232-0.51,0.432-0.944c0.784,0,1.447,0,2.184,0c0,0.696,0,1.363,0,2.192
	c-0.32,0.17-0.756,0.402-1.182,0.628C135.154,45.053,134.762,44.539,134.197,43.799z"/>
<path fill="#AA7013" d="M132.104,40.478c-0.754,0.69-1.043,1.581-2.318,1.387c-0.385-0.521-1.381-0.826-1.102-2.08
	c0.51-0.22,1.078-0.465,1.756-0.757C130.941,39.466,131.423,39.885,132.104,40.478z"/>
<path d="M69.276,57.789c-1.504,1.282-3.191,1.676-4.877,1.899c-1.347,0.178-2.737,0.046-4.107,0.034
	c-2.957-0.026-5.573-1.162-8.041-2.635c-1.373-0.82-2.646-1.793-3.413-3.324c-0.324-0.646-1.025-1.112-1.587-1.625
	c-0.242-0.221-0.627-0.3-0.836-0.541c-0.222-0.255-0.312-0.625-0.508-1.048c0.318-0.546,0.676-1.16,1.017-1.744
	c0.759,0,1.422,0,2.015,0c1.582,1.222-0.176,2.513,0.281,3.89c2.043,2.434,4.883,3.959,7.914,5.202
	c6.731,0.792,7.949,0.76,10.622-1.02c-0.568-0.949-1.037-1.98-1.731-2.826c-0.864-1.051-0.173-2.188-0.424-3.055
	c1.455-2.511,3.742-2.355,6.072-2.199c0.462,0.333,0.982,0.708,1.815,1.308c0.119,0.712,0.296,1.778,0.467,2.805
	c-1.018,1.458-1.962,2.811-2.957,4.238c2.116,1.129,4.205,2.026,6.641,2.192c1.139,0.078,2.32,0.603,3.461,0.343
	c1.159-0.264,2.295-0.395,3.475-0.44c1.138-0.043,2.216-0.435,3.287-0.865c1.046-0.42,2.22-0.528,3.252-0.973
	c0.845-0.364,1.74-0.81,2.171-1.753c0.108,0.108,0.215,0.215,0.349,0.349c0.303-0.383,0.611-0.77,0.936-1.18
	c-0.065-0.6-0.154-1.425-0.243-2.244c0.602-0.373,1.091-0.676,1.528-0.946c0.553,0.151,1.076,0.294,1.615,0.441
	c0.672,0.958,0.856,1.942,0.252,2.612c-1.068,0.733-1.922,1.164-2.572,1.802c-1.168,1.147-2.539,1.77-4.045,2.395
	c-2.582,1.071-5.199,1.619-7.953,1.772c-0.855,0.047-1.702,0.426-2.551,0.417C76.574,61.029,72.77,60.136,69.276,57.789z
	 M69.291,55.971c1.324-0.27,1.586-1.373,2.285-2.046c0.746-0.718,1.129-1.665,0.772-2.755c-1.072-1.145-2.435-1.158-3.767-0.995
	c-0.55,0.332-1.036,0.626-1.556,0.94c0,0.683,0,1.344,0,2.26C67.7,54.148,68.517,55.085,69.291,55.971z"/>
<path d="M82.141,37.049c0.709-0.23,1.18-0.382,1.832-0.593c1.256,0.233,1.983,1.182,2.254,2.762
	c-0.498,0.542-1.045,1.138-1.576,1.715c-0.703,0-1.366,0-1.993,0C81.493,39.695,81.193,38.413,82.141,37.049z"/>
<path d="M59.738,35.967c0.73,0,1.335,0,1.994,0c0.33,0.355,0.69,0.743,1.099,1.184c0,0.364,0,0.815,0,1.283
	c-1.159,1.181-1.159,1.181-2.733,1.654c-0.895-0.39-1.342-1.222-1.754-2.161C58.777,37.32,59.277,36.617,59.738,35.967z"/>
<path fill="#FF0000" d="M69.291,55.971c-0.774-0.886-1.59-1.822-2.265-2.595c0-0.917,0-1.578,0-2.26
	c0.52-0.314,1.006-0.608,1.556-0.94c1.332-0.163,2.694-0.151,3.767,0.995c0.357,1.09-0.026,2.036-0.772,2.755
	C70.877,54.598,70.615,55.701,69.291,55.971z"/>
<g>
	<path fill="#FFFFFF" d="M145,5v140H5V5H145 M150,0H0v150h150V0L150,0z"/>
</g>
</svg>
