<?xml version="1.0" encoding="iso-8859-1"?>
<!-- Generator: Adobe Illustrator 17.0.2, SVG Export Plug-In . SVG Version: 6.00 Build 0)  -->
<!DOCTYPE svg PUBLIC "-//W3C//DTD SVG 1.1//EN" "http://www.w3.org/Graphics/SVG/1.1/DTD/svg11.dtd">
<svg version="1.1" id="Layer_1" xmlns="http://www.w3.org/2000/svg" xmlns:xlink="http://www.w3.org/1999/xlink" x="0px" y="0px"
	 width="150px" height="150px" viewBox="-185.675 -153 150 150" style="enable-background:new -185.675 -153 150 150;"
	 xml:space="preserve">
<radialGradient id="SVGID_1_" cx="-110.6747" cy="-78" r="75" gradientUnits="userSpaceOnUse">
	<stop  offset="0" style="stop-color:#FFFFFF"/>
	<stop  offset="1" style="stop-color:#75EFE0"/>
</radialGradient>
<rect x="-185.675" y="-153" style="fill:url(#SVGID_1_);" width="150" height="150"/>
<path d="M-118.266-24.455c0.692,3.099-0.366,6.588-2.699,9.937c-1.378,1.979-2.087,4.422-3.127,6.641
	c-0.125,0.265-0.446,0.437-0.676,0.652c-0.086-0.359-0.351-0.796-0.232-1.064c1.208-2.716,2.487-5.399,3.721-8.103
	c0.165-0.362,0.201-0.782,0.298-1.175c-0.395,0.076-0.873,0.035-1.172,0.246c-2.855,2.017-5.675,4.085-8.52,6.117
	c-0.295,0.21-0.686,0.286-1.033,0.424c0.082-0.388,0.026-0.946,0.264-1.137c2.395-1.913,4.839-3.763,7.264-5.638
	c0.449-0.346,0.873-0.724,1.309-1.088c-0.57-0.111-1.136-0.293-1.711-0.323c-3.637-0.191-7.191,0.053-10.432,1.999
	c-0.381,0.228-0.939,0.162-1.415,0.233c0.319-0.427,0.548-1.029,0.975-1.253c3.519-1.849,7.338-2.469,11.233-2.099
	c5.098,0.485,5.034,0.611,4.81-4.321c-0.095-2.107,0.043-4.226,0.142-6.337c0.058-1.236-0.209-1.876-1.667-2.032
	c-6.048-0.641-11.904-2.159-17.389-4.791c-13.514-6.484-22.115-17.129-25.64-31.633c-3.906-16.071-0.82-30.877,9.261-44.039
	c4.895-6.391,11.197-11.153,18.631-14.294c1.484-0.627,2.149-1.281,2.222-2.984c0.128-2.976,0.368-6.001,1.074-8.88
	c0.525-2.143,1.569-4.307,2.899-6.073c1.981-2.631,4.796-2.195,6.306,0.772c0.912,1.792,1.525,3.734,2.385,5.556
	c0.301,0.639,0.934,1.121,1.416,1.675c0.224-0.623,0.46-1.241,0.669-1.868c0.719-2.149,1.186-4.426,2.211-6.415
	c0.931-1.804,2.572-3.296,4.874-2.985c2.143,0.289,3.244,1.921,3.869,3.873c0.694,2.168,1.325,4.357,2.082,6.503
	c0.178,0.507,0.75,0.875,1.141,1.308c0.349-0.464,0.799-0.885,1.025-1.403c0.31-0.713,0.382-1.527,0.677-2.249
	c0.66-1.613,1.168-3.351,2.143-4.758c2.352-3.395,6.211-3.093,7.465,0.825c1.239,3.871,1.84,8.009,2.201,12.074
	c0.199,2.242,0.754,3.162,2.936,4.058c17.669,7.259,28.743,20.291,31.962,39.151c4.225,24.747-9.305,45.109-32.423,52.895
	c-4.206,1.417-8.62,2.252-12.978,3.156c-1.26,0.262-1.576,0.707-1.562,1.851c0.041,3.259,0.045,6.52-0.004,9.779
	c-0.018,1.232,0.272,1.522,1.643,1.498c3.496-0.062,7.008,0.127,10.492,0.444c1.256,0.114,2.481,0.825,3.663,1.384
	c0.491,0.232,0.833,0.78,1.241,1.185c-0.539-0.07-1.156,0.006-1.606-0.232c-3.116-1.65-6.461-2.141-9.92-2.038
	c-0.719,0.021-1.429,0.311-2.144,0.477c0.529,0.398,1.06,0.79,1.584,1.194c2.361,1.819,4.731,3.625,7.061,5.484
	c0.255,0.203,0.272,0.706,0.4,1.07c-0.379-0.106-0.829-0.117-1.125-0.335c-2.541-1.863-5.03-3.799-7.598-5.624
	c-0.492-0.349-1.264-0.305-1.907-0.442c0.202,0.624,0.35,1.271,0.616,1.865c1.075,2.4,2.208,4.775,3.258,7.185
	c0.121,0.278-0.15,0.726-0.239,1.096c-0.218-0.238-0.496-0.444-0.645-0.72c-1.946-3.617-3.905-7.228-5.776-10.884
	c-0.291-0.568-0.225-1.355-0.209-2.038c0.076-3.164,0.174-6.327,0.304-9.489c0.064-1.557-0.523-2.204-2.168-2.136
	c-3.341,0.137-6.69,0.169-10.034,0.11c-1.33-0.024-1.703,0.509-1.681,1.696C-118.241-29.073-118.266-27.223-118.266-24.455z
	 M-57.314-82.904C-56.796-92.96-61.241-103.01-68.142-112c-5.113-6.661-11.912-11.331-19.713-14.613
	c-6.565-2.762-13.293-4.361-20.412-4.154c-2.515,0.073-5.021,0.399-7.537,0.533c-1.03,0.055-2.073-0.156-3.107-0.134
	c-4.895,0.105-9.476,1.52-14.042,3.188c-9.023,3.297-16.282,8.868-21.964,16.538c-3.645,4.92-6.06,10.45-7.527,16.371
	c-2.306,9.307-2.396,18.582,0.81,27.735c0.528,1.506,1.76,2.945,1.759,4.415c-0.002,2.386,1.428,3.736,2.77,5.139
	c2.293,2.399,3.358,2.068,4.458-1.091c0.464-1.333,1.085-2.197,2.277-0.572c0.83,1.131,1.901,2.216,3.252,1.455
	c0.879-0.495,1.62-1.776,1.817-2.819c0.339-1.799,1.006-1.955,2.197-0.86c1.381,1.271,2.269,0.419,2.985-0.656
	c0.413-0.618,0.436-1.482,0.724-2.2c0.204-0.508,0.558-0.956,0.846-1.43c0.319,0.536,0.973,1.124,0.899,1.6
	c-0.247,1.596-0.517,3.282-1.272,4.662c-0.316,0.577-1.911,0.372-2.859,0.709c-0.77,0.274-1.614,0.682-2.127,1.285
	c-2.037,2.388-3.075,2.783-5.803,1.514c-0.956-0.444-1.441-0.555-2.183,0.353c-0.487,0.596-1.445,0.984-2.245,1.102
	c-1.144,0.169-1.673,0.212-0.572,1.32c2.628,2.643,4.915,5.716,7.852,7.937c3.371,2.549,7.171,4.632,11.006,6.447
	c8.198,3.878,17.044,4.501,25.94,4.245c3.569-0.103,7.128-1.221,10.677-1.154c3.748,0.071,6.265-3.786,10.16-2.695
	c0.271,0.076,0.638-0.274,0.977-0.344c3.32-0.685,5.912-2.941,8.814-4.43c3.782-1.941,7.087-4.953,10.268-7.863
	c1.705-1.56-0.654-2.877-1.205-4.303c-0.617-1.594-1.294-0.356-1.967-0.094c-2.686,1.048-3.528,0.754-5.679-1.586
	c-0.584-0.636-1.469-1.258-2.286-1.368c-2.162-0.293-4.71-3.55-4.114-5.644c0.115-0.402,0.676-0.676,1.031-1.01
	c0.246,0.315,0.582,0.596,0.716,0.953c0.214,0.57,0.147,1.286,0.46,1.77c0.763,1.18,1.738,2.399,3.346,1.663
	c2.039-0.934,2.366-0.878,2.665,1.19c0.355,2.453,0.597,2.671,2.868,1.915c0.746-0.248,1.374-0.916,1.993-1.464
	c0.761-0.673,1.487-0.913,1.648,0.35c0.223,1.744,1.567,2.568,2.803,2.474c1.096-0.083,2.332-1.143,3.093-2.099
	c1.059-1.331,1.895-2.902,2.542-4.486C-58.609-68.304-57.251-74.651-57.314-82.904z M-110.806-132.978
	c4.437,0.484,8.877,0.946,13.31,1.466c1.126,0.132,2.239,0.416,3.344,0.689c0.997,0.246,1.637-0.045,1.522-1.113
	c-0.434-4.068-0.014-8.324-2.259-12.014c-0.571-0.938-1.793-2.275-2.502-2.156c-1.18,0.199-2.57,1.206-3.181,2.27
	c-0.986,1.716-1.305,3.804-2.117,5.64c-0.465,1.051-1.351,1.918-2.047,2.867c-0.838-0.798-1.83-1.492-2.468-2.426
	c-0.574-0.842-0.796-1.939-1.105-2.944c-0.386-1.255-0.494-2.643-1.107-3.764c-0.577-1.055-1.591-2.485-2.523-2.574
	c-1.107-0.106-2.86,0.751-3.401,1.715c-1.167,2.077-1.68,4.512-2.577,6.754c-0.401,1.003-1.081,1.894-1.635,2.836
	c-0.853-0.775-1.954-1.406-2.504-2.357c-0.914-1.58-1.31-3.463-2.243-5.027c-0.611-1.024-1.714-2.239-2.735-2.382
	c-0.83-0.117-1.899,1.193-2.791,1.955c-0.303,0.259-0.472,0.758-0.556,1.177c-0.701,3.506-1.358,7.021-2.05,10.529
	c-0.438,2.228,0.652,2.259,2.311,1.718C-123.856-132.164-117.426-132.939-110.806-132.978z"/>
<linearGradient id="SVGID_2_" gradientUnits="userSpaceOnUse" x1="-19.1149" y1="158.643" x2="87.7268" y2="158.643" gradientTransform="matrix(1 0 0 1 -145 -241)">
	<stop  offset="0" style="stop-color:#FFCE1E"/>
	<stop  offset="1" style="stop-color:#FFF00C"/>
</linearGradient>
<path style="fill:url(#SVGID_2_);" d="M-57.314-82.904c0.063,8.253-1.294,14.599-3.786,20.698c-0.647,1.584-1.483,3.155-2.542,4.486
	c-0.761,0.956-1.997,2.017-3.093,2.1c-1.237,0.094-2.581-0.73-2.803-2.474c-0.161-1.263-0.886-1.024-1.648-0.35
	c-0.619,0.548-1.247,1.215-1.993,1.464c-2.272,0.756-2.513,0.538-2.868-1.915c-0.299-2.068-0.626-2.124-2.665-1.19
	c-1.609,0.737-2.584-0.483-3.346-1.663c-0.314-0.484-0.246-1.2-0.46-1.77c-0.134-0.357-0.47-0.637-0.716-0.953
	c-0.355,0.333-0.916,0.608-1.031,1.01c-0.598,2.094,1.95,5.351,4.114,5.644c0.817,0.11,1.701,0.732,2.286,1.368
	c2.152,2.34,2.993,2.633,5.679,1.586c0.672-0.262,1.349-1.5,1.967,0.094c0.552,1.426,2.911,2.744,1.205,4.303
	c-3.182,2.91-6.487,5.922-10.268,7.863c-2.902,1.489-5.493,3.745-8.814,4.43c-0.339,0.07-0.706,0.42-0.977,0.344
	c-3.894-1.092-6.412,2.765-10.16,2.695c-3.55-0.067-7.109,1.051-10.677,1.154c-8.897,0.256-17.742-0.367-25.94-4.245
	c-3.835-1.814-7.635-3.898-11.006-6.447c-2.937-2.221-5.225-5.294-7.852-7.937c-1.101-1.108-0.572-1.152,0.572-1.32
	c0.8-0.118,1.758-0.507,2.245-1.102c0.743-0.908,1.228-0.797,2.183-0.353c2.728,1.269,3.767,0.874,5.803-1.514
	c0.513-0.602,1.356-1.009,2.127-1.285c0.947-0.338,2.542-0.132,2.859-0.709c0.756-1.38,1.026-3.066,1.272-4.662
	c0.074-0.476-0.579-1.064-0.899-1.6c-0.288,0.475-0.642,0.923-0.846,1.43c-0.289,0.718-0.312,1.582-0.724,2.2
	c-0.718,1.075-1.604,1.928-2.985,0.656c-1.191-1.096-1.858-0.939-2.197,0.86c-0.197,1.043-0.938,2.324-1.817,2.819
	c-1.351,0.761-2.422-0.323-3.252-1.455c-1.191-1.625-1.812-0.762-2.277,0.572c-1.1,3.158-2.166,3.489-4.458,1.091
	c-1.341-1.404-2.771-2.752-2.77-5.139c0.001-1.47-1.232-2.909-1.759-4.415c-3.206-9.153-3.116-18.428-0.81-27.735
	c1.467-5.921,3.881-11.451,7.527-16.371c5.682-7.67,12.941-13.241,21.964-16.538c4.565-1.668,9.146-3.084,14.042-3.188
	c1.034-0.022,2.077,0.19,3.107,0.134c2.514-0.134,5.021-0.46,7.537-0.533c7.118-0.207,13.847,1.392,20.412,4.154
	c7.802,3.282,14.601,7.952,19.713,14.613C-61.241-103.01-56.797-92.96-57.314-82.904z M-111.043-65.254
	c1.646-1.073,3.238-2.231,4.939-3.197c4.588-2.607,7.423-6.57,9.034-11.48c0.86-2.622,1.849-4.932,4.912-5.799
	c1.368-0.387,2.496-1.595,3.757-2.394c1.017-0.644,2.013-1.375,3.121-1.805c1.332-0.517,1.884-1.47,1.494-2.649
	c-0.205-0.618-1.412-1.485-1.833-1.331c-0.905,0.332-1.674,1.183-2.342,1.957c-0.504,0.585-0.588,1.622-1.164,2.037
	c-1.623,1.169-3.365,2.189-5.134,3.131c-0.986,0.526-1.714,0.268-2.196-0.989c-0.844-2.206-1.805-4.397-2.986-6.436
	c-1.649-2.843-3.21-5.86-5.426-8.222c-2.6-2.77-5.888-4.887-8.823-7.351c-1.124-0.944-1.782-0.268-2.397,0.509
	c-2.112,2.669-4.18,5.372-6.26,8.066c-3.434,4.449-4.799,9.913-7.247,14.846c-0.177,0.355-0.225,0.822-0.189,1.224
	c0.117,1.309-0.604,1.021-1.24,0.631c-2.366-1.446-4.671-2.92-6.016-5.549c-0.322-0.629-1.469-1.038-2.285-1.134
	c-0.435-0.051-1.455,0.925-1.377,1.191c0.247,0.835,0.794,1.641,1.407,2.285c0.494,0.519,1.573,0.637,1.834,1.194
	c0.928,1.986,2.745,2.478,4.499,3.263c1.191,0.531,2.742,1.292,3.161,2.338c2.182,5.45,6.665,8.829,10.936,12.272
	C-116.849-67.018-113.965-66.47-111.043-65.254z M-97.761-113.726c-1.784-0.059-2.562,1.035-2.613,2.601
	c-0.055,1.692,1.158,2.489,2.65,2.721c1.247,0.194,2.839-1.379,2.676-2.688C-95.235-112.589-96.033-113.69-97.761-113.726z
	 M-129.594-111.809c-0.028,0.347-0.056,0.694-0.083,1.042c0.757,0.605,1.443,1.561,2.288,1.734c1.301,0.267,2.015-0.733,2.139-2.028
	c0.139-1.442-0.653-2.238-1.977-2.055C-128.06-113.002-128.808-112.267-129.594-111.809z"/>
<linearGradient id="SVGID_3_" gradientUnits="userSpaceOnUse" x1="12.4724" y1="102.5607" x2="52.3851" y2="102.5607" gradientTransform="matrix(1 0 0 1 -145 -241)">
	<stop  offset="0" style="stop-color:#731401"/>
	<stop  offset="0.7251" style="stop-color:#B21F02"/>
	<stop  offset="1" style="stop-color:#FF2D03"/>
</linearGradient>
<path style="fill:url(#SVGID_3_);" d="M-110.806-132.978c-6.62,0.039-13.051,0.814-19.313,2.857
	c-1.659,0.541-2.75,0.509-2.311-1.718c0.691-3.508,1.348-7.023,2.05-10.529c0.083-0.419,0.253-0.918,0.556-1.177
	c0.891-0.762,1.961-2.071,2.791-1.955c1.021,0.143,2.123,1.358,2.735,2.382c0.934,1.564,1.329,3.448,2.243,5.027
	c0.55,0.951,1.651,1.582,2.504,2.357c0.554-0.942,1.234-1.833,1.635-2.836c0.897-2.242,1.41-4.677,2.577-6.754
	c0.541-0.963,2.294-1.82,3.401-1.715c0.933,0.089,1.946,1.519,2.523,2.574c0.612,1.121,0.721,2.51,1.107,3.764
	c0.309,1.005,0.531,2.102,1.105,2.944c0.637,0.935,1.63,1.628,2.468,2.426c0.696-0.95,1.581-1.815,2.047-2.867
	c0.813-1.836,1.131-3.923,2.117-5.64c0.611-1.064,2-2.07,3.181-2.27c0.709-0.119,1.931,1.217,2.502,2.156
	c2.245,3.691,1.826,7.947,2.259,12.014c0.114,1.068-0.526,1.358-1.522,1.113c-1.105-0.272-2.218-0.557-3.344-0.689
	C-101.929-132.032-106.369-132.494-110.806-132.978z"/>
<path d="M-111.043-65.254c-2.922-1.215-5.807-1.765-7.823-3.39c-4.272-3.443-8.755-6.822-10.936-12.272
	c-0.419-1.047-1.97-1.806-3.161-2.338c-1.755-0.784-3.572-1.277-4.499-3.263c-0.261-0.557-1.34-0.675-1.834-1.194
	c-0.613-0.645-1.161-1.451-1.407-2.285c-0.079-0.266,0.942-1.241,1.377-1.191c0.816,0.096,1.963,0.505,2.285,1.134
	c1.345,2.629,3.65,4.103,6.016,5.549c0.637,0.389,1.357,0.677,1.24-0.631c-0.035-0.402,0.013-0.869,0.189-1.224
	c2.448-4.933,3.812-10.396,7.247-14.846c2.08-2.694,4.148-5.397,6.26-8.066c0.615-0.777,1.273-1.453,2.397-0.509
	c2.936,2.465,6.224,4.581,8.823,7.351c2.216,2.362,3.778,5.378,5.426,8.222c1.183,2.04,2.142,4.231,2.986,6.436
	c0.482,1.257,1.21,1.515,2.196,0.989c1.768-0.942,3.511-1.963,5.134-3.131c0.575-0.414,0.66-1.451,1.164-2.037
	c0.667-0.774,1.437-1.625,2.342-1.957c0.421-0.154,1.629,0.712,1.833,1.331c0.39,1.18-0.162,2.132-1.494,2.649
	c-1.107,0.43-2.104,1.162-3.121,1.805c-1.261,0.798-2.389,2.006-3.757,2.394c-3.063,0.866-4.051,3.177-4.912,5.799
	c-1.611,4.91-4.446,8.873-9.034,11.48C-107.805-67.485-109.396-66.327-111.043-65.254z M-116.72-81.39
	c5.98-0.293,11.771-1.154,17.389-3.147c1.439-0.51,1.864-1.188,1.292-2.697c-2.932-7.746-8.282-13.777-13.808-19.687
	c-1.205-1.289-2.594-1.616-3.807-0.057c-2.411,3.102-4.63,6.359-7.118,9.397c-2.951,3.601-3.937,7.951-5.178,12.241
	c-0.458,1.582,0.064,2.371,1.604,2.594C-123.139-82.281-119.929-81.84-116.72-81.39z M-127.508-80.735
	c0.286,0.316,0.655,0.587,0.844,0.954c2.704,5.258,7.345,8.405,12.304,11.137c1.072,0.59,2.728,1.136,3.698,0.723
	c5.627-2.398,9.677-6.487,11.798-12.303c0.246-0.674,0.026-1.518,0.021-2.283c-0.677,0.116-1.37,0.175-2.029,0.357
	C-109.622-79.722-118.432-78.762-127.508-80.735z"/>
<path d="M-97.761-113.726c1.728,0.036,2.526,1.137,2.712,2.633c0.163,1.31-1.428,2.882-2.676,2.688
	c-1.492-0.231-2.703-1.028-2.65-2.721C-100.324-112.69-99.546-113.786-97.761-113.726z"/>
<path d="M-129.594-111.809c0.786-0.458,1.534-1.192,2.367-1.309c1.324-0.183,2.116,0.613,1.977,2.055
	c-0.125,1.295-0.838,2.294-2.139,2.028c-0.845-0.173-1.531-1.128-2.288-1.734C-129.65-111.115-129.622-111.463-129.594-111.809z"/>
<path style="fill:#FF6511;" d="M-116.72-81.39c-3.209-0.451-6.419-0.891-9.625-1.357c-1.54-0.224-2.062-1.011-1.604-2.594
	c1.241-4.289,2.228-8.64,5.178-12.241c2.489-3.037,4.707-6.293,7.118-9.397c1.212-1.56,2.601-1.233,3.807,0.057
	c5.526,5.911,10.876,11.942,13.808,19.687c0.571,1.509,0.146,2.186-1.292,2.697C-104.949-82.543-110.74-81.682-116.72-81.39z"/>
<path style="fill:#FF6511;" d="M-127.508-80.735c9.075,1.972,17.885,1.013,26.638-1.416c0.659-0.182,1.352-0.241,2.029-0.357
	c0.004,0.766,0.224,1.61-0.021,2.283c-2.122,5.816-6.171,9.904-11.798,12.303c-0.97,0.413-2.628-0.132-3.698-0.723
	c-4.959-2.733-9.6-5.879-12.304-11.137C-126.851-80.148-127.222-80.419-127.508-80.735z"/>
</svg>
