<?xml version="1.0" encoding="iso-8859-1"?>
<!-- Generator: Adobe Illustrator 17.0.2, SVG Export Plug-In . SVG Version: 6.00 Build 0)  -->
<!DOCTYPE svg PUBLIC "-//W3C//DTD SVG 1.1//EN" "http://www.w3.org/Graphics/SVG/1.1/DTD/svg11.dtd">
<svg version="1.1" id="Layer_1" xmlns="http://www.w3.org/2000/svg" xmlns:xlink="http://www.w3.org/1999/xlink" x="0px" y="0px"
	 width="40px" height="40px" viewBox="0 0 40 40" style="enable-background:new 0 0 40 40;" xml:space="preserve">
<radialGradient id="SVGID_1_" cx="20" cy="20" r="20" gradientUnits="userSpaceOnUse">
	<stop  offset="0" style="stop-color:#FFFFFF"/>
	<stop  offset="0.1599" style="stop-color:#FBFDFF"/>
	<stop  offset="0.3238" style="stop-color:#EFF7FE"/>
	<stop  offset="0.4896" style="stop-color:#DAEEFD"/>
	<stop  offset="0.6566" style="stop-color:#BDE1FB"/>
	<stop  offset="0.8246" style="stop-color:#98D0FA"/>
	<stop  offset="0.9913" style="stop-color:#6CBBF7"/>
	<stop  offset="1" style="stop-color:#69BAF7"/>
</radialGradient>
<circle style="fill:url(#SVGID_1_);" cx="20" cy="20" r="20"/>
<path d="M18.266,32.233c0.158,0.708-0.084,1.505-0.616,2.27c-0.315,0.452-0.477,1.01-0.714,1.517
	c-0.028,0.061-0.102,0.1-0.155,0.149c-0.02-0.082-0.08-0.182-0.053-0.243c0.276-0.62,0.568-1.234,0.85-1.851
	c0.038-0.083,0.046-0.179,0.068-0.268c-0.09,0.017-0.199,0.008-0.268,0.056c-0.652,0.461-1.297,0.933-1.947,1.397
	c-0.067,0.048-0.157,0.065-0.236,0.097c0.019-0.089,0.006-0.216,0.06-0.26c0.547-0.437,1.106-0.86,1.66-1.288
	c0.102-0.079,0.199-0.166,0.299-0.249c-0.13-0.025-0.26-0.067-0.391-0.074c-0.831-0.044-1.643,0.012-2.383,0.457
	c-0.087,0.052-0.215,0.037-0.323,0.053c0.073-0.098,0.125-0.235,0.223-0.286c0.804-0.422,1.676-0.564,2.566-0.48
	c1.165,0.111,1.15,0.14,1.099-0.987c-0.022-0.481,0.01-0.966,0.032-1.448c0.013-0.282-0.048-0.429-0.381-0.464
	c-1.382-0.146-2.72-0.493-3.973-1.094c-3.087-1.481-5.052-3.913-5.858-7.227c-0.893-3.672-0.187-7.054,2.116-10.061
	c1.118-1.46,2.558-2.548,4.257-3.266c0.339-0.143,0.491-0.293,0.508-0.682c0.029-0.68,0.084-1.371,0.245-2.029
	c0.12-0.49,0.359-0.984,0.662-1.387c0.453-0.601,1.096-0.501,1.441,0.176c0.208,0.409,0.349,0.853,0.545,1.269
	c0.069,0.146,0.213,0.256,0.323,0.383c0.051-0.142,0.105-0.284,0.153-0.427c0.164-0.491,0.271-1.011,0.505-1.466
	c0.213-0.412,0.588-0.753,1.114-0.682c0.49,0.066,0.741,0.439,0.884,0.885C20.736,5.22,20.88,5.72,21.053,6.21
	c0.041,0.116,0.171,0.2,0.261,0.299c0.08-0.106,0.182-0.202,0.234-0.32c0.071-0.163,0.087-0.349,0.155-0.514
	c0.151-0.368,0.267-0.766,0.49-1.087c0.537-0.776,1.419-0.707,1.705,0.188c0.283,0.884,0.42,1.83,0.503,2.759
	c0.045,0.512,0.172,0.722,0.671,0.927c4.037,1.658,6.567,4.636,7.302,8.945c0.965,5.654-2.126,10.306-7.407,12.084
	c-0.961,0.324-1.969,0.514-2.965,0.721c-0.288,0.06-0.36,0.162-0.357,0.423c0.009,0.745,0.01,1.49-0.001,2.234
	c-0.004,0.281,0.062,0.348,0.375,0.342c0.799-0.014,1.601,0.029,2.397,0.102c0.287,0.026,0.567,0.188,0.837,0.316
	c0.112,0.053,0.19,0.178,0.284,0.271c-0.123-0.016-0.264,0.001-0.367-0.053c-0.712-0.377-1.476-0.489-2.266-0.466
	c-0.164,0.005-0.327,0.071-0.49,0.109c0.121,0.091,0.242,0.181,0.362,0.273c0.539,0.416,1.081,0.828,1.613,1.253
	c0.058,0.047,0.062,0.161,0.091,0.244c-0.087-0.024-0.189-0.027-0.257-0.077c-0.581-0.426-1.149-0.868-1.736-1.285
	c-0.112-0.08-0.289-0.07-0.436-0.101c0.046,0.142,0.08,0.29,0.141,0.426c0.246,0.548,0.505,1.091,0.744,1.642
	c0.028,0.064-0.034,0.166-0.055,0.25c-0.05-0.054-0.113-0.101-0.147-0.164c-0.445-0.826-0.892-1.651-1.32-2.487
	c-0.066-0.13-0.052-0.309-0.048-0.465c0.017-0.723,0.04-1.446,0.069-2.168c0.015-0.356-0.119-0.503-0.495-0.488
	c-0.763,0.031-1.529,0.039-2.292,0.025c-0.304-0.005-0.389,0.116-0.384,0.387C18.272,31.178,18.266,31.601,18.266,32.233z
	 M32.191,18.88c0.118-2.298-0.897-4.594-2.474-6.647c-1.168-1.522-2.721-2.589-4.504-3.338c-1.5-0.631-3.037-0.996-4.663-0.949
	c-0.575,0.017-1.147,0.091-1.722,0.122c-0.235,0.013-0.474-0.036-0.71-0.031C17,8.06,15.954,8.383,14.911,8.764
	c-2.061,0.753-3.72,2.026-5.018,3.778c-0.833,1.124-1.384,2.387-1.72,3.74c-0.527,2.126-0.547,4.245,0.185,6.336
	c0.121,0.344,0.402,0.673,0.402,1.009c0,0.545,0.326,0.853,0.633,1.174c0.524,0.548,0.767,0.472,1.019-0.249
	c0.106-0.305,0.248-0.502,0.52-0.131c0.19,0.259,0.434,0.506,0.743,0.332c0.201-0.113,0.37-0.406,0.415-0.644
	c0.077-0.411,0.23-0.447,0.502-0.196c0.316,0.291,0.518,0.096,0.682-0.15c0.094-0.141,0.1-0.339,0.165-0.503
	c0.047-0.116,0.128-0.218,0.193-0.327c0.073,0.123,0.222,0.257,0.205,0.366c-0.056,0.365-0.118,0.75-0.291,1.065
	c-0.072,0.132-0.437,0.085-0.653,0.162c-0.176,0.063-0.369,0.156-0.486,0.293c-0.465,0.545-0.702,0.636-1.326,0.346
	c-0.218-0.102-0.329-0.127-0.499,0.081c-0.111,0.136-0.33,0.225-0.513,0.252C9.809,25.537,9.688,25.547,9.94,25.8
	c0.6,0.604,1.123,1.306,1.794,1.813c0.77,0.582,1.638,1.058,2.515,1.473c1.873,0.886,3.894,1.028,5.926,0.97
	c0.815-0.023,1.628-0.279,2.439-0.264c0.856,0.016,1.431-0.865,2.321-0.616c0.062,0.017,0.146-0.063,0.223-0.079
	c0.759-0.156,1.351-0.672,2.014-1.012c0.864-0.443,1.619-1.132,2.346-1.796c0.39-0.356-0.149-0.657-0.275-0.983
	c-0.141-0.364-0.296-0.081-0.449-0.021c-0.614,0.239-0.806,0.172-1.298-0.362c-0.134-0.145-0.336-0.287-0.522-0.312
	c-0.494-0.067-1.076-0.811-0.94-1.289c0.026-0.092,0.154-0.155,0.236-0.231c0.056,0.072,0.133,0.136,0.164,0.218
	c0.049,0.13,0.034,0.294,0.105,0.404c0.174,0.27,0.397,0.548,0.765,0.38c0.466-0.213,0.54-0.201,0.609,0.272
	c0.081,0.56,0.136,0.61,0.655,0.437c0.17-0.057,0.314-0.209,0.455-0.334c0.174-0.154,0.34-0.209,0.376,0.08
	c0.051,0.398,0.358,0.587,0.64,0.565c0.25-0.019,0.533-0.261,0.707-0.48c0.242-0.304,0.433-0.663,0.581-1.025
	C31.895,22.215,32.206,20.765,32.191,18.88z M19.97,7.44c1.014,0.111,2.028,0.216,3.041,0.335c0.257,0.03,0.512,0.095,0.764,0.157
	c0.228,0.056,0.374-0.01,0.348-0.254c-0.099-0.929-0.003-1.902-0.516-2.745c-0.13-0.214-0.41-0.52-0.572-0.492
	c-0.27,0.045-0.587,0.276-0.727,0.518c-0.225,0.392-0.298,0.869-0.484,1.288c-0.106,0.24-0.309,0.438-0.468,0.655
	c-0.191-0.182-0.418-0.341-0.564-0.554c-0.131-0.192-0.182-0.443-0.252-0.673c-0.088-0.287-0.113-0.604-0.253-0.86
	c-0.132-0.241-0.363-0.568-0.576-0.588c-0.253-0.024-0.653,0.172-0.777,0.392c-0.266,0.475-0.384,1.031-0.589,1.543
	c-0.092,0.229-0.247,0.433-0.374,0.648c-0.195-0.177-0.446-0.321-0.572-0.538c-0.209-0.361-0.299-0.791-0.513-1.149
	c-0.14-0.234-0.392-0.511-0.625-0.544c-0.19-0.027-0.434,0.273-0.638,0.447c-0.069,0.059-0.108,0.173-0.127,0.269
	c-0.16,0.801-0.31,1.604-0.468,2.406c-0.1,0.509,0.149,0.516,0.528,0.392C16.989,7.626,18.458,7.449,19.97,7.44z"/>
<linearGradient id="SVGID_2_" gradientUnits="userSpaceOnUse" x1="7.7913" y1="19.0042" x2="32.2006" y2="19.0042">
	<stop  offset="0" style="stop-color:#FFCE1E"/>
	<stop  offset="1" style="stop-color:#FFF00C"/>
</linearGradient>
<path style="fill:url(#SVGID_2_);" d="M32.191,18.88c0.015,1.886-0.296,3.335-0.865,4.729c-0.148,0.362-0.339,0.721-0.581,1.025
	c-0.174,0.219-0.456,0.461-0.707,0.48c-0.282,0.021-0.59-0.167-0.64-0.565c-0.037-0.289-0.203-0.234-0.376-0.08
	c-0.141,0.125-0.285,0.278-0.455,0.334c-0.519,0.173-0.574,0.123-0.655-0.437c-0.068-0.472-0.143-0.485-0.609-0.272
	c-0.367,0.168-0.59-0.11-0.765-0.38c-0.072-0.111-0.056-0.274-0.105-0.404c-0.031-0.082-0.107-0.146-0.164-0.218
	c-0.081,0.076-0.209,0.139-0.236,0.231c-0.137,0.478,0.446,1.223,0.94,1.289c0.187,0.025,0.389,0.167,0.522,0.312
	c0.492,0.534,0.684,0.602,1.298,0.362c0.153-0.06,0.308-0.343,0.449,0.021c0.126,0.326,0.665,0.627,0.275,0.983
	c-0.727,0.665-1.482,1.353-2.346,1.796c-0.663,0.34-1.255,0.856-2.014,1.012c-0.077,0.016-0.161,0.096-0.223,0.079
	c-0.89-0.249-1.465,0.632-2.321,0.616c-0.811-0.015-1.624,0.24-2.439,0.264c-2.033,0.058-4.053-0.084-5.926-0.97
	c-0.876-0.415-1.744-0.89-2.515-1.473c-0.671-0.507-1.194-1.209-1.794-1.813c-0.252-0.253-0.131-0.263,0.131-0.302
	c0.183-0.027,0.402-0.116,0.513-0.252c0.17-0.208,0.281-0.182,0.499-0.081c0.623,0.29,0.861,0.2,1.326-0.346
	c0.117-0.138,0.31-0.231,0.486-0.293c0.216-0.077,0.581-0.03,0.653-0.162c0.173-0.315,0.234-0.7,0.291-1.065
	c0.017-0.109-0.132-0.243-0.205-0.366c-0.066,0.108-0.147,0.211-0.193,0.327c-0.066,0.164-0.071,0.361-0.165,0.503
	c-0.164,0.246-0.367,0.44-0.682,0.15c-0.272-0.25-0.425-0.215-0.502,0.196c-0.045,0.238-0.214,0.531-0.415,0.644
	c-0.309,0.174-0.553-0.074-0.743-0.332c-0.272-0.371-0.414-0.174-0.52,0.131c-0.251,0.722-0.495,0.797-1.019,0.249
	c-0.306-0.321-0.633-0.629-0.633-1.174c0-0.336-0.281-0.665-0.402-1.009c-0.733-2.091-0.712-4.21-0.185-6.336
	c0.335-1.353,0.887-2.616,1.72-3.74c1.298-1.752,2.957-3.025,5.018-3.778C15.954,8.383,17,8.06,18.119,8.036
	c0.236-0.005,0.474,0.043,0.71,0.031c0.574-0.031,1.147-0.105,1.722-0.122c1.626-0.047,3.163,0.318,4.663,0.949
	c1.782,0.75,3.336,1.817,4.504,3.338C31.294,14.286,32.31,16.582,32.191,18.88z M19.916,22.912c0.376-0.245,0.74-0.51,1.128-0.731
	c1.048-0.596,1.696-1.501,2.064-2.623c0.196-0.599,0.422-1.127,1.122-1.325c0.312-0.088,0.57-0.364,0.858-0.547
	c0.232-0.147,0.46-0.314,0.713-0.412c0.304-0.118,0.431-0.336,0.341-0.605c-0.047-0.141-0.323-0.339-0.419-0.304
	c-0.207,0.076-0.383,0.27-0.535,0.447c-0.115,0.134-0.134,0.371-0.266,0.465c-0.371,0.267-0.769,0.5-1.173,0.715
	c-0.225,0.12-0.392,0.061-0.502-0.226c-0.193-0.504-0.412-1.004-0.682-1.471c-0.377-0.65-0.733-1.339-1.24-1.878
	c-0.594-0.633-1.345-1.116-2.016-1.68c-0.257-0.216-0.407-0.061-0.548,0.116c-0.482,0.61-0.955,1.227-1.43,1.843
	c-0.785,1.017-1.096,2.265-1.656,3.392c-0.04,0.081-0.051,0.188-0.043,0.28c0.027,0.299-0.138,0.233-0.283,0.144
	c-0.541-0.33-1.067-0.667-1.374-1.268c-0.074-0.144-0.336-0.237-0.522-0.259c-0.099-0.012-0.332,0.211-0.315,0.272
	c0.056,0.191,0.181,0.375,0.322,0.522c0.113,0.119,0.359,0.146,0.419,0.273c0.212,0.454,0.627,0.566,1.028,0.745
	c0.272,0.121,0.626,0.295,0.722,0.534c0.498,1.245,1.523,2.017,2.499,2.804C18.59,22.509,19.249,22.634,19.916,22.912z
	 M22.951,11.838c-0.408-0.014-0.585,0.237-0.597,0.594c-0.012,0.387,0.264,0.569,0.605,0.622c0.285,0.044,0.648-0.315,0.611-0.614
	C23.528,12.098,23.345,11.846,22.951,11.838z M15.678,12.276c-0.006,0.079-0.013,0.159-0.019,0.238
	c0.173,0.138,0.33,0.357,0.523,0.396c0.297,0.061,0.46-0.167,0.489-0.463c0.032-0.329-0.149-0.511-0.452-0.469
	C16.028,12.003,15.858,12.171,15.678,12.276z"/>
<linearGradient id="SVGID_3_" gradientUnits="userSpaceOnUse" x1="15.0078" y1="6.1919" x2="24.1261" y2="6.1919">
	<stop  offset="0" style="stop-color:#731401"/>
	<stop  offset="0.7251" style="stop-color:#B21F02"/>
	<stop  offset="1" style="stop-color:#FF2D03"/>
</linearGradient>
<path style="fill:url(#SVGID_3_);" d="M19.97,7.44c-1.513,0.009-2.982,0.186-4.412,0.653C15.179,8.216,14.93,8.209,15.03,7.7
	c0.158-0.802,0.308-1.605,0.468-2.406c0.019-0.096,0.058-0.21,0.127-0.269c0.204-0.174,0.448-0.473,0.638-0.447
	c0.233,0.033,0.485,0.31,0.625,0.544C17.101,5.48,17.191,5.91,17.4,6.271c0.126,0.217,0.377,0.361,0.572,0.538
	c0.126-0.215,0.282-0.419,0.374-0.648c0.205-0.512,0.322-1.068,0.589-1.543c0.124-0.22,0.524-0.416,0.777-0.392
	c0.213,0.02,0.445,0.347,0.576,0.588c0.14,0.256,0.165,0.573,0.253,0.86c0.071,0.23,0.121,0.48,0.252,0.673
	c0.146,0.214,0.372,0.372,0.564,0.554c0.159-0.217,0.361-0.415,0.468-0.655c0.186-0.42,0.258-0.896,0.484-1.288
	c0.14-0.243,0.457-0.473,0.727-0.518c0.162-0.027,0.441,0.278,0.572,0.492c0.513,0.843,0.417,1.816,0.516,2.745
	c0.026,0.244-0.12,0.31-0.348,0.254c-0.252-0.062-0.507-0.127-0.764-0.157C21.998,7.656,20.984,7.55,19.97,7.44z"/>
<path d="M19.916,22.912c-0.668-0.278-1.327-0.403-1.787-0.774c-0.976-0.787-2-1.559-2.499-2.804
	c-0.096-0.239-0.45-0.413-0.722-0.534c-0.401-0.179-0.816-0.292-1.028-0.745c-0.06-0.127-0.306-0.154-0.419-0.273
	c-0.14-0.147-0.265-0.332-0.322-0.522c-0.018-0.061,0.215-0.284,0.315-0.272c0.186,0.022,0.448,0.115,0.522,0.259
	c0.307,0.6,0.834,0.937,1.374,1.268c0.145,0.089,0.31,0.155,0.283-0.144c-0.008-0.092,0.003-0.199,0.043-0.28
	c0.559-1.127,0.871-2.375,1.656-3.392c0.475-0.615,0.948-1.233,1.43-1.843c0.14-0.177,0.291-0.332,0.548-0.116
	c0.671,0.563,1.422,1.047,2.016,1.68c0.506,0.54,0.863,1.229,1.24,1.878c0.27,0.466,0.489,0.967,0.682,1.471
	c0.11,0.287,0.276,0.346,0.502,0.226c0.404-0.215,0.802-0.448,1.173-0.715c0.131-0.095,0.151-0.332,0.266-0.465
	c0.152-0.177,0.328-0.371,0.535-0.447c0.096-0.035,0.372,0.163,0.419,0.304c0.089,0.27-0.037,0.487-0.341,0.605
	c-0.253,0.098-0.481,0.265-0.713,0.412c-0.288,0.182-0.546,0.458-0.858,0.547c-0.7,0.198-0.926,0.726-1.122,1.325
	c-0.368,1.122-1.016,2.027-2.064,2.623C20.656,22.402,20.292,22.667,19.916,22.912z M18.619,19.226
	c1.366-0.067,2.689-0.264,3.973-0.719c0.329-0.117,0.426-0.271,0.295-0.616c-0.67-1.77-1.892-3.147-3.154-4.498
	c-0.275-0.295-0.593-0.369-0.87-0.013c-0.551,0.709-1.058,1.453-1.626,2.147c-0.674,0.823-0.899,1.817-1.183,2.797
	c-0.105,0.361,0.015,0.542,0.366,0.593C17.153,19.022,17.886,19.123,18.619,19.226z M16.155,19.375
	c0.065,0.072,0.15,0.134,0.193,0.218c0.618,1.201,1.678,1.92,2.811,2.544c0.245,0.135,0.623,0.26,0.845,0.165
	c1.286-0.548,2.211-1.482,2.695-2.811c0.056-0.154,0.006-0.347,0.005-0.522c-0.155,0.027-0.313,0.04-0.463,0.082
	C20.241,19.607,18.228,19.826,16.155,19.375z"/>
<path d="M22.951,11.838c0.395,0.008,0.577,0.26,0.62,0.602c0.037,0.299-0.326,0.658-0.611,0.614
	c-0.341-0.053-0.618-0.235-0.605-0.622C22.365,12.074,22.543,11.824,22.951,11.838z"/>
<path d="M15.678,12.276c0.18-0.104,0.35-0.272,0.541-0.299c0.302-0.042,0.483,0.14,0.452,0.469
	c-0.029,0.296-0.192,0.524-0.489,0.463c-0.193-0.04-0.35-0.258-0.523-0.396C15.665,12.434,15.672,12.355,15.678,12.276z"/>
<path style="fill:#FF6511;" d="M18.619,19.226c-0.733-0.103-1.466-0.204-2.199-0.31c-0.352-0.051-0.471-0.231-0.366-0.593
	c0.284-0.98,0.509-1.974,1.183-2.797c0.569-0.694,1.075-1.438,1.626-2.147c0.277-0.356,0.594-0.282,0.87,0.013
	c1.262,1.35,2.485,2.728,3.154,4.498c0.131,0.345,0.033,0.499-0.295,0.616C21.309,18.962,19.985,19.159,18.619,19.226z"/>
<path style="fill:#FF6511;" d="M16.155,19.375c2.073,0.45,4.086,0.231,6.086-0.323c0.15-0.042,0.309-0.055,0.463-0.082
	c0.001,0.175,0.051,0.368-0.005,0.522c-0.485,1.329-1.41,2.263-2.695,2.811c-0.222,0.094-0.6-0.03-0.845-0.165
	c-1.133-0.624-2.193-1.343-2.811-2.544C16.305,19.509,16.22,19.447,16.155,19.375z"/>
</svg>
