<?xml version="1.0" encoding="iso-8859-1"?>
<!-- Generator: Adobe Illustrator 17.0.2, SVG Export Plug-In . SVG Version: 6.00 Build 0)  -->
<!DOCTYPE svg PUBLIC "-//W3C//DTD SVG 1.1//EN" "http://www.w3.org/Graphics/SVG/1.1/DTD/svg11.dtd">
<svg version="1.1" id="Layer_1" xmlns="http://www.w3.org/2000/svg" xmlns:xlink="http://www.w3.org/1999/xlink" x="0px" y="0px"
	 width="40px" height="40px" viewBox="0 0 40 40" style="enable-background:new 0 0 40 40;" xml:space="preserve">
<radialGradient id="SVGID_1_" cx="20" cy="20" r="20" gradientUnits="userSpaceOnUse">
	<stop  offset="0.2966" style="stop-color:#FFFFFF"/>
	<stop  offset="1" style="stop-color:#FF7EC8"/>
</radialGradient>
<circle style="fill:url(#SVGID_1_);" cx="20" cy="20" r="20"/>
<path d="M26.056,36.378c-0.254-0.145-0.513-0.293-0.809-0.463c-0.177,0.284-0.449,0.487-0.768,0.639
	c-0.42-0.334-0.596-0.793-0.578-1.338c0.013-0.396-0.06-0.777-0.2-1.147c-0.079-0.208,0.094-0.461-0.114-0.648
	c0.013-0.482-0.206-0.926-0.228-1.407c-0.138-0.091-0.233-0.009-0.368,0.05c-0.457,0.198-1.533,0.271-2.021-0.298
	c-0.271,0.223-0.524,0.451-0.884,0.563c-0.405,0.126-0.804,0.068-1.198,0.052c-0.208-0.008-0.424-0.182-0.606-0.321
	c-0.135-0.104-0.394-0.096-0.388-0.365c0-0.013-0.176-0.068-0.234-0.037c-0.162,0.087-0.308,0.182-0.501,0.218
	c-0.146,0.027-0.187,0.215-0.204,0.358c-0.045,0.376-0.069,0.755-0.113,1.131c-0.021,0.183-0.078,0.362-0.102,0.544
	c-0.022,0.167-0.042,0.328-0.09,0.496c-0.075,0.264-0.034,0.565-0.017,0.849c0.025,0.425-0.154,0.757-0.435,1.051
	c-0.086,0.09-0.174,0.178-0.296,0.302c-0.248-0.259-0.492-0.514-0.729-0.761c-0.179,0.388-0.617,0.254-0.93,0.433
	c-0.288-0.412-0.155-0.852-0.169-1.272c0.215-0.177-0.024-0.491,0.202-0.665c0.036-0.359,0.066-0.719,0.109-1.078
	c0.026-0.218,0.084-0.433,0.101-0.651c0.018-0.23-0.051-0.481,0.017-0.69c0.096-0.292,0.086-0.577,0.094-0.869
	c0.001-0.035-0.001-0.071,0.006-0.104c0.07-0.321,0.015-0.394-0.278-0.369c-0.646,0.056-0.815-0.034-1.359-0.383
	c-0.439-0.282-0.554-0.72-0.716-1.145c-0.041-0.107-0.006-0.242-0.006-0.361c-1.556-0.215-2.213-1.441-1.822-2.676
	c-0.107-0.077-0.226-0.161-0.343-0.247c-0.337-0.25-0.579-0.578-0.763-0.951c-0.053-0.107-0.077-0.689-0.085-0.799
	c-0.027-0.386,0.113-0.731,0.279-1.048c-0.939-0.707-1.117-1.957-0.259-3.031c-0.71-0.855-0.857-1.995,0.343-3.134
	c-0.262-0.308-0.233-0.687-0.241-1.066c-0.007-0.371,0.081-0.72,0.3-0.997c0.235-0.297,0.502-0.584,0.878-0.755
	c-0.276-0.482-0.209-0.983-0.063-1.452c0.17-0.544,0.604-0.883,1.113-1.131c0.161-0.313-0.243-0.647,0.023-0.964
	c-0.052-0.35,0.161-0.604,0.336-0.928c-0.191,0-0.365,0.014-0.535-0.004c-0.165-0.017-0.326-0.073-0.491-0.102
	c-0.614-0.108-1.405-0.74-1.632-1.308C9.231,7.98,9.233,7.878,9.332,7.772c0.436-0.469,0.906-0.896,1.507-1.14
	c0.26-0.106,0.53-0.206,0.818-0.218c0.071-0.003,0.143,0.006,0.214-0.001c0.541-0.058,1.052,0.067,1.546,0.269
	c0.198,0.081,0.331,0.043,0.519-0.067c0.312-0.183,0.662-0.321,1.089-0.314c0-0.154-0.054-0.338,0.011-0.456
	c0.129-0.232,0.139-0.511,0.352-0.715c0.288-0.276,0.576-0.537,0.969-0.637c0.588-0.15,0.567-0.177,1.194-0.003
	c0.164,0.045,0.292-0.034,0.356-0.163c0.119-0.239,0.353-0.348,0.521-0.526c0.213-0.227,0.5-0.282,0.76-0.365
	c0.226-0.072,0.496-0.036,0.743-0.009c0.212,0.023,0.364,0.214,0.604,0.231c0.108,0.008,0.202,0.224,0.328,0.377
	c0.347-0.392,0.767-0.461,1.183-0.501c0.413-0.04,0.81,0.12,1.139,0.33c0.324,0.207,0.626,0.496,0.741,0.95
	c0.136-0.035,0.285,0.06,0.428-0.075c0.041-0.038,0.139-0.051,0.195-0.031c0.344,0.121,0.746,0.06,1.043,0.318
	c0.262,0.229,0.553,0.442,0.754,0.719c0.156,0.215,0.194,0.517,0.297,0.818c0.388-0.336,0.842-0.489,1.307-0.616
	c0.097-0.026,0.195-0.06,0.293-0.064c0.231-0.009,0.463,0.003,0.695-0.004c0.677-0.021,1.266,0.184,1.764,0.651
	c0.11,0.103,0.255,0.168,0.367,0.27c0.129,0.118,0.148,0.321,0.05,0.468c-0.548,0.822-0.79,1.116-1.966,1.409
	c-0.278,0.069-0.543,0.067-0.846,0.098c-0.069,0.246,0.024,0.53-0.12,0.787c-0.076,0.135,0.004,0.291,0.175,0.386
	c0.44,0.244,0.649,0.64,0.791,1.121c0.14,0.475,0.102,0.892-0.118,1.316c-0.022,0.042-0.003,0.105-0.003,0.204
	c0.131,0.124,0.287,0.268,0.439,0.415c0.283,0.274,0.447,0.6,0.415,1.003c-0.026,0.325,0.061,0.653-0.095,0.977
	c-0.072,0.149,0.003,0.31,0.194,0.422c0.445,0.262,0.753,0.857,0.759,1.356c0.005,0.412,0.022,0.826-0.241,1.218
	c0.261,0.303,0.578,0.559,0.68,0.991c0.125,0.531,0.138,0.521,0.103,1.1c-0.027,0.446-0.255,0.762-0.563,1.081
	c0.194,0.319,0.488,0.607,0.449,1.033c-0.036,0.389,0.079,0.785-0.177,1.159c-0.219,0.321-0.366,0.69-0.788,0.837
	c0.293,0.489,0.308,1.035,0.187,1.509c-0.129,0.507-0.431,1-0.972,1.239c-0.15,0.066-0.311,0.11-0.502,0.177
	c0.133,0.407,0.074,0.828-0.107,1.22c-0.16,0.344-0.382,0.678-0.719,0.856c-0.382,0.202-0.78,0.431-1.269,0.307
	c-0.136,0.635-0.414,1.157-0.997,1.466c-0.108,0.057-0.153,0.174-0.106,0.272c0.133,0.279,0.134,0.586,0.201,0.878
	c0.069,0.298,0.051,0.617,0.12,0.915c0.142,0.61,0.289,1.217,0.315,1.846c0.147,0.159,0.104,0.357,0.106,0.544
	C26.469,35.79,26.377,36.005,26.056,36.378z M26.593,29.186c0.153,0.042,0.292,0.13,0.402,0.102
	c0.303-0.076,0.618-0.101,0.899-0.281c0.342-0.22,0.537-0.536,0.711-0.879c0.044-0.088,0.103-0.184,0.103-0.276
	c0-0.325,0.067-0.658-0.138-1.013c0.792,0.086,1.169-0.435,1.476-0.976c0.329-0.58,0.176-1.172-0.186-1.731
	c0.332-0.263,0.682-0.476,0.893-0.852c0.207-0.368,0.267-0.761,0.191-1.143c-0.079-0.395-0.258-0.778-0.647-1.009
	c0.38-0.206,0.731-0.804,0.774-1.189c0.093-0.833-0.279-1.407-0.942-1.813c0.169-0.356,0.385-0.675,0.404-1.078
	c0.014-0.299-0.066-0.566-0.194-0.83c-0.212-0.439-0.549-0.746-0.985-0.954c0.317-0.387,0.409-1.085,0.242-1.502
	c-0.196-0.489-0.438-0.924-1.007-1.085c0.448-0.498,0.325-1.068,0.335-1.614c-0.265-0.515-0.571-0.99-1.175-1.159
	c0.287-0.349,0.196-0.757,0.333-1.113c-1.017-0.145-1.96-0.364-2.805-0.923c0.367-0.343,0.549-0.81,1.004-1.013
	c0.05-0.022,0.08-0.153,0.072-0.228c-0.014-0.13-0.061-0.258-0.102-0.384c-0.233-0.716-0.737-1.226-1.612-1.215
	c-0.269,0.003-0.537,0.059-0.772,0.086c-0.207-0.304-0.347-0.67-0.613-0.868c-0.641-0.477-1.414-0.62-2.166-0.1
	c-0.068,0.047-0.128,0.103-0.21,0.17c-0.426-0.548-0.991-0.634-1.6-0.574c-0.665,0.066-1.055,0.48-1.314,1.077
	c-0.113-0.013-0.238-0.007-0.35-0.042c-0.609-0.188-0.615-0.219-1.162-0.067c-0.715,0.198-1.113,0.719-1.212,1.451
	c-0.021,0.151-0.003,0.308-0.003,0.556c-0.179-0.17-0.295-0.179-0.442-0.097c-0.127,0.07-0.301-0.049-0.449,0.084
	c-0.103,0.092-0.261,0.123-0.415,0.19c0.222,0.176,0.413,0.354,0.628,0.493c0.232,0.15,0.452,0.299,0.576,0.515
	c-0.215,0.197-0.39,0.387-0.594,0.539c-0.463,0.346-1.319,0.793-1.954,0.954c-0.297,0.075-0.432,0.243-0.56,0.472
	c-0.304,0.545-0.284,1.09-0.012,1.638c-0.476,0.247-1.004,0.397-1.232,1.001c-0.221,0.587-0.201,1.12,0.084,1.661
	c-1.223,0.323-1.682,1.804-0.894,2.784c-0.197,0.168-0.41,0.319-0.586,0.506c-0.341,0.363-0.537,0.825-0.439,1.3
	c0.077,0.374,0.15,0.817,0.571,1.04c0.046,0.024,0.065,0.167,0.042,0.238c-0.024,0.076-0.111,0.132-0.173,0.195
	c-0.468,0.469-0.59,1.108-0.317,1.782c0.164,0.406,0.433,0.716,0.828,0.914c-0.462,0.446-0.521,1.015-0.418,1.551
	c0.131,0.678,0.651,1.089,1.287,1.355c-0.328,0.619-0.338,1.221,0.063,1.78c0.39,0.543,0.951,0.812,1.645,0.852
	c-0.083,0.45,0.066,0.818,0.301,1.167c0.249,0.368,0.601,0.574,1.002,0.748c0.406,0.176,0.763,0.055,1.134-0.098
	c0.117,0.212,0.238,0.394,0.322,0.592c0.176,0.417,0.575,0.559,0.913,0.78c0.613,0.011,1.232,0.054,1.704-0.401
	c0.181,0.303,0.416,0.539,0.691,0.716c0.359,0.231,0.776,0.254,1.191,0.217c0.519-0.045,0.815-0.459,1.182-0.804
	c0.291,0.371,0.648,0.542,1.067,0.593c0.405,0.05,0.808-0.028,1.124-0.247c0.328-0.228,0.629-0.528,0.739-0.96
	c0.446,0.145,0.863,0.364,1.281,0.228c0.39-0.127,0.829-0.249,1.07-0.631C26.417,30.011,26.582,29.627,26.593,29.186z M14.72,7.959
	c-0.019-0.081-0.018-0.102-0.028-0.113c-0.534-0.566-1.235-0.841-1.938-1.115c-0.406-0.158-0.832-0.143-1.235-0.087
	c-0.348,0.049-0.703,0.204-1.003,0.394c-0.349,0.22-0.643,0.528-0.944,0.784c0,0.14,0,0.247,0,0.359
	C9.707,8.317,9.838,8.464,9.987,8.59c0.244,0.204,0.492,0.406,0.807,0.497c0.644,0.188,1.325,0.159,1.973-0.047
	C13.484,8.812,14.115,8.412,14.72,7.959z M25.716,7.741c0.324,0.401,0.834,0.394,1.245,0.588c0.191,0.09,0.428,0.089,0.646,0.114
	c0.223,0.026,0.454,0.012,0.672,0.057c0.221,0.046,0.409-0.111,0.628-0.06c0.097,0.023,0.214,0.013,0.308-0.022
	c0.622-0.227,1.212-0.496,1.561-1.118c0.094-0.168,0.096-0.271-0.03-0.408c-0.418-0.453-0.969-0.7-1.541-0.782
	c-0.927-0.132-1.757,0.178-2.512,0.75C26.34,7.129,26.06,7.46,25.716,7.741z M26.039,34.702c-0.192-1.156-0.384-2.317-0.575-3.468
	c-0.474-0.057-0.953,0.084-1.403-0.115c-0.139,0.174-0.292,0.338-0.409,0.525c-0.058,0.093-0.106,0.264-0.059,0.335
	c0.107,0.163,0.062,0.334,0.103,0.495c0.046,0.181,0.06,0.374,0.116,0.538c0.082,0.239,0.022,0.496,0.109,0.7
	c0.082,0.191,0.011,0.407,0.103,0.54c0.131,0.19,0.071,0.369,0.092,0.552c0.026,0.232,0.158,0.313,0.402,0.243
	c0.29-0.083,0.577-0.187,0.882-0.184C25.625,34.865,25.84,34.849,26.039,34.702z M14.972,30.903c-0.127,0.19-0.18,0.395-0.164,0.626
	c0.014,0.195,0.071,0.43-0.013,0.578c-0.119,0.209-0.059,0.406-0.091,0.606c-0.032,0.199-0.081,0.397-0.103,0.597
	c-0.025,0.225,0.038,0.487-0.057,0.67c-0.122,0.233,0.072,0.498-0.127,0.701c-0.008,0.008,0.085,0.116,0.131,0.177
	c0.115-0.215,0.219,0.027,0.341,0.015c0.413-0.04,0.814,0.161,1.237,0.1c0.044-0.006,0.098,0.059,0.204,0.128
	c0.128-1.066,0.247-2.088,0.423-3.104C15.944,31.916,15.342,31.595,14.972,30.903z"/>
<path style="fill:#FDFDFD;" d="M26.593,29.186c-0.011,0.44-0.176,0.825-0.397,1.176c-0.24,0.382-0.68,0.504-1.07,0.631
	c-0.418,0.137-0.834-0.083-1.281-0.228c-0.11,0.432-0.411,0.732-0.739,0.96c-0.316,0.219-0.719,0.297-1.124,0.247
	c-0.419-0.052-0.776-0.222-1.067-0.593c-0.367,0.345-0.663,0.759-1.182,0.804c-0.414,0.036-0.832,0.013-1.191-0.217
	c-0.275-0.177-0.51-0.413-0.691-0.716c-0.472,0.455-1.092,0.412-1.704,0.401c-0.337-0.22-0.737-0.363-0.913-0.78
	c-0.084-0.198-0.205-0.38-0.322-0.592c-0.372,0.152-0.728,0.274-1.134,0.098c-0.401-0.174-0.753-0.379-1.002-0.748
	c-0.235-0.348-0.385-0.717-0.301-1.167c-0.694-0.041-1.255-0.309-1.645-0.852c-0.4-0.558-0.39-1.16-0.063-1.78
	c-0.636-0.265-1.156-0.677-1.287-1.355c-0.103-0.537-0.044-1.105,0.418-1.551c-0.395-0.198-0.664-0.507-0.828-0.914
	c-0.272-0.674-0.15-1.313,0.317-1.782c0.062-0.062,0.149-0.119,0.173-0.195c0.023-0.071,0.004-0.213-0.042-0.238
	c-0.421-0.223-0.493-0.666-0.571-1.04c-0.098-0.475,0.098-0.938,0.439-1.3c0.176-0.187,0.389-0.338,0.586-0.506
	c-0.788-0.98-0.329-2.46,0.894-2.784c-0.285-0.541-0.306-1.074-0.084-1.661c0.228-0.605,0.756-0.754,1.232-1.001
	c-0.271-0.549-0.291-1.094,0.012-1.638c0.128-0.229,0.263-0.397,0.56-0.472c0.635-0.161,1.49-0.609,1.954-0.954
	c0.204-0.152,0.379-0.342,0.594-0.539c-0.124-0.215-0.344-0.365-0.576-0.515c-0.216-0.139-0.407-0.317-0.628-0.493
	c0.154-0.067,0.312-0.097,0.415-0.19c0.148-0.133,0.321-0.014,0.449-0.084c0.147-0.081,0.263-0.072,0.442,0.097
	c0-0.248-0.018-0.405,0.003-0.556c0.1-0.732,0.497-1.254,1.212-1.451c0.546-0.151,0.553-0.121,1.162,0.067
	c0.112,0.035,0.237,0.029,0.35,0.042c0.259-0.597,0.649-1.011,1.314-1.077c0.609-0.061,1.174,0.026,1.6,0.574
	c0.081-0.066,0.142-0.123,0.21-0.17c0.752-0.521,1.525-0.378,2.166,0.1c0.266,0.198,0.406,0.565,0.613,0.868
	c0.234-0.027,0.503-0.083,0.772-0.086c0.874-0.011,1.378,0.499,1.612,1.215c0.041,0.126,0.088,0.254,0.102,0.384
	c0.008,0.075-0.022,0.206-0.072,0.228c-0.455,0.203-0.637,0.67-1.004,1.013c0.845,0.559,1.787,0.778,2.805,0.923
	c-0.137,0.356-0.046,0.764-0.333,1.113c0.604,0.169,0.91,0.644,1.175,1.159c-0.01,0.545,0.113,1.116-0.335,1.614
	c0.569,0.161,0.811,0.597,1.007,1.085c0.167,0.417,0.075,1.115-0.242,1.502c0.436,0.208,0.772,0.515,0.985,0.954
	c0.128,0.265,0.208,0.532,0.194,0.83c-0.019,0.403-0.235,0.722-0.404,1.078c0.663,0.406,1.034,0.98,0.942,1.813
	c-0.043,0.384-0.394,0.982-0.774,1.189c0.389,0.231,0.568,0.614,0.647,1.009c0.076,0.381,0.016,0.774-0.191,1.143
	c-0.212,0.376-0.561,0.59-0.893,0.852c0.361,0.559,0.515,1.152,0.186,1.731c-0.307,0.54-0.684,1.061-1.476,0.976
	c0.205,0.355,0.138,0.689,0.138,1.013c0,0.092-0.058,0.188-0.103,0.276c-0.174,0.343-0.369,0.659-0.711,0.879
	c-0.281,0.181-0.597,0.205-0.899,0.281C26.884,29.316,26.745,29.229,26.593,29.186z M16.472,7.591
	c-0.209,0.171-0.439,0.323-0.621,0.52c-0.193,0.208-0.42,0.374-0.614,0.583c-0.502,0.541-0.849,1.164-1.185,1.811
	c-0.344,0.664-0.505,1.377-0.614,2.093c-0.088,0.574-0.052,1.175-0.006,1.76c0.031,0.399,0.118,0.808,0.226,1.188
	c0.123,0.434,0.28,0.876,0.497,1.288c0.307,0.585,0.642,1.148,1.102,1.626c0.253,0.263,0.53,0.497,0.817,0.727
	c0.677,0.541,1.477,0.818,2.265,1.118c0.177,0.067,0.396,0.069,0.595,0.104c0.215,0.038,0.434,0.083,0.649,0.109
	c0.369,0.044,0.747,0.004,1.121,0.014c0.365,0.01,0.707-0.185,1.078-0.11c0.014,0.003,0.032-0.008,0.048-0.013
	c0.332-0.102,0.668-0.191,0.994-0.31c0.937-0.34,1.809-0.8,2.527-1.506c0.221-0.217,0.406-0.471,0.608-0.708
	c0.697-0.818,1.03-1.8,1.132-2.838c0.059-0.597,0.058-1.211-0.064-1.828c-0.101-0.511-0.2-1.021-0.351-1.517
	c-0.159-0.519-0.314-1.054-0.578-1.521c-0.403-0.713-0.83-1.428-1.511-1.933c-0.429,0.42-0.454,0.376-0.719,0.529
	c-0.335,0.193-0.653,0.106-0.925-0.028c-0.271-0.134-0.476-0.403-0.716-0.618c-0.043,0.061-0.114,0.123-0.139,0.201
	c-0.088,0.277-0.275,0.487-0.494,0.647c-0.446,0.325-1.013,0.449-1.476,0.213c-0.555-0.283-0.868-0.737-0.924-1.364
	c-0.005-0.052-0.046-0.101-0.09-0.193c-0.066,0.083-0.095,0.117-0.121,0.153c-0.185,0.252-0.271,0.593-0.625,0.694
	c-0.191,0.055-0.377,0.157-0.568,0.165c-0.194,0.009-0.455-0.009-0.576-0.127c-0.225-0.221-0.592-0.356-0.591-0.765
	C16.623,7.705,16.531,7.653,16.472,7.591z M14.781,26.953c0.113-0.191,0.29-0.378,0.34-0.594c0.115-0.502-0.043-1.008-0.122-1.499
	c-0.061-0.38-0.143-0.767-0.173-1.147c-0.052-0.655-0.015-1.318-0.014-1.977c0-0.105-0.007-0.214,0.018-0.314
	c0.109-0.44,0.102-0.629,0.033-0.902c-0.083-0.326-0.242-0.59-0.494-0.814c-0.362-0.322-0.996-0.336-1.349-0.007
	c-0.512,0.476-0.737,1.085-0.771,1.764c-0.025,0.516-0.018,1.034-0.001,1.55c0.014,0.396,0.067,0.79,0.103,1.186
	c0.213,0.197,0.018,0.482,0.142,0.689c0.141,0.235,0.079,0.486,0.06,0.719c-0.026,0.322,0.106,0.609,0.13,0.918
	c0.01,0.133,0.13,0.269,0.225,0.383c0.163,0.194,0.164,0.152,0.441,0.068c0.273-0.083,0.356-0.38,0.652-0.472
	C14.172,26.757,14.446,26.876,14.781,26.953z M24.746,27.306c0.175-0.129,0.336-0.251,0.499-0.368
	c0.24-0.172,0.264-0.459,0.381-0.697c0.338-0.685,0.766-1.32,1.125-1.993c0.24-0.45,0.468-0.912,0.635-1.392
	c0.125-0.358,0.253-0.721,0.297-1.113c0.023-0.201,0.108-0.395-0.002-0.578c-0.11-0.185-0.008-0.383-0.131-0.591
	c-0.462-0.781-1.078-0.871-1.807-0.44c-0.056,0.033-0.091,0.102-0.133,0.157c-0.278,0.363-0.386,0.802-0.532,1.222
	c-0.168,0.484-0.269,0.995-0.48,1.458c-0.359,0.784-0.786,1.536-1.266,2.257c-0.216,0.325-0.429,0.689-0.187,1.12
	c0.086,0.153,0.167,0.223,0.367,0.183c0.226-0.044,0.453-0.084,0.673-0.125C24.345,26.874,24.236,26.827,24.746,27.306z"/>
<path style="fill:#66431E;" d="M14.72,7.959c-0.605,0.453-1.236,0.852-1.953,1.08c-0.648,0.206-1.329,0.236-1.973,0.047
	c-0.314-0.092-0.563-0.293-0.807-0.497C9.838,8.464,9.707,8.317,9.571,8.182c0-0.112,0-0.218,0-0.359
	c0.301-0.256,0.595-0.564,0.944-0.784c0.301-0.189,0.655-0.345,1.003-0.394c0.403-0.057,0.829-0.071,1.235,0.087
	c0.704,0.274,1.404,0.548,1.938,1.115C14.702,7.857,14.7,7.878,14.72,7.959z"/>
<path style="fill:#66431E;" d="M25.716,7.741c0.344-0.281,0.624-0.612,0.977-0.88c0.755-0.572,1.586-0.883,2.512-0.75
	c0.572,0.082,1.123,0.329,1.541,0.782c0.126,0.137,0.125,0.24,0.03,0.408c-0.349,0.622-0.939,0.891-1.561,1.118
	c-0.094,0.034-0.212,0.044-0.308,0.022c-0.219-0.051-0.407,0.106-0.628,0.06c-0.219-0.045-0.449-0.031-0.672-0.057
	c-0.218-0.026-0.455-0.024-0.646-0.114C26.55,8.135,26.04,8.142,25.716,7.741z"/>
<path style="fill:#B27E46;" d="M26.039,34.702c-0.199,0.147-0.414,0.162-0.641,0.161c-0.304-0.002-0.592,0.101-0.882,0.184
	c-0.244,0.07-0.376-0.011-0.402-0.243c-0.02-0.183,0.039-0.363-0.092-0.552c-0.092-0.133-0.021-0.349-0.103-0.54
	c-0.087-0.204-0.027-0.461-0.109-0.7c-0.056-0.164-0.07-0.358-0.116-0.538c-0.041-0.161,0.004-0.331-0.103-0.495
	c-0.046-0.071,0.001-0.242,0.059-0.335c0.117-0.187,0.271-0.351,0.409-0.525c0.451,0.199,0.929,0.058,1.403,0.115
	C25.655,32.385,25.847,33.546,26.039,34.702z"/>
<path style="fill:#B27E46;" d="M14.972,30.903c0.37,0.691,0.972,1.013,1.779,1.092c-0.176,1.016-0.295,2.037-0.423,3.104
	c-0.106-0.069-0.16-0.134-0.204-0.128c-0.423,0.061-0.824-0.14-1.237-0.1c-0.122,0.012-0.226-0.23-0.341-0.015
	c-0.046-0.061-0.139-0.168-0.131-0.177c0.199-0.202,0.005-0.467,0.127-0.701c0.096-0.183,0.032-0.445,0.057-0.67
	c0.022-0.2,0.071-0.398,0.103-0.597c0.032-0.199-0.028-0.397,0.091-0.606c0.084-0.148,0.027-0.383,0.013-0.578
	C14.792,31.299,14.846,31.093,14.972,30.903z"/>
<path d="M16.472,7.591c0.059,0.062,0.15,0.113,0.15,0.164c-0.002,0.409,0.366,0.544,0.591,0.765
	c0.121,0.119,0.381,0.136,0.576,0.127c0.191-0.008,0.378-0.111,0.568-0.165c0.354-0.102,0.44-0.442,0.625-0.694
	c0.026-0.036,0.055-0.07,0.121-0.153c0.044,0.092,0.085,0.141,0.09,0.193c0.056,0.627,0.369,1.081,0.924,1.364
	c0.463,0.236,1.03,0.111,1.476-0.213c0.219-0.16,0.406-0.37,0.494-0.647c0.025-0.077,0.095-0.14,0.139-0.201
	c0.24,0.215,0.445,0.484,0.716,0.618c0.271,0.134,0.59,0.221,0.925,0.028c0.264-0.152,0.29-0.109,0.719-0.529
	c0.681,0.505,1.108,1.22,1.511,1.933c0.264,0.467,0.419,1.002,0.578,1.521c0.151,0.495,0.251,1.006,0.351,1.517
	c0.122,0.617,0.123,1.231,0.064,1.828c-0.102,1.038-0.435,2.02-1.132,2.838c-0.202,0.237-0.387,0.491-0.608,0.708
	c-0.718,0.706-1.589,1.165-2.527,1.506c-0.326,0.118-0.662,0.207-0.994,0.31c-0.016,0.005-0.033,0.016-0.048,0.013
	c-0.371-0.074-0.713,0.12-1.078,0.11c-0.374-0.01-0.752,0.03-1.121-0.014c-0.215-0.026-0.434-0.071-0.649-0.109
	c-0.199-0.035-0.418-0.037-0.595-0.104c-0.788-0.3-1.588-0.577-2.265-1.118c-0.287-0.229-0.564-0.463-0.817-0.727
	c-0.46-0.479-0.794-1.041-1.102-1.626c-0.217-0.412-0.374-0.853-0.497-1.288c-0.108-0.379-0.195-0.789-0.226-1.188
	c-0.046-0.584-0.082-1.185,0.006-1.76c0.109-0.716,0.27-1.429,0.614-2.093c0.335-0.648,0.683-1.271,1.185-1.811
	c0.194-0.209,0.421-0.375,0.614-0.583C16.034,7.915,16.264,7.763,16.472,7.591z M16.388,8c-0.153,0.109-0.285,0.187-0.399,0.286
	c-0.755,0.663-1.301,1.47-1.721,2.383c-0.402,0.873-0.554,1.79-0.629,2.73c-0.024,0.307,0.065,0.619,0.078,0.918
	c0.021,0.469,0.246,0.888,0.242,1.351c0.346,0.943,0.826,1.965,1.549,2.616c0.297,0.267,0.539,0.586,0.892,0.805
	c0.369,0.228,0.767,0.391,1.14,0.602c0.586,0.33,1.23,0.436,1.871,0.505c0.598,0.065,1.209,0.014,1.815,0.014
	c0.089,0,0.193,0.03,0.265-0.005c0.437-0.213,0.927-0.232,1.38-0.407c0.812-0.314,1.557-0.707,2.176-1.323
	c0.252-0.251,0.565-0.467,0.742-0.763c0.329-0.549,0.709-1.081,0.815-1.745c0.041-0.259,0.201-0.509,0.174-0.776
	c-0.029-0.287,0.099-0.539,0.115-0.811c0.003-0.053,0.022-0.123-0.003-0.158c-0.172-0.237-0.059-0.51-0.109-0.758
	c-0.066-0.329-0.1-0.662-0.18-0.991c-0.138-0.566-0.359-1.098-0.545-1.644c-0.291-0.854-0.855-1.499-1.391-2.217
	c-0.363,0.345-0.75,0.501-1.226,0.488c-0.34-0.01-0.523-0.029-1.176-0.439c-0.408,0.665-0.998,0.923-1.773,0.862
	c-0.784-0.061-1.169-0.585-1.524-1.283c-0.337,0.573-0.827,0.674-1.371,0.634C17.039,8.832,16.656,8.533,16.388,8z"/>
<path d="M14.781,26.953c-0.335-0.077-0.609-0.197-0.78-0.448c-0.295,0.092-0.379,0.388-0.652,0.472
	c-0.277,0.084-0.277,0.126-0.441-0.068c-0.095-0.113-0.215-0.249-0.225-0.383c-0.024-0.309-0.156-0.596-0.13-0.918
	c0.019-0.233,0.081-0.483-0.06-0.719c-0.124-0.207,0.071-0.492-0.142-0.689c-0.036-0.395-0.089-0.79-0.103-1.186
	c-0.018-0.516-0.025-1.034,0.001-1.55c0.033-0.679,0.259-1.288,0.771-1.764c0.353-0.328,0.986-0.315,1.349,0.007
	c0.251,0.223,0.411,0.487,0.494,0.814c0.069,0.273,0.076,0.462-0.033,0.902c-0.025,0.1-0.018,0.209-0.018,0.314
	c-0.001,0.659-0.038,1.322,0.014,1.977c0.03,0.38,0.112,0.767,0.173,1.147c0.079,0.49,0.237,0.997,0.122,1.499
	C15.071,26.576,14.894,26.763,14.781,26.953z M12.919,25.579c0.569-0.045,1.106-0.086,1.642-0.134
	c0.061-0.006,0.124-0.048,0.175-0.088c0.025-0.019,0.044-0.085,0.031-0.108c-0.126-0.215,0.017-0.472-0.076-0.663
	c-0.107-0.223-0.08-0.436-0.094-0.657c-0.006-0.087,0.01-0.181-0.019-0.26c-0.2-0.55-0.033-1.117-0.088-1.674
	c0.239-0.469,0.093-0.971,0.09-1.452c-0.002-0.336-0.209-0.655-0.574-0.753c-0.199-0.054-0.425-0.01-0.64-0.01
	c-0.137,0.138-0.285,0.268-0.411,0.418c-0.107,0.128-0.239,0.266-0.273,0.418c-0.087,0.394-0.231,0.779-0.224,1.192
	c0.004,0.249-0.016,0.5,0.006,0.748c0.021,0.235-0.046,0.466,0.083,0.714c0.099,0.19,0.065,0.461,0.107,0.698
	C12.745,24.485,12.79,25.011,12.919,25.579z"/>
<path d="M24.746,27.306c-0.51-0.48-0.401-0.432-0.559-0.901c-0.22,0.041-0.447,0.081-0.673,0.125
	c-0.201,0.039-0.282-0.031-0.367-0.183c-0.242-0.431-0.029-0.795,0.187-1.12c0.48-0.722,0.907-1.473,1.266-2.257
	c0.212-0.462,0.312-0.974,0.48-1.458c0.146-0.42,0.254-0.859,0.532-1.222c0.042-0.055,0.077-0.124,0.133-0.157
	c0.729-0.431,1.345-0.341,1.807,0.44c0.123,0.207,0.02,0.406,0.131,0.591c0.11,0.184,0.024,0.377,0.002,0.578
	c-0.045,0.392-0.173,0.755-0.297,1.113c-0.167,0.48-0.395,0.942-0.635,1.392c-0.359,0.673-0.787,1.308-1.125,1.993
	c-0.118,0.238-0.141,0.525-0.381,0.697C25.082,27.056,24.921,27.177,24.746,27.306z M25.447,26.003
	c0.115-0.237,0.197-0.456,0.319-0.65c0.459-0.73,0.93-1.451,1.237-2.264c0.232-0.616,0.464-1.227,0.431-1.906
	c-0.017-0.344-0.158-0.623-0.381-0.855c-0.107-0.112-0.284-0.167-0.438-0.222c-0.121-0.043-0.222,0.064-0.33,0.093
	c-0.474,0.129-0.627,0.508-0.784,0.904c-0.267,0.674-0.336,1.419-0.741,2.042c-0.008,0.013-0.01,0.036-0.004,0.051
	c0.081,0.223-0.2,0.269-0.216,0.446c-0.018,0.19-0.121,0.338-0.227,0.494c-0.202,0.297-0.369,0.617-0.56,0.945
	C24.336,25.398,24.874,25.69,25.447,26.003z"/>
<radialGradient id="SVGID_2_" cx="20.2698" cy="14.1137" r="6.3796" gradientUnits="userSpaceOnUse">
	<stop  offset="0" style="stop-color:#FFFFFF"/>
	<stop  offset="0.7" style="stop-color:#B27E46"/>
</radialGradient>
<path style="fill:url(#SVGID_2_);" d="M16.388,8c0.268,0.533,0.651,0.832,1.209,0.873c0.544,0.04,1.035-0.062,1.371-0.634
	c0.355,0.698,0.74,1.222,1.524,1.283c0.775,0.06,1.366-0.197,1.773-0.862c0.653,0.409,0.836,0.429,1.176,0.439
	c0.476,0.013,0.862-0.142,1.226-0.488c0.536,0.718,1.1,1.362,1.391,2.217c0.186,0.547,0.407,1.078,0.545,1.644
	c0.08,0.329,0.114,0.662,0.18,0.991c0.05,0.249-0.064,0.521,0.109,0.758c0.025,0.035,0.006,0.104,0.003,0.158
	c-0.016,0.273-0.144,0.524-0.115,0.811c0.027,0.267-0.133,0.517-0.174,0.776c-0.107,0.665-0.486,1.197-0.815,1.745
	c-0.178,0.296-0.49,0.512-0.742,0.763c-0.619,0.616-1.364,1.009-2.176,1.323c-0.453,0.175-0.943,0.194-1.38,0.407
	c-0.072,0.035-0.176,0.005-0.265,0.005c-0.605,0-1.216,0.051-1.815-0.014c-0.641-0.069-1.285-0.175-1.871-0.505
	c-0.373-0.21-0.771-0.373-1.14-0.602c-0.353-0.218-0.595-0.537-0.892-0.805c-0.723-0.651-1.203-1.673-1.549-2.616
	c0.004-0.463-0.221-0.881-0.242-1.351c-0.014-0.299-0.103-0.611-0.078-0.918c0.075-0.939,0.227-1.857,0.629-2.73
	c0.42-0.913,0.966-1.72,1.721-2.383C16.103,8.187,16.235,8.108,16.388,8z M24.634,15.421c0.134,0.087,0.076,0.328,0.298,0.32
	c0.01,0,0.058,0.141,0.033,0.187c-0.191,0.348-0.222,0.753-0.47,1.094c-0.25,0.345-0.556,0.597-0.876,0.855
	c-0.423,0.341-0.949,0.469-1.417,0.716c-0.198,0.105-0.463,0.084-0.698,0.118c-0.252,0.037-0.506,0.104-0.758,0.1
	c-0.467-0.008-0.933,0.057-1.404-0.084c-0.267-0.08-0.549-0.14-0.825-0.203c-0.518-0.117-0.961-0.39-1.373-0.682
	c-0.547-0.387-0.967-0.908-1.164-1.58c-0.05-0.169-0.116-0.278,0.044-0.438c0.157-0.158,0.094-0.371-0.094-0.539
	c-0.153-0.138-0.344-0.148-0.508-0.014c-0.078,0.063-0.141,0.144-0.222,0.229c0.131,0.177,0.243,0.324,0.349,0.475
	c0.047,0.067,0.102,0.141,0.115,0.218c0.092,0.533,0.386,0.963,0.723,1.357c0.414,0.485,0.941,0.816,1.536,1.061
	c0.706,0.291,1.437,0.446,2.188,0.525c0.625,0.066,1.232-0.089,1.834-0.22c0.416-0.09,0.834-0.204,1.217-0.416
	c0.328-0.182,0.608-0.431,0.917-0.632c0.516-0.336,0.785-0.814,1.003-1.354c0.123-0.305,0.098-0.66,0.371-0.921
	c0.154-0.147,0.043-0.438-0.165-0.577c-0.175-0.118-0.408-0.059-0.529,0.138C24.715,15.225,24.688,15.304,24.634,15.421z
	 M21.941,15.052c-0.074,0.028-0.156,0.039-0.161,0.065c-0.091,0.453-0.466,0.661-0.797,0.886c-0.363,0.247-1.252,0.248-1.73-0.177
	c-0.146-0.13-0.276-0.278-0.417-0.413c-0.097-0.092-0.201-0.176-0.401-0.35c0.036,0.233,0.014,0.377,0.075,0.437
	c0.292,0.288,0.558,0.589,0.955,0.778c0.579,0.274,1.11,0.281,1.648-0.03c0.233-0.135,0.448-0.309,0.653-0.486
	C21.976,15.578,22.024,15.339,21.941,15.052z M23.469,11.094c0.005-0.613,0.005-0.613-0.453-0.831
	c-0.666,0.367-0.568,0.483-0.391,0.879c0.039,0.086,0.169,0.162,0.269,0.184C23.112,11.373,23.27,11.224,23.469,11.094z
	 M18.076,11.337c0.295-0.422,0.324-0.617,0.138-0.825c-0.119-0.133-0.373-0.148-0.584-0.035c-0.174,0.093-0.307,0.349-0.248,0.526
	c0.031,0.091,0.11,0.168,0.178,0.242C17.718,11.419,17.917,11.288,18.076,11.337z"/>
<path style="fill:#B27E46;" d="M12.919,25.579c-0.129-0.569-0.174-1.094-0.265-1.611c-0.042-0.236-0.008-0.507-0.107-0.698
	c-0.13-0.249-0.062-0.479-0.083-0.714c-0.022-0.247-0.002-0.498-0.006-0.748c-0.007-0.413,0.137-0.798,0.224-1.192
	c0.034-0.153,0.165-0.291,0.273-0.418c0.126-0.149,0.274-0.28,0.411-0.418c0.215,0,0.441-0.044,0.64,0.01
	c0.364,0.098,0.571,0.417,0.574,0.753c0.003,0.482,0.149,0.983-0.09,1.452c0.055,0.556-0.112,1.124,0.088,1.674
	c0.028,0.078,0.013,0.173,0.019,0.26c0.014,0.22-0.014,0.434,0.094,0.657c0.092,0.191-0.05,0.448,0.076,0.663
	c0.014,0.024-0.006,0.089-0.031,0.108c-0.051,0.04-0.114,0.082-0.175,0.088C14.025,25.494,13.488,25.534,12.919,25.579z"/>
<path style="fill:#B27E46;" d="M25.447,26.003c-0.574-0.312-1.112-0.605-1.693-0.921c0.191-0.328,0.359-0.648,0.56-0.945
	c0.106-0.157,0.209-0.304,0.227-0.494c0.016-0.177,0.297-0.223,0.216-0.446c-0.005-0.015-0.004-0.038,0.004-0.051
	c0.405-0.623,0.474-1.369,0.741-2.042c0.157-0.396,0.31-0.775,0.784-0.904c0.108-0.03,0.21-0.136,0.33-0.093
	c0.154,0.055,0.33,0.11,0.438,0.222c0.223,0.232,0.364,0.511,0.381,0.855c0.033,0.679-0.199,1.29-0.431,1.906
	c-0.307,0.814-0.779,1.534-1.237,2.264C25.644,25.547,25.562,25.766,25.447,26.003z"/>
<path d="M24.634,15.421c0.054-0.117,0.081-0.196,0.124-0.266c0.12-0.197,0.353-0.255,0.529-0.138
	c0.208,0.139,0.319,0.43,0.165,0.577c-0.273,0.261-0.248,0.615-0.371,0.921c-0.218,0.539-0.487,1.017-1.003,1.354
	c-0.309,0.201-0.589,0.45-0.917,0.632c-0.383,0.212-0.8,0.326-1.217,0.416c-0.602,0.13-1.209,0.285-1.834,0.22
	c-0.751-0.079-1.482-0.234-2.188-0.525c-0.595-0.245-1.122-0.576-1.536-1.061c-0.337-0.394-0.63-0.824-0.723-1.357
	c-0.013-0.077-0.068-0.151-0.115-0.218c-0.105-0.152-0.218-0.298-0.349-0.475c0.081-0.085,0.144-0.166,0.222-0.229
	c0.165-0.133,0.355-0.123,0.508,0.014c0.188,0.169,0.252,0.382,0.094,0.539c-0.16,0.16-0.094,0.269-0.044,0.438
	c0.197,0.673,0.617,1.193,1.164,1.58c0.412,0.292,0.855,0.565,1.373,0.682c0.276,0.062,0.558,0.123,0.825,0.203
	c0.471,0.141,0.937,0.076,1.404,0.084c0.252,0.004,0.505-0.063,0.758-0.1c0.235-0.034,0.5-0.013,0.698-0.118
	c0.468-0.248,0.994-0.375,1.417-0.716c0.321-0.258,0.626-0.51,0.876-0.855c0.248-0.342,0.279-0.746,0.47-1.094
	c0.025-0.045-0.023-0.187-0.033-0.187C24.71,15.749,24.768,15.509,24.634,15.421z"/>
<path d="M21.941,15.052c0.083,0.287,0.035,0.526-0.175,0.709c-0.205,0.178-0.419,0.351-0.653,0.486
	c-0.538,0.311-1.069,0.305-1.648,0.03c-0.397-0.188-0.664-0.489-0.955-0.778c-0.061-0.06-0.039-0.205-0.075-0.437
	c0.2,0.174,0.305,0.258,0.401,0.35c0.142,0.135,0.271,0.283,0.417,0.413c0.477,0.424,1.367,0.424,1.73,0.177
	c0.33-0.225,0.705-0.432,0.797-0.886C21.785,15.091,21.867,15.081,21.941,15.052z"/>
<path d="M23.469,11.094c-0.199,0.13-0.358,0.278-0.574,0.231c-0.101-0.022-0.231-0.098-0.269-0.184
	c-0.177-0.396-0.275-0.512,0.391-0.879C23.475,10.481,23.475,10.481,23.469,11.094z"/>
<path d="M18.076,11.337c-0.16-0.049-0.358,0.082-0.516-0.091c-0.068-0.074-0.147-0.152-0.178-0.242
	c-0.06-0.177,0.074-0.433,0.248-0.526c0.211-0.113,0.465-0.098,0.584,0.035C18.401,10.72,18.371,10.916,18.076,11.337z"/>
</svg>
