<?xml version="1.0" encoding="iso-8859-1"?>
<!-- Generator: Adobe Illustrator 17.0.2, SVG Export Plug-In . SVG Version: 6.00 Build 0)  -->
<!DOCTYPE svg PUBLIC "-//W3C//DTD SVG 1.1//EN" "http://www.w3.org/Graphics/SVG/1.1/DTD/svg11.dtd">
<svg version="1.1" id="Layer_1" xmlns="http://www.w3.org/2000/svg" xmlns:xlink="http://www.w3.org/1999/xlink" x="0px" y="0px"
	 width="40px" height="40px" viewBox="0 0 40 40" style="enable-background:new 0 0 40 40;" xml:space="preserve">
<radialGradient id="SVGID_1_" cx="20" cy="20" r="20" gradientUnits="userSpaceOnUse">
	<stop  offset="0" style="stop-color:#FFFFFF"/>
	<stop  offset="0.1989" style="stop-color:#FDFFFC"/>
	<stop  offset="0.3414" style="stop-color:#F7FEF3"/>
	<stop  offset="0.4665" style="stop-color:#EDFCE3"/>
	<stop  offset="0.5814" style="stop-color:#DEFACD"/>
	<stop  offset="0.6895" style="stop-color:#CBF6B0"/>
	<stop  offset="0.7924" style="stop-color:#B4F38D"/>
	<stop  offset="0.8913" style="stop-color:#98EE63"/>
	<stop  offset="0.9846" style="stop-color:#79E934"/>
	<stop  offset="1" style="stop-color:#73E82B"/>
</radialGradient>
<circle style="fill:url(#SVGID_1_);" cx="20" cy="20" r="20"/>
<path d="M22.273,7.751c0.941-1.142,2.119-1.76,3.538-1.878c0.296,0.413,0.415,0.88,0.617,1.304c0.26,1.308,0.186,2.573-0.536,3.726
	c0.206,0.418,0.431,0.814,0.567,1.259c0.116,0.379,0.3,0.737,0.435,1.111c0.181,0.5,0.341,1.007,0.518,1.508
	c0.028,0.08,0.099,0.146,0.16,0.234c0.115-0.049,0.211-0.086,0.304-0.13c0.682-0.318,1.363-0.638,2.044-0.957
	c0.322-0.151,0.506-0.369,0.57-0.751c0.046-0.279,0.107-0.578,0.26-0.846c0.152-0.268,0.339-0.419,0.648-0.413
	c0.175,0.003,0.351,0.001,0.586,0.001c0.138,0.187,0.298,0.403,0.489,0.661c0.104,0,0.275,0,0.447,0
	c0.486,0.192,0.596,0.625,0.694,1.079c-0.059,0.169-0.128,0.365-0.203,0.581c0.281,0.274,0.605,0.527,0.503,0.949
	c-0.136,0.299-0.32,0.517-0.706,0.659c-0.351,0.071-0.761-0.126-1.185-0.226c-0.187-0.044-0.367-0.122-0.556-0.158
	c-0.299-0.056-0.599,0.039-0.821,0.199c-0.489,0.352-1.069,0.521-1.567,0.847c-0.196,0.128-0.416,0.221-0.654,0.345
	c0.432,0.568,0.666,1.21,0.846,1.866c0.095,0.344,0.183,0.693,0.253,1.047c0.179,0.911,0.041,1.826,0.081,2.738
	c0.007,0.161-0.066,0.323-0.089,0.487c-0.08,0.562-0.279,1.088-0.458,1.649c0.643,0.045,1.231-0.135,1.774-0.494
	c0.149-0.098,0.336-0.154,0.456-0.277c0.413-0.424,0.777-0.878,0.916-1.486c0.077-0.336,0.097-0.637,0.007-0.98
	c-0.079-0.298-0.053-0.639-0.005-0.951c0.039-0.256,0.223-0.462,0.465-0.591c0.196-0.104,0.376-0.112,0.604-0.034
	c0.597,0.205,0.942,0.607,1.127,1.193c0.067,0.212,0.177,0.407,0.19,0.64c0.012,0.227,0.073,0.451,0.088,0.679
	c0.016,0.238,0.025,0.481-0.003,0.717c-0.025,0.22-0.112,0.433-0.153,0.652c-0.086,0.459-0.352,0.844-0.511,1.273
	c-0.618,0.744-1.283,1.417-2.258,1.694c-0.261,0.074-0.512,0.168-0.788,0.179c-0.131,0.005-0.259,0.073-0.392,0.089
	c-0.483,0.055-0.939-0.103-1.401-0.199c-0.171-0.036-0.336-0.111-0.497-0.184c-0.162-0.074-0.315-0.168-0.489-0.262
	c-0.211,0.274-0.427,0.593-0.682,0.876c-0.259,0.288-0.557,0.542-0.861,0.833c0.554,0.976,1.183,1.974,1.154,3.206
	c0.153,0.203,0.355,0.162,0.551,0.1c0.456-0.144,0.917-0.148,1.378-0.054c0.11,0.022,0.208,0.114,0.306,0.182
	c0.052,0.036,0.089,0.092,0.137,0.133c0.289,0.246,0.474,0.536,0.375,0.982c-0.142,0.386-0.475,0.584-0.911,0.622
	c-0.096,0.44-0.141,0.501-0.55,0.747c-0.21,0-0.432,0-0.642,0c-0.107,0.14-0.207,0.27-0.299,0.39c-0.056,0-0.091-0.009-0.119,0.001
	c-0.385,0.146-0.726,0.024-1.039-0.189c-0.442-0.3-0.608-0.592-0.731-1.124c-0.061-0.261-0.178-0.512-0.183-0.783
	c-0.006-0.278-0.077-0.55-0.119-0.819c-0.07-0.449-0.161-0.912-0.368-1.325c-0.178-0.356-0.403-0.687-0.756-0.95
	c-0.219,0.086-0.456,0.169-0.685,0.272c-0.407,0.183-0.834,0.312-1.265,0.41c-0.413,0.093-0.824,0.192-1.257,0.22
	c-0.466,0.03-0.934,0.147-1.406,0.166c-0.494,0.02-0.989,0.016-1.483,0c-0.244-0.008-0.491,0.058-0.737-0.065
	c-0.216-0.109-0.475,0.021-0.723-0.105c-0.172-0.088-0.416-0.069-0.624-0.093c-0.351-0.042-0.676-0.161-0.998-0.264
	c-0.517-0.165-1.036-0.346-1.515-0.614c-0.024-0.014-0.063-0.002-0.115-0.002c-0.669,0.31-0.918,0.974-1.224,1.558
	c-0.109,0.552-0.238,1.081-0.311,1.618c-0.074,0.538-0.226,1.051-0.39,1.563c-0.147,0.147-0.282,0.308-0.443,0.435
	c-0.139,0.109-0.308,0.18-0.489,0.282c-0.26-0.021-0.56,0.061-0.837-0.098c-0.051-0.088-0.104-0.179-0.159-0.274
	c-0.197,0-0.386,0-0.612,0C9.358,33.974,9.145,33.798,9,33.679c-0.073-0.192-0.114-0.302-0.154-0.408c-0.161,0-0.286,0-0.442,0
	c-0.138-0.164-0.286-0.339-0.415-0.492c-0.02-0.298,0.013-0.534,0.142-0.785c0.205-0.398,0.563-0.558,0.934-0.626
	c0.27-0.05,0.573-0.071,0.877,0.05c0.231,0.091,0.526,0.018,0.821,0.018c-0.063-0.699,0.12-1.345,0.39-1.949
	c0.268-0.598,0.587-1.183,1.078-1.688c-0.11-0.111-0.211-0.207-0.307-0.308c-0.557-0.59-1.042-1.225-1.477-1.92
	c-0.458-0.731-0.685-1.539-1.028-2.306c-0.012-0.443-0.163-0.864-0.213-1.305c-0.061-0.532-0.094-1.06-0.071-1.589
	c0.021-0.481,0.131-0.958,0.089-1.444c0.216-0.817,0.365-1.651,0.721-2.429c0.116-0.253,0.212-0.518,0.349-0.784
	c-0.37-0.318-0.664-0.703-1.069-0.987c-0.309-0.217-0.558-0.523-0.818-0.803c-0.366-0.395-0.832-0.542-1.345-0.565
	c-0.381-0.017-0.764-0.003-1.161-0.003c-0.162-0.129-0.33-0.263-0.477-0.381c-0.063-0.288-0.221-0.545-0.028-0.804
	c0.168-0.225,0.382-0.394,0.656-0.468c0.006-0.83,0.024-0.873,0.247-1.121c0.264-0.294,0.615-0.392,1.15-0.187
	c0.269-0.304,0.562-0.586,1.093-0.456c0.223,0.103,0.454,0.292,0.585,0.655c0,0.301,0.009,0.668-0.003,1.034
	c-0.008,0.233,0.07,0.42,0.237,0.573c0.241,0.22,0.429,0.498,0.736,0.648c0.081,0.04,0.134,0.135,0.206,0.198
	c0.336,0.3,0.674,0.597,1.045,0.926c0.213-0.282,0.491-0.469,0.682-0.769c0.175-0.276,0.468-0.475,0.696-0.721
	c0.278-0.3,0.482-0.647,0.615-1.036c0.067-0.195,0.148-0.386,0.234-0.573c0.07-0.152,0.068-0.269-0.025-0.428
	c-0.276-0.475-0.418-1.007-0.579-1.529c-0.027-0.087-0.014-0.187-0.015-0.281c-0.002-0.287,0.006-0.574-0.002-0.861
	c-0.019-0.651,0.169-1.248,0.462-1.819c0.074-0.145,0.139-0.294,0.219-0.464c0.48,0.081,0.943,0.085,1.379,0.296
	c0.428,0.208,0.874,0.361,1.256,0.673c0.375,0.306,0.735,0.612,1.022,1.056c0.218-0.036,0.466,0.093,0.691-0.092
	c0.019-0.016,0.062-0.001,0.094-0.002c0.434-0.015,0.866-0.027,1.301-0.075c0.568-0.063,1.147,0.134,1.729,0.075
	C21.483,7.589,21.907,7.548,22.273,7.751z M11.06,19.307c0.186,0.126,0.358,0.25,0.538,0.364c0.214,0.135,0.428,0.272,0.652,0.39
	c0.431,0.228,0.863,0.457,1.306,0.66c0.375,0.172,0.768,0.302,1.149,0.46c0.485,0.2,0.993,0.311,1.506,0.407
	c0.209,0.039,0.408,0.133,0.629,0.099c0.424,0.245,0.917,0.152,1.367,0.279c0.188,0.053,0.387,0.093,0.581,0.095
	c0.973,0.009,1.945,0.004,2.918,0.004c0.096,0,0.232,0.041,0.28-0.007c0.188-0.188,0.442-0.033,0.656-0.168
	c0.176-0.111,0.443-0.075,0.667-0.114c0.101-0.018,0.195-0.077,0.296-0.089c0.126-0.016,0.265,0.029,0.38-0.009
	c0.897-0.296,1.822-0.518,2.676-0.928c0.627-0.3,1.278-0.557,1.848-0.971c0.19-0.138,0.418-0.222,0.613-0.323
	c0.071-0.339-0.116-0.604-0.178-0.896c-0.081-0.38-0.327-0.694-0.422-1.07c-0.031-0.123-0.159-0.218-0.228-0.335
	c-0.218-0.371-0.441-0.741-0.641-1.122c-0.185-0.353-0.306-0.735-0.457-1.102c-0.142-0.345-0.248-0.695-0.366-1.045
	c-0.117-0.348-0.261-0.688-0.382-1.038c-0.173-0.501-0.351-1.007-0.599-1.472c-0.4-0.75-0.813-1.501-1.477-2.07
	c-0.193-0.165-0.338-0.398-0.549-0.53c-0.387-0.244-0.795-0.461-1.215-0.643c-0.283-0.123-0.609-0.144-0.901-0.251
	c-0.289-0.106-0.575-0.182-0.885-0.177c-0.197,0.003-0.399,0.042-0.588-0.085c-0.048-0.032-0.164,0.036-0.255,0.06
	c-0.049-0.018-0.117-0.063-0.186-0.065c-0.261-0.006-0.516,0.037-0.776,0.077c-0.426,0.066-0.868-0.014-1.299,0.105
	c-0.248,0.068-0.531,0.024-0.768,0.111c-0.581,0.214-1.176,0.407-1.685,0.786c-0.159,0.118-0.346,0.228-0.449,0.378
	c-0.42,0.611-0.768,1.262-1.003,1.974c-0.222,0.674-0.525,1.314-1.069,1.806c-0.094,0.085-0.242,0.175-0.251,0.274
	c-0.02,0.203-0.224,0.119-0.294,0.256c-0.174,0.342-0.438,0.626-0.7,0.907c-0.071,0.077-0.125,0.166-0.181,0.257
	c-0.302,0.495-0.612,0.981-0.86,1.511c-0.188,0.402-0.373,0.804-0.51,1.224c-0.119,0.364-0.344,0.716-0.227,1.092
	c0.218,0.189,0.373,0.395,0.637,0.48C10.627,18.94,10.77,19.263,11.06,19.307z M9.628,22.822c0.308,0.114,0.624,0.236,0.944,0.349
	c0.126,0.044,0.296,0.031,0.38,0.112c0.145,0.141,0.332,0.175,0.491,0.206c0.543,0.106,1.047,0.341,1.595,0.435
	c0.484,0.083,0.952,0.261,1.437,0.332c0.405,0.06,0.786,0.271,1.211,0.202c0.117,0.168,0.292,0.068,0.439,0.096
	c0.162,0.031,0.323,0.077,0.487,0.092c0.259,0.024,0.514,0.004,0.778,0.084c0.234,0.071,0.507,0.002,0.761,0.018
	c0.259,0.016,0.516,0.082,0.774,0.088c0.574,0.014,1.148,0.014,1.722,0.002c0.578-0.012,1.155,0.04,1.733-0.081
	c0.321-0.067,0.695,0.07,0.995-0.034c0.345-0.119,0.693-0.021,1.036-0.152c0.305-0.117,0.669-0.08,1.006-0.115
	c0.058-0.006,0.116-0.026,0.173-0.045c0.372-0.125,0.75-0.221,1.144-0.244c0.072-0.004,0.142-0.041,0.214-0.06
	c0.492-0.126,0.985-0.251,1.542-0.394c0.001-0.001,0.058-0.058,0.131-0.131c0.122,0,0.262,0,0.403,0
	c0.134-0.222,0.165-0.456,0.221-0.692c0.057-0.245,0.105-0.486,0.075-0.729c-0.032-0.258,0.112-0.484,0.096-0.726
	c-0.015-0.238-0.083-0.473-0.127-0.707c-0.022-0.002-0.042-0.01-0.053-0.003c-0.219,0.126-0.425,0.321-0.659,0.365
	c-0.279,0.052-0.43,0.366-0.738,0.307c-0.334,0.229-0.725,0.331-1.097,0.469c-0.374,0.139-0.746,0.287-1.149,0.351
	c-0.455,0.072-0.871,0.325-1.346,0.326c-0.176,0.145-0.408,0.033-0.576,0.109c-0.201,0.09-0.422,0.012-0.581,0.097
	c-0.219,0.116-0.427,0.056-0.638,0.081c-0.047,0.006-0.114-0.02-0.14,0.004c-0.193,0.175-0.423,0.059-0.633,0.092
	c-0.21,0.033-0.421,0.098-0.63,0.089c-0.513-0.02-1.023,0.039-1.543-0.071c-0.512-0.109-1.052-0.004-1.587-0.095
	c-0.478-0.081-0.967-0.129-1.448-0.212c-0.116-0.02-0.227-0.071-0.344-0.091c-0.122-0.021-0.251-0.004-0.37-0.034
	c-0.216-0.054-0.44-0.1-0.644-0.178c-0.213-0.081-0.436-0.113-0.641-0.186c-0.929-0.333-1.885-0.599-2.756-1.085
	c-0.53-0.295-1.072-0.568-1.611-0.846c-0.091-0.047-0.26-0.048-0.28-0.107c-0.066-0.197-0.288-0.177-0.378-0.337
	c-0.028,0.521-0.034,1.028-0.026,1.534C9.426,21.813,9.554,22.303,9.628,22.822z M27.302,26.768
	c0.107-0.059,0.227-0.099,0.311-0.178c0.097-0.091,0.155-0.223,0.242-0.327c0.309-0.367,0.625-1.022,0.783-1.469
	c-0.044-0.052-0.084-0.1-0.087-0.104c-0.346,0.087-0.659,0.178-0.978,0.242c-0.254,0.051-0.536,0.016-0.768,0.111
	c-0.413,0.17-0.854,0.198-1.275,0.253c-0.488,0.064-0.984,0.186-1.488,0.119c-0.063-0.008-0.149-0.028-0.187,0.004
	c-0.151,0.123-0.326,0.106-0.489,0.085c-0.196-0.025-0.356,0.106-0.535,0.097c-0.661-0.034-1.313,0.082-1.969,0.092
	c-0.48,0.008-0.959,0.039-1.446-0.07c-0.395-0.088-0.825-0.024-1.239-0.015c-0.194,0.004-0.388,0.04-0.599,0.063
	c-0.01-0.027-0.029-0.083-0.048-0.137c-0.526-0.04-1.051-0.081-1.576-0.12c-0.048-0.004-0.115,0.02-0.14-0.004
	c-0.131-0.127-0.291-0.076-0.442-0.095c-0.164-0.02-0.324-0.066-0.487-0.092c-0.198-0.031-0.404,0.052-0.598-0.059
	c-0.173-0.099-0.386,0.007-0.573-0.124c-0.124-0.087-0.317-0.076-0.479-0.105c-0.194-0.034-0.402-0.031-0.579-0.104
	c-0.305-0.126-0.641-0.114-0.942-0.268c-0.134-0.069-0.32-0.044-0.485-0.09c-0.175-0.049-0.334-0.117-0.502-0.178
	c-0.198-0.073-0.423-0.074-0.667-0.11c0.056,0.139,0.106,0.231,0.132,0.33c0.079,0.304,0.271,0.556,0.393,0.841
	c0.133,0.312,0.407,0.566,0.626,0.84c0.033,0.041,0.101,0.063,0.157,0.077c0.607,0.147,1.193,0.362,1.804,0.504
	c0.505,0.117,1.028,0.178,1.523,0.352c0.211,0.074,0.451,0.106,0.675,0.094c0.256-0.014,0.48,0.08,0.718,0.125
	c0.087,0.016,0.169,0.066,0.255,0.073c0.353,0.031,0.707-0.03,1.064,0.086c0.216,0.07,0.475,0,0.713,0.017
	c0.227,0.015,0.451,0.081,0.678,0.088c0.494,0.014,0.988,0.013,1.482,0.002c0.498-0.012,0.996,0.047,1.493-0.082
	c0.239-0.062,0.511-0.038,0.761-0.003c0.275,0.038,0.514-0.141,0.773-0.097c0.26,0.044,0.48-0.096,0.726-0.106
	c0.179-0.007,0.355-0.066,0.535-0.089c0.289-0.038,0.604-0.006,0.861-0.116c0.209-0.089,0.447,0.017,0.577-0.093
	c0.156-0.132,0.327-0.03,0.48-0.136c0.121-0.084,0.331-0.04,0.567-0.058c0.017-0.03,0.061-0.109,0.098-0.178
	C27.223,26.709,27.259,26.736,27.302,26.768z M12.566,27.696c0.161,0.116,0.321,0.235,0.485,0.348
	c0.297,0.205,0.578,0.444,0.9,0.598c0.32,0.153,0.607,0.369,0.946,0.484c0.293,0.099,0.577,0.247,0.877,0.298
	c0.327,0.056,0.619,0.273,0.969,0.206c0.493,0.235,1.038,0.188,1.557,0.269c0.451,0.07,0.922,0.025,1.383,0.012
	c0.465-0.013,0.927,0,1.397-0.071c0.465-0.07,0.939-0.116,1.395-0.227c0.216-0.052,0.441-0.053,0.654-0.146
	c0.417-0.183,0.888-0.235,1.27-0.51c0.229,0.03,0.447-0.096,0.568-0.22c0.165-0.169,0.392-0.151,0.555-0.312
	c0.204-0.201,0.481-0.328,0.801-0.535c-0.438,0.042-0.8,0.077-1.163,0.111c-0.166,0.191-0.419,0.008-0.572,0.112
	c-0.202,0.136-0.397,0.052-0.592,0.075c-0.141,0.017-0.315-0.048-0.424,0.014c-0.242,0.136-0.489,0.056-0.731,0.086
	c-0.242,0.03-0.483,0.087-0.725,0.091c-0.78,0.012-1.561,0.021-2.341,0c-0.783-0.021-1.57,0.086-2.351-0.084
	c-0.312-0.068-0.64,0.018-0.967-0.089c-0.237-0.077-0.51-0.023-0.772-0.097c-0.243-0.069-0.514-0.059-0.771-0.09
	c-0.409-0.049-0.807-0.13-1.211-0.194C13.336,27.765,12.969,27.695,12.566,27.696z M33.263,25.461
	c-0.391-0.159-0.678-0.432-1.008-0.636c-0.327-0.202-0.729-0.312-0.958-0.616c-0.298,0.162-0.605,0.328-0.908,0.492
	c0.376,0.206,0.742,0.434,1.131,0.611c0.399,0.181,0.672,0.557,1.074,0.681C32.828,25.808,33.04,25.639,33.263,25.461z
	 M34.152,23.596c-0.325-0.062-0.597-0.251-0.89-0.387c-0.299-0.139-0.608-0.227-0.91-0.288c-0.114,0.195-0.218,0.373-0.341,0.582
	c0.657,0.251,1.342,0.481,1.978,0.857c0.161-0.264,0.226-0.557,0.322-0.91C34.221,23.534,34.187,23.565,34.152,23.596z
	 M34.272,21.606c-0.603-0.082-1.196-0.203-1.782-0.37c0.041,0.276,0.081,0.544,0.12,0.809c0.289,0.076,0.598,0.068,0.872,0.207
	c0.328-0.096,0.585,0.218,0.907,0.189C34.4,22.132,34.441,21.852,34.272,21.606z M31.122,14.33c0.227,0.269,0.477,0.299,0.692,0.267
	c0.153-0.136,0.27-0.241,0.374-0.333c0-0.146,0-0.271,0-0.332c-0.137-0.157-0.241-0.276-0.362-0.415
	c-0.187,0.04-0.378,0.081-0.604,0.13C31.186,13.895,31.151,14.132,31.122,14.33z M7.791,12.623c0.204-0.154,0.397-0.299,0.572-0.432
	c0-0.13,0-0.225,0-0.29c-0.104-0.191-0.185-0.355-0.395-0.437c-0.23-0.09-0.356,0.155-0.58,0.061
	c-0.04,0.27-0.072,0.494-0.108,0.735C7.453,12.382,7.611,12.495,7.791,12.623z M6.058,12.764c0.197,0,0.336,0,0.459,0
	c0.038-0.085,0.067-0.152,0.105-0.238c-0.064-0.098-0.142-0.218-0.204-0.312c-0.256-0.044-0.335,0.129-0.47,0.267
	C5.983,12.568,6.02,12.664,6.058,12.764z M7.847,10.753C8,10.946,8.115,11.114,8.361,11.057c0.028-0.007,0.055-0.021,0.078-0.029
	c0.042-0.098,0.083-0.191,0.119-0.277c-0.058-0.097-0.109-0.183-0.156-0.263c-0.101,0-0.194,0-0.266,0
	C8.041,10.575,7.96,10.65,7.847,10.753z M33.085,14.695c-0.076,0-0.172,0-0.269,0c-0.011,0.011-0.022,0.022-0.033,0.034
	c-0.034,0.034-0.068,0.068-0.101,0.101c0.002,0.334,0.052,0.439,0.256,0.439c0.079-0.034,0.198-0.086,0.309-0.134
	C33.242,14.977,33.288,14.825,33.085,14.695z M6.914,10.833c-0.1,0.1-0.201,0.177-0.267,0.277c-0.034,0.052-0.006,0.145-0.006,0.217
	c0.133,0.076,0.242,0.139,0.305,0.174c0.116-0.082,0.205-0.145,0.261-0.184c0-0.14,0-0.232,0-0.349
	C7.116,10.926,7.024,10.884,6.914,10.833z M32.398,13.466c0.118,0.155,0.201,0.263,0.3,0.393c0.089-0.047,0.18-0.096,0.248-0.132
	c0-0.174,0-0.313,0-0.459c-0.154,0-0.293,0-0.457,0C32.447,13.359,32.404,13.453,32.398,13.466z M31.959,12.77
	c-0.142-0.124-0.243-0.212-0.348-0.304c-0.142,0.061-0.261,0.112-0.368,0.159c-0.058,0.263,0.15,0.326,0.231,0.436
	C31.741,13.101,31.801,12.914,31.959,12.77z"/>
<linearGradient id="SVGID_2_" gradientUnits="userSpaceOnUse" x1="9.6878" y1="14.8465" x2="29.1363" y2="14.8465">
	<stop  offset="0" style="stop-color:#FF63D4"/>
	<stop  offset="1" style="stop-color:#FFE2D4"/>
</linearGradient>
<path style="fill:url(#SVGID_2_);" d="M11.06,19.307c-0.29-0.044-0.433-0.367-0.702-0.453c-0.264-0.084-0.419-0.29-0.637-0.48
	c-0.118-0.376,0.108-0.728,0.227-1.092c0.137-0.42,0.322-0.822,0.51-1.224c0.248-0.53,0.558-1.015,0.86-1.511
	c0.055-0.091,0.109-0.181,0.181-0.257c0.262-0.281,0.526-0.565,0.7-0.907c0.07-0.137,0.274-0.053,0.294-0.256
	c0.01-0.099,0.157-0.189,0.251-0.274c0.544-0.491,0.846-1.131,1.069-1.806c0.235-0.713,0.583-1.363,1.003-1.974
	c0.103-0.15,0.29-0.26,0.449-0.378c0.509-0.379,1.103-0.572,1.685-0.786c0.237-0.087,0.52-0.044,0.768-0.111
	c0.432-0.118,0.873-0.039,1.299-0.105c0.259-0.04,0.515-0.083,0.776-0.077c0.069,0.002,0.137,0.047,0.186,0.065
	c0.091-0.024,0.207-0.093,0.255-0.06c0.189,0.126,0.391,0.088,0.588,0.085c0.31-0.005,0.595,0.071,0.885,0.177
	c0.292,0.107,0.618,0.128,0.901,0.251c0.42,0.182,0.828,0.399,1.215,0.643c0.21,0.133,0.355,0.365,0.549,0.53
	c0.664,0.568,1.077,1.319,1.477,2.07c0.248,0.465,0.426,0.972,0.599,1.472c0.121,0.349,0.265,0.689,0.382,1.038
	c0.118,0.35,0.224,0.7,0.366,1.045c0.151,0.367,0.272,0.749,0.457,1.102c0.2,0.381,0.422,0.751,0.641,1.122
	c0.069,0.117,0.196,0.212,0.228,0.335c0.095,0.377,0.341,0.69,0.422,1.07c0.063,0.292,0.249,0.557,0.178,0.896
	c-0.195,0.101-0.423,0.185-0.613,0.323c-0.57,0.414-1.221,0.67-1.848,0.971c-0.855,0.41-1.78,0.632-2.676,0.928
	c-0.115,0.038-0.255-0.007-0.38,0.009c-0.101,0.013-0.195,0.072-0.296,0.089c-0.225,0.04-0.491,0.003-0.667,0.114
	c-0.214,0.135-0.468-0.02-0.656,0.168c-0.048,0.048-0.184,0.007-0.28,0.007c-0.973,0-1.945,0.005-2.918-0.004
	c-0.194-0.002-0.393-0.042-0.581-0.095c-0.449-0.127-0.943-0.035-1.367-0.279c-0.22,0.034-0.42-0.06-0.629-0.099
	c-0.513-0.096-1.021-0.207-1.506-0.407c-0.381-0.157-0.774-0.288-1.149-0.46c-0.443-0.203-0.875-0.432-1.306-0.66
	c-0.224-0.118-0.438-0.255-0.652-0.39C11.418,19.557,11.245,19.433,11.06,19.307z M18.802,16.395
	c0.732,0.491,1.528,0.679,2.371,0.688c0.178,0.002,0.355-0.077,0.535-0.087c0.577-0.032,1.125-0.147,1.666-0.371
	c0.315-0.131,0.602-0.261,0.847-0.502c0.136-0.134,0.315-0.224,0.538-0.377c0.127-0.14,0.088-0.346-0.053-0.547
	c-0.113-0.031-0.223-0.061-0.338-0.092c-0.092,0.057-0.194,0.12-0.32,0.198c0.019,0.171,0.037,0.344,0.051,0.47
	c-0.068,0.086-0.133,0.167-0.196,0.247c-0.028-0.028-0.051-0.051-0.073-0.073c-0.09,0.198-0.278,0.291-0.455,0.367
	c-0.216,0.093-0.462,0.116-0.681,0.204c-0.224,0.09-0.45,0.172-0.688,0.181c-0.247,0.009-0.485,0.037-0.728,0.092
	c-0.239,0.055-0.486-0.056-0.725-0.072c-0.51-0.035-0.948-0.223-1.391-0.459c0.209-0.299,0.406-0.582,0.619-0.887
	c-0.036-0.215-0.073-0.438-0.098-0.587c-0.175-0.126-0.283-0.204-0.38-0.274c-0.488-0.033-0.967-0.065-1.272,0.461
	c0.053,0.181-0.092,0.42,0.089,0.64c0.145,0.177,0.244,0.393,0.362,0.592c-0.559,0.373-0.815,0.379-2.224,0.214
	c-0.635-0.26-1.23-0.58-1.657-1.089c-0.096-0.288,0.273-0.559-0.059-0.815c-0.124,0-0.263,0-0.422,0
	c-0.071,0.122-0.146,0.251-0.213,0.365c0.041,0.089,0.06,0.166,0.106,0.22c0.044,0.05,0.124,0.067,0.175,0.113
	c0.118,0.107,0.265,0.205,0.332,0.34c0.161,0.321,0.427,0.524,0.715,0.696c0.517,0.309,1.065,0.546,1.684,0.552
	c0.287,0.003,0.578,0.03,0.86-0.007C18.134,16.746,18.487,16.664,18.802,16.395z M21.496,12.052
	c-0.199,0.286-0.136,0.554,0.108,0.813c0.131,0,0.27,0,0.417,0c0.111-0.121,0.226-0.246,0.33-0.359
	c-0.057-0.331-0.209-0.53-0.472-0.578C21.743,11.972,21.645,12.004,21.496,12.052z M16.804,11.825
	c-0.097,0.136-0.201,0.283-0.292,0.411c0.086,0.197,0.18,0.371,0.367,0.453c0.329-0.099,0.329-0.099,0.572-0.346
	c0-0.098,0-0.192,0-0.269c-0.086-0.092-0.161-0.174-0.23-0.248C17.084,11.825,16.957,11.825,16.804,11.825z"/>
<linearGradient id="SVGID_3_" gradientUnits="userSpaceOnUse" x1="9.4149" y1="22.3098" x2="29.4146" y2="22.3098">
	<stop  offset="0" style="stop-color:#FF63D4"/>
	<stop  offset="1" style="stop-color:#FFE2D4"/>
</linearGradient>
<path style="fill:url(#SVGID_3_);" d="M9.628,22.822c-0.074-0.519-0.203-1.009-0.21-1.514c-0.008-0.507-0.002-1.013,0.026-1.534
	c0.09,0.159,0.312,0.14,0.378,0.337c0.02,0.06,0.189,0.06,0.28,0.107c0.539,0.278,1.081,0.551,1.611,0.846
	c0.871,0.485,1.827,0.752,2.756,1.085c0.205,0.073,0.428,0.105,0.641,0.186c0.204,0.078,0.428,0.123,0.644,0.178
	c0.119,0.03,0.248,0.013,0.37,0.034c0.116,0.02,0.227,0.071,0.344,0.091c0.481,0.083,0.97,0.131,1.448,0.212
	c0.534,0.091,1.074-0.014,1.587,0.095c0.52,0.11,1.03,0.051,1.543,0.071c0.208,0.008,0.42-0.056,0.63-0.089
	c0.21-0.033,0.44,0.083,0.633-0.092c0.026-0.024,0.093,0.002,0.14-0.004c0.211-0.025,0.419,0.035,0.638-0.081
	c0.159-0.085,0.38-0.007,0.581-0.097c0.169-0.076,0.401,0.036,0.576-0.109c0.476-0.001,0.891-0.254,1.346-0.326
	c0.403-0.064,0.775-0.211,1.149-0.351c0.372-0.139,0.763-0.24,1.097-0.469c0.308,0.059,0.459-0.255,0.738-0.307
	c0.234-0.044,0.44-0.238,0.659-0.365c0.011-0.006,0.03,0.001,0.053,0.003c0.044,0.234,0.111,0.469,0.127,0.707
	c0.016,0.243-0.128,0.469-0.096,0.726c0.03,0.242-0.017,0.483-0.075,0.729c-0.055,0.236-0.086,0.47-0.221,0.692
	c-0.142,0-0.281,0-0.403,0c-0.073,0.073-0.13,0.13-0.131,0.131c-0.557,0.142-1.049,0.267-1.542,0.394
	c-0.072,0.018-0.141,0.056-0.214,0.06c-0.394,0.023-0.772,0.119-1.144,0.244c-0.056,0.019-0.114,0.039-0.173,0.045
	c-0.337,0.035-0.701-0.002-1.006,0.115c-0.343,0.131-0.691,0.034-1.036,0.152c-0.299,0.103-0.674-0.034-0.995,0.034
	c-0.579,0.121-1.156,0.069-1.733,0.081c-0.574,0.012-1.149,0.012-1.722-0.002c-0.259-0.006-0.515-0.072-0.774-0.088
	c-0.254-0.016-0.527,0.052-0.761-0.018c-0.263-0.08-0.519-0.06-0.778-0.084c-0.164-0.015-0.325-0.062-0.487-0.092
	c-0.147-0.028-0.322,0.072-0.439-0.096c-0.425,0.069-0.806-0.142-1.211-0.202c-0.485-0.072-0.953-0.249-1.437-0.332
	c-0.547-0.094-1.051-0.329-1.595-0.435c-0.159-0.031-0.346-0.065-0.491-0.206c-0.083-0.081-0.254-0.067-0.38-0.112
	C10.253,23.058,9.936,22.936,9.628,22.822z"/>
<linearGradient id="SVGID_4_" gradientUnits="userSpaceOnUse" x1="10.0581" y1="25.904" x2="28.6382" y2="25.904">
	<stop  offset="0" style="stop-color:#FF63D4"/>
	<stop  offset="1" style="stop-color:#FFE2D4"/>
</linearGradient>
<path style="fill:url(#SVGID_4_);" d="M27.302,26.768c-0.043-0.032-0.079-0.059-0.152-0.113c-0.038,0.068-0.081,0.147-0.098,0.178
	c-0.236,0.018-0.446-0.026-0.567,0.058c-0.154,0.106-0.324,0.003-0.48,0.136c-0.13,0.11-0.368,0.004-0.577,0.093
	c-0.256,0.11-0.572,0.078-0.861,0.116c-0.179,0.023-0.356,0.082-0.535,0.089c-0.246,0.01-0.466,0.15-0.726,0.106
	c-0.259-0.044-0.498,0.135-0.773,0.097c-0.25-0.035-0.522-0.059-0.761,0.003c-0.498,0.13-0.996,0.071-1.493,0.082
	c-0.494,0.012-0.988,0.012-1.482-0.002c-0.227-0.006-0.451-0.073-0.678-0.088c-0.238-0.016-0.496,0.054-0.713-0.017
	c-0.357-0.116-0.711-0.055-1.064-0.086c-0.087-0.008-0.169-0.057-0.255-0.073c-0.238-0.044-0.462-0.138-0.718-0.125
	c-0.223,0.012-0.464-0.019-0.675-0.094c-0.495-0.174-1.018-0.235-1.523-0.352c-0.611-0.142-1.197-0.357-1.804-0.504
	c-0.056-0.014-0.124-0.036-0.157-0.077c-0.219-0.274-0.493-0.527-0.626-0.84c-0.122-0.285-0.314-0.537-0.393-0.841
	c-0.026-0.099-0.076-0.192-0.132-0.33c0.244,0.037,0.469,0.037,0.667,0.11c0.167,0.062,0.327,0.13,0.502,0.178
	c0.166,0.046,0.351,0.021,0.485,0.09c0.3,0.154,0.637,0.142,0.942,0.268c0.177,0.073,0.385,0.069,0.579,0.104
	c0.163,0.029,0.355,0.019,0.479,0.105c0.187,0.131,0.4,0.025,0.573,0.124c0.194,0.111,0.4,0.027,0.598,0.059
	c0.163,0.026,0.323,0.072,0.487,0.092c0.15,0.018,0.311-0.032,0.442,0.095c0.025,0.024,0.093,0,0.14,0.004
	c0.525,0.039,1.051,0.08,1.576,0.12c0.019,0.055,0.039,0.11,0.048,0.137c0.212-0.023,0.405-0.059,0.599-0.063
	c0.414-0.01,0.844-0.073,1.239,0.015c0.487,0.108,0.966,0.077,1.446,0.07c0.656-0.01,1.308-0.126,1.969-0.092
	c0.179,0.009,0.339-0.122,0.535-0.097c0.163,0.021,0.338,0.038,0.489-0.085c0.038-0.031,0.125-0.012,0.187-0.004
	c0.504,0.067,0.999-0.055,1.488-0.119c0.422-0.056,0.862-0.083,1.275-0.253c0.232-0.095,0.514-0.06,0.768-0.111
	c0.319-0.064,0.633-0.155,0.978-0.242c0.003,0.004,0.043,0.051,0.087,0.104c-0.158,0.448-0.473,1.102-0.783,1.469
	c-0.087,0.104-0.145,0.235-0.242,0.327C27.53,26.669,27.41,26.709,27.302,26.768z"/>
<linearGradient id="SVGID_5_" gradientUnits="userSpaceOnUse" x1="12.5663" y1="28.816" x2="26.3229" y2="28.816">
	<stop  offset="0" style="stop-color:#FF63D4"/>
	<stop  offset="1" style="stop-color:#FFE2D4"/>
</linearGradient>
<path style="fill:url(#SVGID_5_);" d="M12.566,27.696c0.402-0.001,0.769,0.069,1.137,0.128c0.404,0.065,0.802,0.145,1.211,0.194
	c0.257,0.031,0.528,0.021,0.771,0.09c0.262,0.074,0.535,0.019,0.772,0.097c0.327,0.107,0.654,0.021,0.967,0.089
	c0.782,0.17,1.568,0.063,2.351,0.084c0.78,0.021,1.561,0.012,2.341,0c0.242-0.004,0.483-0.061,0.725-0.091
	c0.242-0.03,0.488,0.051,0.731-0.086c0.109-0.061,0.282,0.003,0.424-0.014c0.195-0.023,0.39,0.06,0.592-0.075
	c0.153-0.103,0.406,0.08,0.572-0.112c0.363-0.035,0.725-0.069,1.163-0.111c-0.32,0.207-0.597,0.334-0.801,0.535
	c-0.163,0.161-0.39,0.143-0.555,0.312c-0.121,0.125-0.339,0.25-0.568,0.22c-0.382,0.275-0.853,0.327-1.27,0.51
	c-0.213,0.093-0.438,0.094-0.654,0.146c-0.456,0.11-0.93,0.156-1.395,0.227c-0.47,0.071-0.932,0.058-1.397,0.071
	c-0.462,0.013-0.932,0.058-1.383-0.012c-0.519-0.081-1.065-0.034-1.557-0.269c-0.35,0.066-0.642-0.151-0.969-0.206
	c-0.301-0.051-0.584-0.199-0.877-0.298c-0.339-0.115-0.626-0.331-0.946-0.484c-0.322-0.154-0.603-0.393-0.9-0.598
	C12.887,27.93,12.728,27.812,12.566,27.696z"/>
<linearGradient id="SVGID_6_" gradientUnits="userSpaceOnUse" x1="30.3893" y1="25.1015" x2="33.2633" y2="25.1015">
	<stop  offset="0" style="stop-color:#FF63D4"/>
	<stop  offset="1" style="stop-color:#FFE2D4"/>
</linearGradient>
<path style="fill:url(#SVGID_6_);" d="M33.263,25.461c-0.223,0.178-0.435,0.347-0.669,0.533c-0.402-0.124-0.676-0.5-1.074-0.681
	c-0.389-0.177-0.755-0.405-1.131-0.611c0.303-0.164,0.61-0.331,0.908-0.492c0.23,0.304,0.631,0.414,0.958,0.616
	C32.585,25.029,32.872,25.302,33.263,25.461z"/>
<linearGradient id="SVGID_7_" gradientUnits="userSpaceOnUse" x1="32.0122" y1="23.6406" x2="34.3121" y2="23.6406">
	<stop  offset="0" style="stop-color:#FF63D4"/>
	<stop  offset="1" style="stop-color:#FFE2D4"/>
</linearGradient>
<path style="fill:url(#SVGID_7_);" d="M34.152,23.596c0.034-0.031,0.068-0.062,0.16-0.146c-0.095,0.353-0.16,0.645-0.322,0.91
	c-0.636-0.376-1.321-0.606-1.978-0.857c0.122-0.209,0.226-0.387,0.341-0.582c0.302,0.06,0.611,0.148,0.91,0.288
	C33.555,23.345,33.827,23.534,34.152,23.596z"/>
<linearGradient id="SVGID_8_" gradientUnits="userSpaceOnUse" x1="32.4898" y1="21.8385" x2="34.4013" y2="21.8385">
	<stop  offset="0" style="stop-color:#FF63D4"/>
	<stop  offset="1" style="stop-color:#FFE2D4"/>
</linearGradient>
<path style="fill:url(#SVGID_8_);" d="M34.272,21.606c0.169,0.246,0.128,0.527,0.118,0.834c-0.323,0.029-0.579-0.285-0.907-0.189
	c-0.274-0.139-0.583-0.131-0.872-0.207c-0.039-0.265-0.079-0.533-0.12-0.809C33.076,21.403,33.669,21.524,34.272,21.606z"/>
<path style="fill:#AA7013;" d="M31.122,14.33c0.029-0.199,0.064-0.435,0.1-0.683c0.226-0.049,0.417-0.09,0.604-0.13
	c0.121,0.139,0.225,0.258,0.362,0.415c0,0.06,0,0.186,0,0.332c-0.103,0.092-0.221,0.197-0.374,0.333
	C31.599,14.63,31.349,14.599,31.122,14.33z"/>
<path style="fill:#AA7013;" d="M7.791,12.623c-0.18-0.128-0.338-0.241-0.509-0.364c0.035-0.241,0.068-0.465,0.108-0.735
	c0.224,0.095,0.35-0.151,0.58-0.061c0.21,0.082,0.29,0.246,0.395,0.437c0,0.065,0,0.16,0,0.29
	C8.187,12.324,7.995,12.469,7.791,12.623z"/>
<path style="fill:#AA7013;" d="M6.058,12.764c-0.039-0.101-0.076-0.196-0.109-0.283c0.135-0.138,0.214-0.311,0.47-0.267
	c0.062,0.095,0.14,0.214,0.204,0.312c-0.038,0.086-0.068,0.153-0.105,0.238C6.394,12.764,6.255,12.764,6.058,12.764z"/>
<path style="fill:#AA7013;" d="M7.847,10.753c0.113-0.104,0.194-0.178,0.289-0.265c0.072,0,0.166,0,0.266,0
	c0.047,0.08,0.098,0.166,0.156,0.263c-0.037,0.085-0.077,0.179-0.119,0.277c-0.023,0.009-0.049,0.023-0.078,0.029
	C8.115,11.114,8,10.946,7.847,10.753z"/>
<path style="fill:#AA7013;" d="M33.085,14.695c0.202,0.13,0.156,0.282,0.162,0.441c-0.111,0.048-0.231,0.1-0.309,0.134
	c-0.204,0-0.254-0.106-0.256-0.439c0.034-0.034,0.068-0.068,0.101-0.101c0.011-0.011,0.022-0.023,0.033-0.034
	C32.913,14.695,33.009,14.695,33.085,14.695z"/>
<path style="fill:#AA7013;" d="M6.914,10.833c0.11,0.051,0.202,0.094,0.292,0.136c0,0.117,0,0.209,0,0.349
	c-0.056,0.04-0.145,0.102-0.261,0.184c-0.062-0.036-0.171-0.098-0.305-0.174c0-0.072-0.028-0.165,0.006-0.217
	C6.713,11.01,6.814,10.933,6.914,10.833z"/>
<path style="fill:#AA7013;" d="M32.398,13.466c0.006-0.013,0.049-0.107,0.091-0.198c0.164,0,0.303,0,0.457,0
	c0,0.146,0,0.285,0,0.459c-0.067,0.036-0.159,0.084-0.248,0.132C32.599,13.728,32.516,13.62,32.398,13.466z"/>
<path style="fill:#AA7013;" d="M31.959,12.77c-0.158,0.144-0.218,0.331-0.485,0.29c-0.08-0.109-0.289-0.173-0.231-0.436
	c0.107-0.046,0.226-0.097,0.368-0.159C31.716,12.558,31.817,12.646,31.959,12.77z"/>
<path d="M18.802,16.395c-0.315,0.268-0.668,0.351-1.021,0.398c-0.282,0.037-0.573,0.01-0.86,0.007
	c-0.619-0.005-1.167-0.243-1.684-0.552c-0.288-0.172-0.554-0.376-0.715-0.696c-0.068-0.135-0.215-0.233-0.332-0.34
	c-0.051-0.046-0.131-0.063-0.175-0.113c-0.046-0.053-0.065-0.131-0.106-0.22c0.067-0.114,0.142-0.243,0.213-0.365
	c0.159,0,0.298,0,0.422,0c0.331,0.256-0.037,0.526,0.059,0.815c0.428,0.51,1.023,0.829,1.657,1.089
	c1.41,0.166,1.665,0.159,2.224-0.214c-0.119-0.199-0.217-0.415-0.363-0.592c-0.181-0.22-0.036-0.458-0.089-0.64
	c0.305-0.526,0.784-0.493,1.272-0.461c0.097,0.07,0.206,0.148,0.38,0.274c0.025,0.149,0.062,0.372,0.098,0.587
	c-0.213,0.305-0.411,0.589-0.619,0.887c0.443,0.236,0.881,0.424,1.391,0.459c0.238,0.016,0.486,0.126,0.725,0.072
	c0.243-0.055,0.481-0.083,0.728-0.092c0.238-0.009,0.464-0.091,0.688-0.181c0.219-0.088,0.465-0.11,0.681-0.204
	c0.177-0.076,0.364-0.17,0.455-0.367c0.023,0.023,0.045,0.045,0.073,0.073c0.064-0.08,0.128-0.161,0.196-0.247
	c-0.014-0.126-0.032-0.298-0.051-0.47c0.126-0.078,0.228-0.141,0.32-0.198c0.116,0.032,0.225,0.062,0.338,0.092
	c0.141,0.201,0.179,0.407,0.053,0.547c-0.223,0.154-0.402,0.244-0.538,0.377c-0.245,0.24-0.532,0.371-0.847,0.502
	c-0.541,0.224-1.089,0.339-1.666,0.371c-0.179,0.01-0.357,0.089-0.535,0.087C20.33,17.074,19.533,16.887,18.802,16.395z
	 M18.805,16.015c0.277-0.057,0.332-0.288,0.479-0.428c0.156-0.15,0.236-0.349,0.162-0.577c-0.225-0.24-0.51-0.243-0.789-0.208
	c-0.115,0.07-0.217,0.131-0.326,0.197c0,0.143,0,0.281,0,0.473C18.472,15.633,18.643,15.829,18.805,16.015z"/>
<path d="M21.496,12.052c0.149-0.048,0.247-0.08,0.384-0.124c0.263,0.049,0.415,0.247,0.472,0.578
	c-0.104,0.113-0.219,0.238-0.33,0.359c-0.147,0-0.286,0-0.417,0C21.36,12.606,21.297,12.338,21.496,12.052z"/>
<path d="M16.804,11.825c0.153,0,0.28,0,0.418,0c0.069,0.074,0.144,0.156,0.23,0.248c0,0.076,0,0.171,0,0.269
	c-0.243,0.247-0.243,0.247-0.572,0.346c-0.187-0.082-0.281-0.256-0.367-0.453C16.603,12.109,16.708,11.961,16.804,11.825z"/>
<path style="fill:#FF0000;" d="M18.805,16.015c-0.162-0.186-0.333-0.382-0.474-0.543c0-0.192,0-0.33,0-0.473
	c0.109-0.066,0.211-0.127,0.326-0.197c0.279-0.034,0.564-0.032,0.789,0.208c0.075,0.228-0.005,0.426-0.162,0.577
	C19.137,15.727,19.082,15.958,18.805,16.015z"/>
</svg>
