<?xml version="1.0" encoding="utf-8"?>
<!-- Generator: Adobe Illustrator 17.0.2, SVG Export Plug-In . SVG Version: 6.00 Build 0)  -->
<!DOCTYPE svg PUBLIC "-//W3C//DTD SVG 1.1//EN" "http://www.w3.org/Graphics/SVG/1.1/DTD/svg11.dtd">
<svg version="1.1" id="Layer_1" xmlns="http://www.w3.org/2000/svg" xmlns:xlink="http://www.w3.org/1999/xlink" x="0px" y="0px"
	 width="40px" height="40px" viewBox="0 0 40 40" enable-background="new 0 0 40 40" xml:space="preserve">
<radialGradient id="SVGID_1_" cx="92.5" cy="-175" r="20" gradientTransform="matrix(1 0 0 -1 -72.5 -155)" gradientUnits="userSpaceOnUse">
	<stop  offset="0" style="stop-color:#FFFFFF"/>
	<stop  offset="1" style="stop-color:#005D7F"/>
</radialGradient>
<circle fill="url(#SVGID_1_)" cx="20" cy="20" r="20"/>
<g>
	<path d="M28.916,21.625c0.176,0.186,0.351,0.371,0.529,0.56c-0.165,0.481-0.516,0.633-0.967,0.651
		c-0.671,0.027-1.344,0.041-2.013,0.104c-0.633,0.06-1.26,0.178-1.89,0.265c-0.157,0.022-0.318,0.022-0.515,0.035
		c0.303,0.599,0.637,1.156,0.871,1.752c0.23,0.586,0.358,1.212,0.537,1.842c0.973-0.222,1.945-0.445,2.917-0.667
		c-0.373,0.482-0.895,0.768-1.338,1.186c0.43,0.165,0.85,0.327,1.338,0.514c-0.472,0.219-0.871,0.405-1.297,0.603
		c0.191,0.371,0.359,0.699,0.527,1.026c-0.025,0.025-0.049,0.05-0.074,0.074c-0.821-0.233-1.641-0.465-2.485-0.704
		c-0.376,0.42-0.583,0.998-1.194,1.281c0.175,0.708,0.317,1.424,0.532,2.117c0.321,1.034,0.703,2.048,1.039,3.077
		c0.143,0.438,0.077,0.855-0.337,1.23c-0.266-0.105-0.556-0.218-0.827-0.325c-0.198,0.161-0.415,0.336-0.625,0.507
		c-0.461-0.341-0.637-0.734-0.621-1.242c0.031-0.961-0.032-1.917-0.181-2.868c-0.092-0.581-0.143-1.168-0.219-1.803
		c-0.893,0.344-1.789,0.389-2.701,0.397c-0.917,0.008-1.798-0.154-2.709-0.444c-0.078,0.66-0.149,1.243-0.216,1.827
		c-0.096,0.839-0.195,1.677-0.28,2.517c-0.022,0.222,0.014,0.45,0.004,0.674c-0.009,0.206,0.01,0.436-0.076,0.61
		c-0.256,0.517-0.511,0.688-0.906,0.191c-0.059-0.074-0.122-0.145-0.149-0.176c-0.302,0.127-0.589,0.249-0.887,0.374
		c-0.363-0.442-0.497-0.84-0.272-1.406c0.636-1.599,1.153-3.24,1.462-4.94c0.02-0.108,0.059-0.212,0.099-0.35
		c-1.676-1.387-2.105-3.145-1.437-5.262c-0.159,0.063-0.259,0.09-0.345,0.139c-0.817,0.468-1.678,0.859-2.43,1.44
		c-0.241,0.186-0.525,0.295-0.851,0.263c-0.377-0.037-0.488-0.146-0.438-0.52c0.018-0.138,0.077-0.271,0.118-0.41
		c-0.088-0.034-0.189-0.051-0.262-0.106c-0.205-0.154-0.587-0.202-0.511-0.551c0.08-0.366,0.308-0.665,0.709-0.774
		c1.199-0.326,2.4-0.642,3.593-0.987c0.458-0.132,0.91-0.302,1.338-0.51c0.383-0.186,0.585-0.576,0.803-0.926
		c0.125-0.201,0.197-0.435,0.291-0.655c0.202-0.474,0.057-0.891-0.264-1.236c-0.282-0.303-0.608-0.57-0.933-0.83
		c-1.425-1.142-2.367-2.603-2.73-4.383c-0.241-1.185-0.264-1.892,0.437-3.538c-0.816,0.305-1.613,0.535-2.459,0.572
		c-0.877,0.038-1.676-0.173-2.465-0.673c0.065-0.197,0.103-0.418,0.207-0.603c0.265-0.472,0.505-0.974,0.856-1.377
		c0.459-0.528,1.073-0.831,1.802-0.882c1.258-0.089,2.397,0.301,3.515,0.804c0.16,0.072,0.315,0.157,0.473,0.233
		c0.011,0.005,0.031-0.005,0.067-0.013c0.127-0.427-0.021-0.844-0.106-1.254c-0.377-1.805-1.246-3.371-2.372-4.81
		c-0.036-0.046-0.053-0.108-0.086-0.178c1.32,0.237,3.642,2.237,4.728,5.379c0.997-0.19,2.005-0.381,3.02-0.335
		c0.997,0.044,1.989,0.21,2.996,0.323c0.957-2.33,2.286-4.348,4.888-5.19c-0.241,0.323-0.479,0.647-0.722,0.968
		c-1.082,1.423-1.782,3.015-2.114,4.77c-0.009,0.047-0.008,0.096-0.011,0.144c-0.033,0.483,0.071,0.557,0.548,0.464
		c0.892-0.174,1.78-0.372,2.7-0.339c1.32,0.048,2.306,0.62,2.843,1.842c0.221,0.503,0.337,1.054,0.504,1.597
		c-0.468,0.283-0.941,0.349-1.413,0.373c-0.784,0.039-1.514-0.204-2.214-0.523c-0.433-0.197-0.839-0.453-1.277-0.694
		c0.059,0.226,0.119,0.454,0.179,0.682c0.16,0.604,0.282,1.218,0.245,1.842c-0.086,1.446-0.516,2.771-1.597,3.787
		c-0.412,0.388-0.924,0.674-1.405,0.984c-0.46,0.296-0.887,0.624-1.264,1.024c-0.471,0.499-0.479,1.053-0.254,1.641
		c0.086,0.225,0.277,0.197,0.447,0.165c0.266-0.05,0.529-0.118,0.789-0.193c1.334-0.384,2.662-0.786,3.935-1.344
		c0.4-0.175,0.718-0.018,1.041,0.15c0.19,0.099,0.177,0.294,0.098,0.467C29.118,21.26,29.014,21.437,28.916,21.625z M27.069,14.227
		c0-0.273,0.039-0.553-0.007-0.818c-0.169-0.984-0.496-1.903-1.081-2.734c-0.62-0.88-1.463-1.405-2.459-1.735
		c-1.183-0.392-2.398-0.499-3.638-0.487c-1.178,0.011-2.318,0.203-3.422,0.591c-1.084,0.381-2.058,0.937-2.765,1.887
		c-0.818,1.098-1.022,2.348-0.798,3.647c0.278,1.609,1.092,2.953,2.3,4.056c0.449,0.409,0.898,0.819,1.336,1.24
		c0.406,0.391,0.508,0.876,0.353,1.406c-0.126,0.432-0.357,0.809-0.62,1.178c-0.426,0.596-0.842,1.205-1.189,1.848
		c-0.527,0.975-0.645,2.061-0.457,3.126c0.222,1.261,0.984,2.189,2.125,2.804c0.716,0.386,1.479,0.558,2.277,0.669
		c1.364,0.189,2.673,0.052,3.935-0.502c1.281-0.562,2.363-1.941,2.107-3.858c-0.178-1.334-0.772-2.448-1.621-3.454
		c-0.175-0.208-0.358-0.412-0.512-0.635c-0.237-0.343-0.44-0.708-0.482-1.134c-0.058-0.585,0.197-1.056,0.579-1.467
		c0.52-0.559,1.189-0.917,1.831-1.307c0.546-0.331,0.989-0.767,1.342-1.288C26.818,16.346,27.12,15.335,27.069,14.227z
		 M14.664,9.531c-0.915-0.47-1.874-0.817-2.892-0.954c-0.662-0.089-1.291,0.052-1.869,0.436c-0.724,0.48-1.039,1.222-1.386,1.95
		c0.33,0.265,0.913,0.512,1.276,0.531c0.884,0.047,1.762,0.009,2.6-0.309c0.473-0.18,0.97-0.311,1.327-0.731
		C13.996,10.127,14.331,9.852,14.664,9.531z M31.545,12.578c-0.143-0.44-0.256-0.835-0.4-1.217c-0.305-0.809-0.858-1.37-1.696-1.626
		c-0.659-0.201-1.337-0.14-2.004-0.09c-0.527,0.04-1.047,0.184-1.564,0.28c0.526,1.081,1.298,1.8,2.344,2.283
		C29.279,12.695,30.327,12.914,31.545,12.578z M16.256,30.313c-0.348,1.735-0.831,3.41-1.482,5.074
		c0.562,0.034,1.08,0.065,1.603,0.097c0.175-1.605,0.348-3.194,0.523-4.806C16.702,30.565,16.482,30.441,16.256,30.313z
		 M22.95,30.766c0.158,1.485,0.314,2.951,0.473,4.442c0.525,0.01,1.049,0.087,1.526-0.083c-0.471-1.576-0.938-3.136-1.405-4.696
		C23.35,30.54,23.142,30.657,22.95,30.766z M27.829,20.959c-1.538,0.481-3.029,0.948-4.542,1.422c0.11,0.142,0.218,0.28,0.324,0.418
		c0.121,0.157,0.281,0.193,0.47,0.169c1.056-0.13,2.113-0.253,3.168-0.386c0.232-0.029,0.461-0.089,0.71-0.139
		C27.897,21.924,28.05,21.421,27.829,20.959z M11.841,25.949c0.511-0.283,0.983-0.552,1.462-0.807
		c0.767-0.408,1.619-0.719,1.87-1.695c0.007-0.027,0.001-0.057,0.001-0.099c-1.369,0.412-2.732,0.822-4.136,1.244
		C11.314,25.058,11.572,25.495,11.841,25.949z M26.409,27.459c0.309-0.263,0.539-0.458,0.84-0.715
		c-0.676,0.181-1.287,0.246-1.796,0.448c-0.098,0.501-0.18,0.921-0.267,1.368c0.292,0.09,0.608,0.193,0.927,0.286
		c0.305,0.088,0.613,0.166,0.948,0.255c-0.148-0.277-0.267-0.498-0.409-0.763c0.314-0.157,0.588-0.295,0.912-0.457
		C27.18,27.74,26.854,27.621,26.409,27.459z"/>
	<linearGradient id="SVGID_2_" gradientUnits="userSpaceOnUse" x1="12.8137" y1="19.7184" x2="27.0847" y2="19.7184">
		<stop  offset="0" style="stop-color:#735233"/>
		<stop  offset="1" style="stop-color:#FFB572"/>
	</linearGradient>
	<path fill="url(#SVGID_2_)" d="M27.069,14.227c0.051,1.107-0.251,2.119-0.868,3.031c-0.353,0.522-0.796,0.957-1.342,1.288
		c-0.642,0.389-1.31,0.748-1.831,1.307c-0.382,0.411-0.637,0.882-0.579,1.467c0.042,0.426,0.244,0.791,0.482,1.134
		c0.155,0.223,0.337,0.427,0.512,0.635c0.849,1.007,1.442,2.121,1.621,3.454c0.256,1.917-0.826,3.297-2.107,3.858
		c-1.262,0.553-2.572,0.691-3.935,0.502c-0.798-0.111-1.561-0.283-2.277-0.669c-1.141-0.615-1.903-1.543-2.125-2.804
		c-0.188-1.065-0.069-2.15,0.457-3.126c0.347-0.643,0.763-1.253,1.189-1.848c0.264-0.369,0.494-0.746,0.62-1.178
		c0.155-0.53,0.053-1.015-0.353-1.406c-0.438-0.421-0.887-0.83-1.336-1.24c-1.208-1.102-2.021-2.447-2.3-4.056
		c-0.225-1.299-0.02-2.549,0.798-3.647c0.707-0.949,1.681-1.506,2.765-1.887c1.104-0.388,2.245-0.58,3.422-0.591
		c1.24-0.011,2.456,0.096,3.638,0.487c0.996,0.33,1.838,0.854,2.459,1.735c0.585,0.831,0.912,1.75,1.081,2.734
		C27.108,13.674,27.069,13.954,27.069,14.227z M19.964,30.741c0.177,0,0.354,0.013,0.529-0.004c0.158-0.015,0.314-0.057,0.468-0.097
		c1.666-0.432,2.908-1.842,2.703-3.64c-0.112-0.979-0.6-1.723-1.359-2.271c-1.168-0.843-2.475-0.983-3.816-0.48
		c-1.275,0.478-2.528,1.802-2.217,3.648c0.115,0.683,0.424,1.285,0.914,1.752C17.955,30.378,18.888,30.761,19.964,30.741z
		 M19.979,17.175c-0.677,0.047-1.371,0-2.062-0.178c-1.038-0.267-2.012-0.636-2.737-1.474c-0.212-0.245-0.485-0.463-0.318-0.869
		c0.068-0.167-0.121-0.435-0.283-0.432c-0.125,0.003-0.285,0.075-0.363,0.17c-0.12,0.147-0.1,0.331,0.048,0.476
		c0.034,0.034,0.077,0.058,0.11,0.093c0.074,0.08,0.165,0.154,0.212,0.249c0.276,0.548,0.721,0.929,1.221,1.255
		c1.087,0.708,2.321,0.955,3.581,1.048c0.648,0.048,1.308-0.032,1.961-0.085c0.98-0.078,1.909-0.354,2.774-0.821
		c0.539-0.29,1.019-0.657,1.352-1.186c0.168-0.266,0.327-0.538,0.492-0.806c0.122-0.199,0.102-0.361-0.064-0.514
		c-0.137-0.126-0.298-0.137-0.442-0.042c-0.169,0.112-0.294,0.266-0.153,0.484c0.167,0.257,0.068,0.468-0.078,0.699
		c-0.493,0.777-1.267,1.154-2.078,1.461C22.143,17.087,21.092,17.254,19.979,17.175z M21.895,15c-1.292,0-2.558,0-3.81,0
		c-0.17,0.292,0.041,0.434,0.171,0.607c0.351,0.465,0.822,0.755,1.384,0.85C20.78,16.648,21.85,15.75,21.895,15z M23.923,12.312
		c0.012-0.201-0.239-0.476-0.447-0.488c-0.23-0.014-0.52,0.239-0.527,0.46c-0.006,0.183,0.258,0.475,0.45,0.498
		C23.602,12.807,23.91,12.53,23.923,12.312z M17.769,11.878c0.008-0.254-0.185-0.463-0.431-0.467
		c-0.179-0.003-0.44,0.24-0.454,0.424c-0.019,0.247,0.219,0.485,0.48,0.479C17.592,12.31,17.762,12.127,17.769,11.878z"/>
	<linearGradient id="SVGID_3_" gradientUnits="userSpaceOnUse" x1="8.5183" y1="10.0302" x2="14.6643" y2="10.0302">
		<stop  offset="0" style="stop-color:#735233"/>
		<stop  offset="1" style="stop-color:#FFB572"/>
	</linearGradient>
	<path fill="url(#SVGID_3_)" d="M14.664,9.531c-0.333,0.321-0.668,0.596-0.944,0.922c-0.356,0.42-0.853,0.551-1.327,0.731
		c-0.838,0.319-1.716,0.356-2.6,0.309c-0.363-0.019-0.945-0.266-1.276-0.531c0.347-0.728,0.662-1.47,1.386-1.95
		c0.578-0.384,1.207-0.525,1.869-0.436C12.79,8.714,13.749,9.06,14.664,9.531z"/>
	<linearGradient id="SVGID_4_" gradientUnits="userSpaceOnUse" x1="25.8813" y1="11.1679" x2="31.5453" y2="11.1679">
		<stop  offset="0" style="stop-color:#735233"/>
		<stop  offset="1" style="stop-color:#FFB572"/>
	</linearGradient>
	<path fill="url(#SVGID_4_)" d="M31.545,12.578c-1.219,0.336-2.267,0.117-3.32-0.369c-1.046-0.483-1.819-1.201-2.344-2.283
		c0.517-0.097,1.037-0.24,1.564-0.28c0.666-0.05,1.345-0.112,2.004,0.09c0.838,0.256,1.392,0.817,1.696,1.626
		C31.289,11.743,31.402,12.138,31.545,12.578z"/>
	<linearGradient id="SVGID_5_" gradientUnits="userSpaceOnUse" x1="14.7744" y1="32.8987" x2="16.9009" y2="32.8987">
		<stop  offset="0" style="stop-color:#735233"/>
		<stop  offset="1" style="stop-color:#FFB572"/>
	</linearGradient>
	<path fill="url(#SVGID_5_)" d="M16.256,30.313c0.225,0.127,0.445,0.251,0.644,0.364c-0.176,1.612-0.349,3.201-0.523,4.806
		c-0.523-0.032-1.041-0.063-1.603-0.097C15.426,33.724,15.909,32.048,16.256,30.313z"/>
	<linearGradient id="SVGID_6_" gradientUnits="userSpaceOnUse" x1="22.9497" y1="32.832" x2="24.9494" y2="32.832">
		<stop  offset="0" style="stop-color:#735233"/>
		<stop  offset="1" style="stop-color:#FFB572"/>
	</linearGradient>
	<path fill="url(#SVGID_6_)" d="M22.95,30.766c0.192-0.109,0.4-0.226,0.595-0.336c0.467,1.56,0.933,3.12,1.405,4.696
		c-0.478,0.17-1.002,0.093-1.526,0.083C23.264,33.717,23.108,32.251,22.95,30.766z"/>
	<linearGradient id="SVGID_7_" gradientUnits="userSpaceOnUse" x1="23.2871" y1="21.9669" x2="27.9583" y2="21.9669">
		<stop  offset="0" style="stop-color:#735233"/>
		<stop  offset="1" style="stop-color:#FFB572"/>
	</linearGradient>
	<path fill="url(#SVGID_7_)" d="M27.829,20.959c0.221,0.462,0.068,0.965,0.129,1.485c-0.249,0.05-0.477,0.11-0.71,0.139
		c-1.055,0.133-2.112,0.256-3.168,0.386c-0.189,0.023-0.349-0.012-0.47-0.169c-0.106-0.139-0.214-0.276-0.324-0.418
		C24.8,21.907,26.291,21.44,27.829,20.959z"/>
	<linearGradient id="SVGID_8_" gradientUnits="userSpaceOnUse" x1="11.0381" y1="24.6489" x2="15.1762" y2="24.6489">
		<stop  offset="0" style="stop-color:#735233"/>
		<stop  offset="1" style="stop-color:#FFB572"/>
	</linearGradient>
	<path fill="url(#SVGID_8_)" d="M11.841,25.949c-0.269-0.454-0.527-0.891-0.803-1.357c1.404-0.422,2.767-0.832,4.136-1.244
		c0,0.043,0.006,0.073-0.001,0.099c-0.251,0.975-1.103,1.286-1.87,1.695C12.824,25.398,12.352,25.667,11.841,25.949z"/>
	<linearGradient id="SVGID_9_" gradientUnits="userSpaceOnUse" x1="25.1857" y1="27.9218" x2="27.5642" y2="27.9218">
		<stop  offset="0" style="stop-color:#735233"/>
		<stop  offset="1" style="stop-color:#FFB572"/>
	</linearGradient>
	<path fill="url(#SVGID_9_)" d="M26.409,27.459c0.446,0.163,0.772,0.282,1.156,0.422c-0.324,0.162-0.598,0.3-0.912,0.457
		c0.142,0.265,0.261,0.486,0.409,0.763c-0.335-0.09-0.643-0.167-0.948-0.255c-0.319-0.092-0.635-0.195-0.927-0.286
		c0.087-0.447,0.169-0.867,0.267-1.368c0.509-0.202,1.12-0.268,1.796-0.448C26.947,27,26.717,27.196,26.409,27.459z"/>
	<path d="M19.964,30.741c-1.076,0.02-2.01-0.363-2.776-1.092c-0.49-0.466-0.799-1.069-0.914-1.752
		c-0.311-1.846,0.942-3.17,2.217-3.648c1.341-0.503,2.648-0.363,3.816,0.48c0.759,0.548,1.247,1.291,1.359,2.271
		c0.205,1.799-1.037,3.209-2.703,3.64c-0.154,0.04-0.31,0.082-0.468,0.097C20.319,30.754,20.141,30.741,19.964,30.741z
		 M20.049,30.425c0.813,0.052,1.628-0.278,2.336-0.872c0.852-0.715,1.269-1.946,0.886-3.032c-0.483-1.366-1.639-2.109-3.019-2.231
		c-1.086-0.096-2.033,0.267-2.834,1.03c-1.162,1.108-1.184,2.879-0.077,4.031C18.037,30.077,18.912,30.423,20.049,30.425z"/>
	<path d="M19.979,17.175c1.112,0.079,2.164-0.088,3.174-0.47c0.811-0.307,1.586-0.684,2.078-1.461
		c0.146-0.231,0.244-0.442,0.078-0.699c-0.141-0.218-0.016-0.373,0.153-0.484c0.144-0.095,0.304-0.084,0.442,0.042
		c0.166,0.152,0.186,0.314,0.064,0.514c-0.164,0.268-0.324,0.54-0.492,0.806c-0.333,0.529-0.813,0.896-1.352,1.186
		c-0.866,0.467-1.794,0.742-2.774,0.821c-0.652,0.052-1.312,0.132-1.961,0.085c-1.26-0.093-2.493-0.34-3.581-1.048
		c-0.5-0.326-0.946-0.707-1.221-1.255c-0.048-0.095-0.138-0.168-0.212-0.249c-0.032-0.035-0.075-0.06-0.11-0.093
		c-0.148-0.145-0.168-0.329-0.048-0.476c0.078-0.095,0.238-0.167,0.363-0.17c0.162-0.004,0.352,0.265,0.283,0.432
		c-0.166,0.406,0.106,0.624,0.318,0.869c0.724,0.838,1.699,1.207,2.737,1.474C18.608,17.175,19.302,17.223,19.979,17.175z"/>
	<path d="M21.895,15c-0.045,0.75-1.115,1.648-2.254,1.456c-0.562-0.095-1.033-0.385-1.384-0.85c-0.13-0.172-0.341-0.314-0.171-0.607
		C19.337,15,20.602,15,21.895,15z M18.391,15.322c1.073,1.325,2.569,0.92,3.028,0C20.42,15.322,19.427,15.322,18.391,15.322z"/>
	<path d="M23.923,12.312c-0.013,0.218-0.321,0.494-0.524,0.47c-0.192-0.023-0.456-0.315-0.45-0.498
		c0.007-0.221,0.297-0.474,0.527-0.46C23.683,11.837,23.935,12.111,23.923,12.312z"/>
	<path d="M17.769,11.878c-0.008,0.249-0.177,0.432-0.405,0.436c-0.262,0.005-0.499-0.232-0.48-0.479
		c0.014-0.184,0.275-0.428,0.454-0.424C17.584,11.415,17.777,11.624,17.769,11.878z"/>
	<linearGradient id="SVGID_10_" gradientUnits="userSpaceOnUse" x1="16.5275" y1="27.3532" x2="23.4136" y2="27.3532">
		<stop  offset="0" style="stop-color:#FFFFFF"/>
		<stop  offset="1" style="stop-color:#BF6386"/>
	</linearGradient>
	<path fill="url(#SVGID_10_)" d="M20.049,30.425c-1.137-0.002-2.012-0.348-2.709-1.074c-1.106-1.152-1.085-2.924,0.077-4.031
		c0.801-0.763,1.747-1.125,2.834-1.03c1.38,0.121,2.537,0.865,3.019,2.231c0.383,1.086-0.034,2.317-0.886,3.032
		C21.676,30.147,20.862,30.477,20.049,30.425z M20.329,28.563c-0.038,0.35,0.337,0.784,0.715,0.828
		c0.454,0.053,0.922-0.311,0.955-0.74c0.028-0.372-0.356-0.795-0.768-0.846C20.834,27.756,20.374,28.142,20.329,28.563z
		 M21.192,25.388c-0.455,0.011-0.775,0.345-0.77,0.804c0.004,0.452,0.351,0.796,0.794,0.787c0.473-0.01,0.818-0.372,0.8-0.838
		C21.997,25.692,21.653,25.377,21.192,25.388z M18.712,26.985c0.452-0.003,0.788-0.308,0.794-0.719
		c0.007-0.468-0.335-0.808-0.816-0.814c-0.462-0.005-0.777,0.312-0.778,0.781C17.912,26.682,18.238,26.989,18.712,26.985z
		 M18.712,27.778c-0.409-0.007-0.776,0.327-0.796,0.724c-0.023,0.442,0.329,0.786,0.819,0.801c0.498,0.016,0.785-0.254,0.79-0.741
		C19.529,28.061,19.245,27.787,18.712,27.778z"/>
	<path fill="#FF84B3" d="M18.391,15.322c1.036,0,2.029,0,3.028,0C20.96,16.242,19.464,16.647,18.391,15.322z"/>
	<path d="M20.329,28.563c0.046-0.421,0.505-0.807,0.902-0.758c0.412,0.051,0.796,0.474,0.768,0.846
		c-0.032,0.429-0.501,0.792-0.955,0.74C20.666,29.347,20.291,28.913,20.329,28.563z M21.162,29.051
		c0.284,0.008,0.49-0.153,0.503-0.392c0.014-0.261-0.245-0.518-0.52-0.515c-0.213,0.002-0.465,0.241-0.476,0.45
		C20.656,28.861,20.85,29.042,21.162,29.051z"/>
	<path d="M21.192,25.388c0.461-0.011,0.805,0.304,0.823,0.753c0.019,0.466-0.327,0.828-0.8,0.838
		c-0.443,0.009-0.789-0.335-0.794-0.787C20.417,25.733,20.737,25.398,21.192,25.388z M21.673,26.143
		c-0.009-0.283-0.164-0.42-0.469-0.414c-0.314,0.006-0.46,0.165-0.445,0.487c0.013,0.301,0.158,0.434,0.46,0.423
		C21.52,26.628,21.683,26.45,21.673,26.143z"/>
	<path d="M18.712,26.985c-0.474,0.004-0.8-0.303-0.8-0.752c0.001-0.469,0.316-0.786,0.778-0.781
		c0.481,0.005,0.823,0.346,0.816,0.814C19.5,26.678,19.164,26.982,18.712,26.985z M19.165,26.236
		c0.001-0.251-0.239-0.507-0.473-0.503c-0.226,0.004-0.503,0.28-0.499,0.498c0.003,0.187,0.332,0.491,0.529,0.489
		C18.918,26.719,19.164,26.449,19.165,26.236z"/>
	<path d="M18.712,27.778c0.534,0.009,0.818,0.284,0.813,0.785c-0.005,0.487-0.292,0.756-0.79,0.741
		c-0.49-0.015-0.842-0.359-0.819-0.801C17.936,28.105,18.303,27.771,18.712,27.778z M19.252,28.528
		c-0.014-0.223-0.309-0.492-0.52-0.473c-0.251,0.022-0.492,0.281-0.474,0.509c0.02,0.243,0.287,0.492,0.513,0.479
		C18.997,29.03,19.265,28.742,19.252,28.528z"/>
	<path fill="#FF84B3" d="M21.162,29.051c-0.312-0.009-0.506-0.19-0.493-0.458c0.01-0.209,0.263-0.448,0.476-0.45
		c0.274-0.002,0.533,0.254,0.52,0.515C21.652,28.898,21.445,29.059,21.162,29.051z"/>
	<path fill="#FF84B3" d="M21.673,26.143c0.01,0.307-0.152,0.485-0.454,0.495c-0.303,0.011-0.447-0.122-0.46-0.423
		c-0.014-0.322,0.131-0.481,0.445-0.487C21.509,25.723,21.663,25.86,21.673,26.143z"/>
	<path fill="#FF84B3" d="M19.165,26.236c-0.001,0.213-0.247,0.483-0.442,0.484c-0.197,0.001-0.526-0.303-0.529-0.489
		c-0.004-0.218,0.273-0.494,0.499-0.498C18.926,25.729,19.166,25.984,19.165,26.236z"/>
	<path fill="#FF84B3" d="M19.252,28.528c0.013,0.213-0.255,0.501-0.48,0.515c-0.226,0.013-0.494-0.236-0.513-0.479
		c-0.019-0.228,0.222-0.487,0.474-0.509C18.943,28.037,19.238,28.305,19.252,28.528z"/>
</g>
</svg>
