<?xml version="1.0" encoding="iso-8859-1"?>
<!-- Generator: Adobe Illustrator 17.0.2, SVG Export Plug-In . SVG Version: 6.00 Build 0)  -->
<!DOCTYPE svg PUBLIC "-//W3C//DTD SVG 1.1//EN" "http://www.w3.org/Graphics/SVG/1.1/DTD/svg11.dtd">
<svg version="1.1" id="Layer_1" xmlns="http://www.w3.org/2000/svg" xmlns:xlink="http://www.w3.org/1999/xlink" x="0px" y="0px"
	 width="40px" height="40px" viewBox="0 0 40 40" style="enable-background:new 0 0 40 40;" xml:space="preserve">
<radialGradient id="SVGID_1_" cx="20" cy="20" r="20" gradientUnits="userSpaceOnUse">
	<stop  offset="0" style="stop-color:#FFFFFF"/>
	<stop  offset="1" style="stop-color:#FF8700"/>
</radialGradient>
<circle style="fill:url(#SVGID_1_);" cx="20" cy="20" r="20"/>
<path d="M26.815,28.028c0.106,0.618,0.359,1.08,1.042,1.198c0.05-0.254,0.076-0.501,0.15-0.732c0.121-0.38,0.352-0.649,0.771-0.603
	c0.376,0.041,0.602,0.356,0.399,0.688c-0.156,0.256-0.411,0.454-0.634,0.665c-0.089,0.084-0.208,0.136-0.327,0.212
	c0.496,0.652,1.026,0.24,1.588,0.036c-0.019,0.103-0.012,0.188-0.04,0.203c-0.275,0.138-0.546,0.305-0.839,0.383
	c-0.338,0.09-0.742-0.199-0.957-0.623c-0.829,0.03-1.179-0.535-1.417-1.225c-0.476,0.246-0.941,0.486-1.427,0.737
	c0.128,0.903,0.242,1.826,0.245,2.76c0.001,0.197,0.066,0.397,0.119,0.591c0.139,0.508,0.29,1.012,0.428,1.52
	c0.018,0.066-0.013,0.145-0.023,0.233c-0.36-0.127-0.694-0.243-1.056-0.371c-0.239,0.3-0.488,0.614-0.755,0.949
	c-0.331-0.623-0.61-1.221-0.738-1.885c-0.061-0.317-0.204-0.618-0.312-0.926c-0.226-0.644-0.435-1.292-0.532-1.971
	c-0.031-0.212-0.121-0.263-0.323-0.227c-0.167,0.029-0.335,0.059-0.504,0.072c-0.468,0.037-0.938,0.102-1.405,0.087
	c-0.51-0.016-1.017-0.118-1.527-0.166c-0.233-0.022-0.469-0.004-0.709-0.004c-0.177,0.702-0.35,1.389-0.523,2.076
	c-0.139,0.555-0.254,1.117-0.422,1.663c-0.132,0.427-0.328,0.835-0.502,1.267c-0.303-0.061-0.351-0.379-0.536-0.556
	c-0.3-0.287-0.278-0.314-0.655-0.182c-0.229,0.08-0.453,0.173-0.727,0.279c0.128-0.616,0.249-1.184,0.364-1.754
	c0.037-0.181,0.079-0.366,0.082-0.549c0.011-0.737-0.021-1.476,0.098-2.209c0.05-0.305,0.084-0.613,0.123-0.898
	c-1.067-0.505-2.006-1.088-2.817-1.883c-0.844-0.828-1.554-1.744-2.058-2.814c-0.431-0.915-0.724-1.866-0.855-2.881
	c-0.073-0.567-0.101-1.13-0.064-1.688c0.07-1.058,0.326-2.08,0.783-3.047c0.452-0.959,1.044-1.816,1.85-2.509
	c0.876-0.753,1.452-1.706,1.909-2.746c0.031-0.07,0.064-0.141,0.084-0.215c0.011-0.043-0.002-0.093-0.005-0.157
	c-0.979-0.482-1.77-1.164-2.065-2.265c-0.292-1.088-0.033-2.083,0.635-3.031c0.229,0.473,0.608,0.745,1.059,0.897
	c0.35,0.118,0.718,0.186,1.083,0.25c0.458,0.081,0.934,0.087,1.378,0.213c0.452,0.128,0.94,0.253,1.227,0.744
	c0.999-0.334,2.039-0.469,3.098-0.481c1.051-0.012,2.076,0.129,3.109,0.463c0.09-0.399,0.235-0.778,0.533-1.089
	c0.421-0.439,0.921-0.712,1.5-0.901c0.947-0.31,1.914-0.279,2.883-0.263c0.197,0.003,0.393,0.082,0.616,0.132
	c-0.564,0.669-0.695,1.489-0.834,2.316c-0.102,0.608-0.239,1.217-0.433,1.802c-0.114,0.344-0.367,0.641-0.573,0.986
	c0.181,0.341,0.387,0.722,0.587,1.106c0.553,1.063,0.883,2.212,1.277,3.336c0.195,0.555,0.401,1.106,0.603,1.658
	c0.235,0.644,0.362,1.312,0.442,1.991c0.062,0.526,0.134,1.05,0.181,1.577c0.018,0.2-0.022,0.405-0.04,0.607
	c-0.011,0.124-0.042,0.247-0.045,0.371c-0.016,0.782-0.16,1.541-0.383,2.288c-0.264,0.883-0.646,1.707-1.164,2.474
	C28.297,26.807,27.619,27.461,26.815,28.028z M28.309,22.461c0.552,0.095,1.077,0.186,1.657,0.286
	c0.073-0.57,0.18-1.104,0.201-1.641c0.025-0.657,0.009-1.314-0.068-1.974c-0.071-0.605-0.161-1.203-0.329-1.783
	c-0.18-0.623-0.423-1.227-0.639-1.84c-0.282-0.801-0.545-1.61-0.851-2.403c-0.512-1.327-1.112-2.601-2.158-3.62
	c-0.482-0.47-0.978-0.897-1.581-1.201c-1.103-0.557-2.258-0.874-3.502-0.831c-0.252,0.009-0.506,0.013-0.757-0.001
	c-0.773-0.043-1.527,0.083-2.263,0.293c-0.834,0.238-1.592,0.614-2.217,1.25c-0.522,0.532-0.899,1.151-1.239,1.799
	c-0.29,0.551-0.55,1.118-0.842,1.668c-0.242,0.455-0.535,0.877-0.917,1.231c-0.356,0.33-0.737,0.638-1.056,1.001
	c-0.567,0.647-0.987,1.395-1.33,2.181c-0.323,0.744-0.537,1.523-0.581,2.334c-0.032,0.582-0.022,1.168,0,1.751
	c0.012,0.333,0.086,0.664,0.135,1.022c0.577-0.101,1.105-0.193,1.654-0.289c-0.021-0.155-0.026-0.28-0.055-0.399
	c-0.137-0.564-0.033-1.118,0.069-1.671c0.012-0.065,0.125-0.111,0.268-0.228c-0.015,0.208-0.015,0.326-0.032,0.442
	c-0.08,0.544-0.121,1.086,0.032,1.626c0.182,0.641,0.367,1.281,0.54,1.925c0.029,0.106,0.004,0.226,0.004,0.358
	c-0.381-0.135-0.715-0.253-1.096-0.389c-0.199,0.277-0.404,0.562-0.604,0.839c0.076,0.093,0.123,0.137,0.154,0.191
	c0.572,0.989,1.274,1.861,2.136,2.625c0.83,0.736,1.781,1.273,2.769,1.703c1.213,0.528,2.518,0.808,3.861,0.786
	c0.705-0.011,1.408,0.006,2.117-0.072c0.713-0.079,1.423-0.164,2.109-0.353c1.332-0.367,2.554-0.956,3.577-1.921
	c0.63-0.594,1.18-1.241,1.598-2.001c0.082-0.149,0.06-0.27-0.027-0.394c-0.151-0.214-0.306-0.424-0.469-0.649
	c-0.366,0.131-0.726,0.261-1.113,0.4c-0.012-0.096-0.038-0.16-0.023-0.213c0.164-0.596,0.342-1.188,0.499-1.785
	c0.12-0.458,0.279-0.909,0.161-1.405c-0.066-0.278-0.053-0.574-0.079-0.907c0.097,0.047,0.177,0.058,0.197,0.098
	C28.552,21.001,28.367,21.731,28.309,22.461z M28.735,5.655c-0.786,0.037-1.538-0.066-2.288,0.09
	c-0.65,0.135-1.269,0.318-1.794,0.743c-0.285,0.23-0.473,0.53-0.602,0.861c-0.089,0.23-0.014,0.376,0.18,0.463
	c0.978,0.44,1.837,1.036,2.5,1.892c0.148,0.191,0.31,0.372,0.47,0.563c0.369-0.302,0.492-0.715,0.598-1.111
	c0.164-0.613,0.26-1.243,0.389-1.866C28.303,6.735,28.382,6.167,28.735,5.655z M14.35,10.575c0.616-1.299,1.52-2.296,2.954-2.911
	c-0.437-0.197-0.752-0.385-1.094-0.48c-0.4-0.111-0.823-0.134-1.235-0.205c-0.335-0.058-0.689-0.08-0.997-0.207
	c-0.446-0.184-0.859-0.448-1.258-0.663c-0.478,0.475-0.396,1.095-0.446,1.7c-0.054,0.657,0.265,1.17,0.595,1.646
	C13.211,9.948,13.697,10.336,14.35,10.575z M17.002,32.634c0.271-1.029,0.63-2.021,0.732-3.096c-0.796-0.024-1.454-0.45-2.203-0.674
	c-0.052,1.198-0.299,2.363-0.174,3.576c0.301,0,0.57-0.023,0.833,0.007C16.436,32.474,16.677,32.556,17.002,32.634z M22.722,29.667
	c0.277,1.327,0.629,2.437,0.913,2.873c0.504-0.107,1.013-0.215,1.563-0.332c-0.209-1.06-0.064-2.111-0.353-3.085
	C24.135,29.305,23.446,29.481,22.722,29.667z M29.799,23.018c-0.561-0.096-1.073-0.183-1.618-0.277
	c-0.125,0.451-0.241,0.872-0.368,1.331c0.327-0.117,0.586-0.209,0.871-0.31c0.21,0.273,0.408,0.529,0.582,0.755
	c0.11-0.229,0.243-0.455,0.33-0.698C29.685,23.571,29.728,23.309,29.799,23.018z M11.75,22.003c-0.561,0.087-1.09,0.169-1.622,0.252
	c0.008,0.029,0.094,0.32,0.094,0.32c0.075,0.417,0.183,0.818,0.462,1.159c0.294-0.205,0.263-0.642,0.617-0.721
	c0.261,0.106,0.505,0.205,0.822,0.334C11.997,22.892,11.884,22.485,11.75,22.003z M15.841,33.462
	c0.214,0.281,0.43,0.564,0.665,0.872c0.168-0.518,0.32-0.986,0.487-1.504c-0.571-0.075-1.134-0.149-1.715-0.225
	c-0.123,0.446-0.23,0.835-0.358,1.301C15.268,33.738,15.53,33.612,15.841,33.462z M25.297,32.526c-0.511,0.085-1,0.158-1.485,0.252
	c-0.151,0.029-0.187,0.181-0.144,0.306c0.125,0.359,0.27,0.711,0.44,1.148c0.141-0.189,0.231-0.308,0.319-0.429
	c0.257-0.353,0.429-0.397,0.841-0.226c0.104,0.043,0.215,0.067,0.367,0.114C25.516,33.28,25.418,32.942,25.297,32.526z
	 M29.017,28.325c-0.334-0.318-0.464-0.302-0.658,0.034c-0.138,0.239-0.209,0.478-0.111,0.762
	C28.634,28.976,28.845,28.682,29.017,28.325z"/>
<linearGradient id="SVGID_2_" gradientUnits="userSpaceOnUse" x1="9.8174" y1="18.4742" x2="30.1777" y2="18.4742">
	<stop  offset="0" style="stop-color:#FF96AC"/>
	<stop  offset="1" style="stop-color:#AC3281"/>
</linearGradient>
<path style="fill:url(#SVGID_2_);" d="M28.309,22.461c0.058-0.73,0.243-1.46-0.091-2.16c-0.019-0.04-0.1-0.052-0.197-0.098
	c0.026,0.333,0.013,0.629,0.079,0.907c0.118,0.495-0.041,0.947-0.161,1.405c-0.156,0.598-0.335,1.189-0.499,1.785
	c-0.015,0.053,0.011,0.117,0.023,0.213c0.387-0.139,0.747-0.268,1.113-0.4c0.163,0.225,0.318,0.435,0.469,0.649
	c0.087,0.123,0.109,0.244,0.027,0.394c-0.417,0.76-0.968,1.407-1.598,2.001c-1.023,0.965-2.245,1.554-3.577,1.921
	c-0.685,0.189-1.396,0.274-2.109,0.353c-0.709,0.078-1.411,0.061-2.117,0.072c-1.343,0.021-2.648-0.258-3.861-0.786
	c-0.988-0.43-1.939-0.967-2.769-1.703c-0.862-0.764-1.564-1.636-2.136-2.625c-0.031-0.054-0.078-0.098-0.154-0.191
	c0.199-0.277,0.405-0.562,0.604-0.839c0.381,0.135,0.715,0.253,1.096,0.389c0-0.132,0.024-0.253-0.004-0.358
	c-0.173-0.643-0.358-1.284-0.54-1.925c-0.153-0.539-0.112-1.082-0.032-1.626c0.017-0.116,0.018-0.234,0.032-0.442
	c-0.142,0.117-0.256,0.163-0.268,0.228c-0.102,0.552-0.207,1.107-0.069,1.671c0.029,0.119,0.034,0.244,0.055,0.399
	c-0.549,0.096-1.077,0.188-1.654,0.289c-0.049-0.357-0.123-0.688-0.135-1.022c-0.022-0.583-0.031-1.169,0-1.751
	c0.044-0.811,0.258-1.591,0.581-2.334c0.342-0.787,0.762-1.535,1.33-2.181c0.318-0.363,0.7-0.671,1.056-1.001
	c0.382-0.354,0.675-0.776,0.917-1.231c0.293-0.55,0.553-1.117,0.842-1.668c0.341-0.648,0.717-1.268,1.239-1.799
	c0.625-0.636,1.383-1.011,2.217-1.25c0.736-0.21,1.489-0.337,2.263-0.293c0.252,0.014,0.505,0.01,0.757,0.001
	c1.244-0.042,2.399,0.274,3.502,0.831c0.603,0.305,1.099,0.731,1.581,1.201c1.046,1.02,1.646,2.293,2.158,3.62
	c0.306,0.792,0.568,1.601,0.851,2.403c0.216,0.613,0.458,1.217,0.639,1.84c0.168,0.58,0.258,1.177,0.329,1.783
	c0.077,0.66,0.093,1.317,0.068,1.974c-0.021,0.537-0.127,1.071-0.201,1.641C29.387,22.647,28.862,22.556,28.309,22.461z
	 M20.086,19.884c0.455-0.06,1.031-0.106,1.594-0.22c0.596-0.12,1.172-0.362,1.628-0.756c0.869-0.752,1.291-1.686,1.021-2.879
	c-0.243-1.073-0.768-1.932-1.685-2.544c-0.669-0.446-1.433-0.589-2.21-0.639c-0.417-0.027-0.846,0.02-1.26,0.09
	c-1.001,0.171-1.881,0.569-2.557,1.376c-0.496,0.591-0.733,1.255-0.737,2.01c-0.001,0.246,0.056,0.493,0.09,0.739
	c0.136,0.996,0.664,1.727,1.52,2.232C18.254,19.744,19.111,19.804,20.086,19.884z M14.373,18.035
	c0.054-0.063,0.106-0.105,0.133-0.16c0.104-0.211,0.019-0.417-0.208-0.523c-0.183-0.085-0.392,0.015-0.462,0.234
	c-0.061,0.188,0.058,0.317,0.174,0.442c0.081,0.088,0.186,0.165,0.235,0.268c0.396,0.84,1.09,1.32,1.916,1.678
	c0.631,0.273,1.273,0.458,1.948,0.594c0.708,0.142,1.426,0.112,2.132,0.231c0.188,0.032,0.396-0.071,0.596-0.081
	c0.437-0.022,0.87-0.018,1.309-0.085c0.928-0.141,1.821-0.381,2.665-0.781c0.614-0.291,1.143-0.702,1.518-1.289
	c0.178-0.279,0.2-0.648,0.518-0.857c0.058-0.038,0.043-0.296-0.025-0.389c-0.063-0.086-0.244-0.125-0.369-0.118
	c-0.233,0.013-0.347,0.211-0.228,0.506c0.115,0.284,0.018,0.471-0.126,0.687c-0.337,0.505-0.773,0.892-1.312,1.169
	c-1.255,0.645-2.619,0.842-3.999,0.94c-0.796,0.056-1.587-0.054-2.379-0.168c-0.808-0.116-1.582-0.328-2.308-0.682
	C15.38,19.3,14.74,18.835,14.373,18.035z M23.185,11.263c-0.008-0.27-0.172-0.421-0.45-0.415c-0.247,0.006-0.423,0.174-0.417,0.4
	c0.008,0.292,0.189,0.479,0.457,0.469C23.043,11.707,23.194,11.541,23.185,11.263z M17.58,11.078
	c-0.006,0.253,0.143,0.433,0.37,0.448c0.187,0.012,0.46-0.237,0.478-0.436c0.018-0.201-0.217-0.425-0.45-0.43
	C17.754,10.655,17.586,10.831,17.58,11.078z M19.392,26.811c-0.005,0.216-0.089,0.452,0.195,0.521
	c0.144,0.035,0.328,0.064,0.426-0.104c0.085-0.146,0.063-0.287-0.055-0.428C19.772,26.58,19.603,26.687,19.392,26.811z"/>
<linearGradient id="SVGID_3_" gradientUnits="userSpaceOnUse" x1="24.0137" y1="7.9612" x2="28.7353" y2="7.9612">
	<stop  offset="0" style="stop-color:#FF96AC"/>
	<stop  offset="1" style="stop-color:#AC3281"/>
</linearGradient>
<path style="fill:url(#SVGID_3_);" d="M28.735,5.655c-0.353,0.513-0.432,1.08-0.547,1.636c-0.129,0.622-0.225,1.253-0.389,1.866
	c-0.106,0.396-0.229,0.809-0.598,1.111c-0.16-0.191-0.322-0.371-0.47-0.563c-0.663-0.857-1.522-1.453-2.5-1.892
	c-0.194-0.087-0.269-0.234-0.18-0.463c0.128-0.332,0.317-0.631,0.602-0.861c0.526-0.425,1.145-0.608,1.794-0.743
	C27.197,5.588,27.949,5.692,28.735,5.655z"/>
<linearGradient id="SVGID_4_" gradientUnits="userSpaceOnUse" x1="12.2684" y1="8.3423" x2="17.3036" y2="8.3423">
	<stop  offset="0" style="stop-color:#FF96AC"/>
	<stop  offset="1" style="stop-color:#AC3281"/>
</linearGradient>
<path style="fill:url(#SVGID_4_);" d="M14.35,10.575c-0.653-0.239-1.139-0.626-1.48-1.119c-0.331-0.476-0.649-0.989-0.595-1.646
	c0.05-0.605-0.032-1.225,0.446-1.7c0.399,0.215,0.812,0.48,1.258,0.663C14.287,6.9,14.64,6.922,14.975,6.98
	c0.412,0.071,0.835,0.094,1.235,0.205c0.341,0.094,0.656,0.283,1.094,0.48C15.87,8.279,14.966,9.276,14.35,10.575z"/>
<linearGradient id="SVGID_5_" gradientUnits="userSpaceOnUse" x1="15.3221" y1="30.7486" x2="17.734" y2="30.7486">
	<stop  offset="0" style="stop-color:#FF96AC"/>
	<stop  offset="1" style="stop-color:#AC3281"/>
</linearGradient>
<path style="fill:url(#SVGID_5_);" d="M17.002,32.634c-0.325-0.078-0.566-0.16-0.812-0.188c-0.263-0.029-0.531-0.007-0.833-0.007
	c-0.124-1.213,0.122-2.378,0.174-3.576c0.749,0.224,1.407,0.65,2.203,0.674C17.632,30.612,17.273,31.605,17.002,32.634z"/>
<linearGradient id="SVGID_6_" gradientUnits="userSpaceOnUse" x1="22.7217" y1="30.8312" x2="25.1981" y2="30.8312">
	<stop  offset="0" style="stop-color:#FF96AC"/>
	<stop  offset="1" style="stop-color:#AC3281"/>
</linearGradient>
<path style="fill:url(#SVGID_6_);" d="M22.722,29.667c0.724-0.186,1.413-0.362,2.123-0.544c0.289,0.973,0.144,2.025,0.353,3.085
	c-0.55,0.117-1.059,0.225-1.563,0.332C23.351,32.103,22.999,30.994,22.722,29.667z"/>
<path style="fill:#BF7119;" d="M29.799,23.018c-0.071,0.291-0.114,0.554-0.202,0.8c-0.087,0.243-0.22,0.47-0.33,0.698
	c-0.174-0.226-0.372-0.482-0.582-0.755c-0.285,0.102-0.543,0.194-0.871,0.31c0.127-0.458,0.243-0.879,0.368-1.331
	C28.727,22.834,29.238,22.922,29.799,23.018z"/>
<path style="fill:#BF7119;" d="M11.75,22.003c0.134,0.482,0.247,0.889,0.374,1.345c-0.318-0.129-0.561-0.228-0.822-0.334
	c-0.355,0.079-0.323,0.516-0.617,0.721c-0.279-0.341-0.387-0.742-0.462-1.159c0,0-0.086-0.292-0.094-0.32
	C10.66,22.172,11.189,22.09,11.75,22.003z"/>
<path style="fill:#BF7119;" d="M15.841,33.462c-0.311,0.149-0.573,0.275-0.922,0.443c0.128-0.466,0.236-0.855,0.358-1.301
	c0.582,0.076,1.145,0.15,1.715,0.225c-0.168,0.518-0.32,0.986-0.487,1.504C16.27,34.026,16.055,33.744,15.841,33.462z"/>
<path style="fill:#BF7119;" d="M25.297,32.526c0.121,0.416,0.218,0.754,0.337,1.165c-0.152-0.047-0.263-0.071-0.367-0.114
	c-0.412-0.171-0.584-0.126-0.841,0.226c-0.088,0.121-0.178,0.24-0.319,0.429c-0.169-0.437-0.315-0.789-0.44-1.148
	c-0.043-0.125-0.007-0.277,0.144-0.306C24.297,32.684,24.786,32.611,25.297,32.526z"/>
<path d="M20.086,19.884c-0.976-0.08-1.832-0.14-2.597-0.591c-0.856-0.505-1.384-1.236-1.52-2.232
	c-0.034-0.246-0.091-0.493-0.09-0.739c0.003-0.755,0.241-1.419,0.737-2.01c0.676-0.806,1.556-1.205,2.557-1.376
	c0.414-0.071,0.843-0.118,1.26-0.09c0.777,0.05,1.542,0.193,2.21,0.639c0.917,0.612,1.442,1.471,1.685,2.544
	c0.27,1.193-0.153,2.127-1.021,2.879c-0.456,0.394-1.032,0.636-1.628,0.756C21.118,19.778,20.541,19.824,20.086,19.884z M20,19.6
	c0.45-0.045,0.904-0.063,1.349-0.14c0.898-0.155,1.692-0.533,2.272-1.258c0.271-0.339,0.46-0.739,0.493-1.186
	c0.044-0.585-0.036-1.15-0.282-1.689c-0.209-0.457-0.43-0.908-0.812-1.246c-0.639-0.565-1.414-0.857-2.243-0.931
	c-1.036-0.092-2.039,0.032-2.996,0.54c-0.756,0.401-1.238,0.981-1.502,1.758c-0.211,0.624-0.128,1.264,0.017,1.893
	c0.231,0.998,0.883,1.595,1.821,1.939C18.728,19.505,19.347,19.62,20,19.6z"/>
<path d="M14.373,18.035c0.367,0.799,1.007,1.264,1.727,1.616c0.727,0.354,1.5,0.566,2.308,0.682
	c0.792,0.114,1.583,0.224,2.379,0.168c1.38-0.098,2.744-0.295,3.999-0.94c0.539-0.277,0.975-0.664,1.312-1.169
	c0.144-0.216,0.241-0.403,0.126-0.687c-0.119-0.294-0.005-0.493,0.228-0.506c0.125-0.007,0.306,0.032,0.369,0.118
	c0.068,0.093,0.084,0.35,0.025,0.389c-0.318,0.209-0.339,0.578-0.518,0.857c-0.375,0.587-0.904,0.998-1.518,1.289
	c-0.844,0.401-1.737,0.64-2.665,0.781c-0.439,0.067-0.872,0.063-1.309,0.085c-0.2,0.01-0.408,0.113-0.596,0.081
	c-0.706-0.12-1.424-0.089-2.132-0.231c-0.675-0.136-1.317-0.321-1.948-0.594c-0.827-0.357-1.52-0.838-1.916-1.678
	c-0.049-0.103-0.154-0.18-0.235-0.268c-0.115-0.125-0.234-0.254-0.174-0.442c0.07-0.219,0.279-0.319,0.462-0.234
	c0.227,0.106,0.312,0.312,0.208,0.523C14.478,17.93,14.426,17.972,14.373,18.035z"/>
<path d="M23.185,11.263c0.009,0.279-0.142,0.444-0.411,0.454c-0.267,0.01-0.449-0.177-0.457-0.469
	c-0.006-0.225,0.17-0.394,0.417-0.4C23.013,10.841,23.177,10.992,23.185,11.263z"/>
<path d="M17.58,11.078c0.006-0.246,0.174-0.423,0.398-0.418c0.233,0.005,0.468,0.23,0.45,0.43c-0.018,0.199-0.291,0.447-0.478,0.436
	C17.724,11.511,17.575,11.331,17.58,11.078z"/>
<path d="M19.392,26.811c0.211-0.124,0.38-0.231,0.565-0.011c0.119,0.141,0.14,0.282,0.055,0.428
	c-0.098,0.168-0.282,0.139-0.426,0.104C19.303,27.264,19.387,27.028,19.392,26.811z"/>
<linearGradient id="SVGID_7_" gradientUnits="userSpaceOnUse" x1="16.1511" y1="16.3625" x2="24.1248" y2="16.3625">
	<stop  offset="0" style="stop-color:#FF96AC"/>
	<stop  offset="1" style="stop-color:#AC3281"/>
</linearGradient>
<path style="fill:url(#SVGID_7_);" d="M20,19.6c-0.653,0.02-1.272-0.095-1.882-0.319c-0.938-0.344-1.59-0.942-1.821-1.939
	c-0.145-0.629-0.228-1.269-0.017-1.893c0.263-0.778,0.745-1.357,1.502-1.758c0.957-0.508,1.96-0.631,2.996-0.54
	c0.829,0.073,1.605,0.365,2.243,0.931c0.382,0.338,0.603,0.789,0.812,1.246c0.247,0.539,0.326,1.104,0.282,1.689
	c-0.034,0.448-0.222,0.847-0.493,1.186c-0.58,0.724-1.374,1.102-2.272,1.258C20.904,19.537,20.449,19.555,20,19.6z M19.303,15.601
	c0.002-0.571-0.367-0.947-0.918-0.938c-0.43,0.008-0.882,0.465-0.898,0.909c-0.017,0.473,0.409,0.874,0.938,0.881
	C18.921,16.459,19.301,16.09,19.303,15.601z M21.653,16.832c0.564,0.001,0.904-0.322,0.926-0.882c0.017-0.44-0.42-0.812-0.923-0.847
	c-0.542-0.038-0.91,0.48-0.945,0.845C20.668,16.416,21.125,16.831,21.653,16.832z"/>
<path d="M19.303,15.601c-0.001,0.49-0.381,0.859-0.878,0.852c-0.529-0.007-0.955-0.408-0.938-0.881
	c0.016-0.444,0.468-0.901,0.898-0.909C18.935,14.654,19.304,15.03,19.303,15.601z M18.445,16.151
	c0.331-0.001,0.659-0.306,0.638-0.594c-0.022-0.307-0.353-0.615-0.655-0.609c-0.31,0.006-0.64,0.335-0.638,0.636
	C17.791,15.926,18.052,16.152,18.445,16.151z"/>
<path d="M21.653,16.832c-0.529-0.001-0.986-0.416-0.941-0.884c0.035-0.365,0.402-0.882,0.945-0.845
	c0.503,0.035,0.94,0.407,0.923,0.847C22.557,16.509,22.218,16.833,21.653,16.832z M21.723,16.53
	c0.336-0.003,0.581-0.213,0.576-0.529c-0.004-0.311-0.166-0.584-0.626-0.596c-0.38-0.01-0.665,0.24-0.665,0.566
	C21.01,16.316,21.287,16.533,21.723,16.53z"/>
<path d="M18.445,16.151c-0.392,0.001-0.654-0.225-0.656-0.567c-0.002-0.301,0.329-0.63,0.638-0.636
	c0.302-0.006,0.633,0.302,0.655,0.609C19.103,15.844,18.776,16.15,18.445,16.151z"/>
<path d="M21.723,16.53c-0.436,0.004-0.713-0.213-0.714-0.558c-0.001-0.327,0.284-0.576,0.665-0.566
	c0.46,0.012,0.622,0.285,0.626,0.596C22.303,16.317,22.059,16.527,21.723,16.53z"/>
</svg>
