<?xml version="1.0" encoding="utf-8"?>
<!-- Generator: Adobe Illustrator 16.0.0, SVG Export Plug-In . SVG Version: 6.00 Build 0)  -->
<!DOCTYPE svg PUBLIC "-//W3C//DTD SVG 1.1//EN" "http://www.w3.org/Graphics/SVG/1.1/DTD/svg11.dtd">
<svg version="1.1" id="Layer_1" xmlns="http://www.w3.org/2000/svg" xmlns:xlink="http://www.w3.org/1999/xlink" x="0px" y="0px"
	 width="150px" height="150px" viewBox="0 0 150 150" enable-background="new 0 0 150 150" xml:space="preserve">
<radialGradient id="SVGID_1_" cx="297.6602" cy="-269.96" r="75" gradientTransform="matrix(1 0 0 -1 -222.6602 -194.96)" gradientUnits="userSpaceOnUse">
	<stop  offset="0" style="stop-color:#FFFFFF"/>
	<stop  offset="1" style="stop-color:#FF8700"/>
</radialGradient>
<rect fill="url(#SVGID_1_)" width="150" height="150"/>
<g>
	
		<image overflow="visible" opacity="0.85" enable-background="new    " width="121" height="161" xlink:href="D625A3E3.png"  transform="matrix(0.9917 0 0 0.9938 18.042 -2.2441)">
	</image>
	<g>
		<path d="M107.704,113.521c0.507,2.963,1.72,5.185,5.002,5.748c0.239-1.218,0.364-2.402,0.718-3.514
			c0.58-1.824,1.689-3.113,3.702-2.896c1.804,0.195,2.888,1.709,1.916,3.303c-0.749,1.227-1.974,2.177-3.04,3.191
			c-0.425,0.405-0.998,0.655-1.566,1.017c2.379,3.13,4.924,1.149,7.621,0.173c-0.091,0.495-0.057,0.904-0.193,0.973
			c-1.322,0.662-2.62,1.461-4.028,1.836c-1.624,0.434-3.562-0.953-4.593-2.988c-3.979,0.144-5.656-2.568-6.799-5.879
			c-2.285,1.181-4.514,2.332-6.848,3.537c0.612,4.332,1.158,8.764,1.174,13.244c0.002,0.946,0.317,1.904,0.571,2.834
			c0.665,2.437,1.392,4.857,2.052,7.295c0.086,0.315-0.063,0.696-0.113,1.119c-1.729-0.607-3.328-1.168-5.066-1.779
			c-1.145,1.439-2.344,2.945-3.624,4.555c-1.59-2.992-2.926-5.857-3.54-9.047c-0.292-1.521-0.977-2.967-1.496-4.443
			c-1.086-3.089-2.085-6.199-2.555-9.457c-0.146-1.019-0.579-1.26-1.553-1.09c-0.801,0.141-1.606,0.282-2.416,0.346
			c-2.247,0.176-4.504,0.488-6.744,0.416c-2.448-0.078-4.88-0.566-7.327-0.797c-1.116-0.105-2.25-0.018-3.403-0.018
			c-0.848,3.369-1.681,6.664-2.507,9.961c-0.667,2.662-1.218,5.359-2.024,7.979c-0.631,2.051-1.574,4.006-2.408,6.079
			c-1.453-0.293-1.684-1.817-2.571-2.666c-1.439-1.376-1.335-1.508-3.144-0.875c-1.097,0.384-2.173,0.831-3.489,1.339
			c0.615-2.955,1.194-5.684,1.746-8.416c0.176-0.871,0.381-1.756,0.394-2.637c0.052-3.538-0.1-7.082,0.471-10.599
			c0.238-1.466,0.404-2.942,0.588-4.31c-5.119-2.422-9.628-5.223-13.518-9.037c-4.051-3.974-7.459-8.371-9.874-13.504
			c-2.066-4.393-3.475-8.955-4.1-13.822c-0.35-2.721-0.483-5.423-0.306-8.1c0.335-5.078,1.567-9.981,3.756-14.622
			c2.171-4.604,5.012-8.716,8.876-12.038c4.205-3.614,6.967-8.188,9.162-13.176c0.149-0.338,0.308-0.676,0.402-1.031
			c0.055-0.208-0.009-0.447-0.023-0.755c-4.7-2.314-8.492-5.587-9.908-10.87c-1.399-5.221-0.157-9.997,3.049-14.544
			c1.099,2.272,2.919,3.574,5.084,4.303c1.677,0.564,3.446,0.891,5.195,1.199c2.199,0.386,4.484,0.418,6.614,1.022
			c2.169,0.615,4.509,1.215,5.888,3.572c4.793-1.604,9.784-2.25,14.869-2.309c5.041-0.058,9.963,0.618,14.918,2.223
			c0.435-1.916,1.13-3.734,2.561-5.226c2.021-2.108,4.42-3.415,7.197-4.323c4.544-1.486,9.184-1.34,13.834-1.264
			c0.945,0.015,1.884,0.394,2.956,0.635c-2.707,3.212-3.334,7.146-4,11.113c-0.49,2.92-1.149,5.84-2.076,8.646
			c-0.545,1.65-1.76,3.078-2.748,4.729c0.869,1.637,1.856,3.466,2.815,5.308c2.656,5.101,4.234,10.615,6.129,16.009
			c0.936,2.662,1.927,5.306,2.893,7.957c1.126,3.092,1.739,6.298,2.122,9.555c0.297,2.522,0.646,5.04,0.867,7.568
			c0.084,0.959-0.106,1.941-0.194,2.912c-0.053,0.595-0.201,1.186-0.214,1.779c-0.075,3.752-0.767,7.396-1.84,10.98
			c-1.269,4.24-3.099,8.193-5.584,11.873C114.816,107.665,111.561,110.802,107.704,113.521z M114.874,86.809
			c2.649,0.459,5.169,0.895,7.949,1.375c0.351-2.736,0.864-5.298,0.963-7.875c0.121-3.15,0.045-6.303-0.326-9.473
			c-0.339-2.904-0.774-5.771-1.58-8.554c-0.864-2.988-2.03-5.89-3.065-8.829c-1.353-3.846-2.614-7.727-4.08-11.53
			c-2.457-6.37-5.336-12.479-10.355-17.373c-2.314-2.256-4.693-4.302-7.589-5.765c-5.292-2.673-10.837-4.192-16.806-3.989
			c-1.209,0.041-2.426,0.063-3.633-0.005c-3.711-0.208-7.326,0.398-10.857,1.408c-4.001,1.144-7.639,2.947-10.638,5.998
			c-2.507,2.551-4.312,5.524-5.946,8.634c-1.39,2.645-2.638,5.366-4.042,8.003c-1.162,2.181-2.568,4.208-4.399,5.907
			c-1.707,1.584-3.537,3.062-5.065,4.804c-2.722,3.102-4.738,6.692-6.38,10.468c-1.552,3.568-2.578,7.308-2.789,11.201
			c-0.152,2.793-0.105,5.604,0,8.402c0.06,1.599,0.412,3.188,0.649,4.903c2.77-0.484,5.303-0.928,7.938-1.389
			c-0.099-0.745-0.125-1.345-0.265-1.916c-0.66-2.706-0.157-5.365,0.332-8.016c0.057-0.311,0.602-0.532,1.285-1.095
			c-0.07,0.999-0.074,1.566-0.155,2.121c-0.382,2.611-0.581,5.212,0.155,7.8c0.875,3.076,1.759,6.149,2.59,9.236
			c0.137,0.508,0.019,1.086,0.019,1.721c-1.828-0.648-3.429-1.217-5.258-1.865c-0.956,1.328-1.94,2.695-2.897,4.025
			c0.363,0.444,0.59,0.656,0.739,0.914c2.745,4.746,6.114,8.928,10.251,12.596c3.984,3.533,8.547,6.107,13.288,8.172
			c5.822,2.533,12.082,3.877,18.527,3.773c3.383-0.054,6.756,0.027,10.157-0.348c3.42-0.377,6.83-0.785,10.119-1.691
			c6.393-1.763,12.258-4.586,17.165-9.219c3.021-2.852,5.664-5.953,7.668-9.604c0.394-0.717,0.287-1.295-0.131-1.889
			c-0.724-1.024-1.47-2.033-2.251-3.111c-1.756,0.631-3.482,1.25-5.342,1.919c-0.055-0.462-0.18-0.769-0.11-1.023
			c0.785-2.858,1.642-5.698,2.392-8.565c0.575-2.199,1.34-4.363,0.774-6.741c-0.315-1.333-0.255-2.755-0.38-4.353
			c0.465,0.225,0.852,0.278,0.943,0.473C116.038,79.801,115.15,83.307,114.874,86.809z M116.918,6.162
			c-3.773,0.179-7.38-0.318-10.98,0.431c-3.117,0.649-6.088,1.526-8.61,3.567c-1.366,1.105-2.271,2.541-2.888,4.133
			c-0.426,1.102-0.066,1.804,0.865,2.223c4.694,2.111,8.816,4.97,11.998,9.081c0.711,0.918,1.488,1.786,2.254,2.701
			c1.77-1.45,2.359-3.433,2.868-5.333c0.787-2.94,1.249-5.967,1.867-8.953C114.844,11.346,115.223,8.621,116.918,6.162z
			 M47.887,29.771c2.956-6.233,7.294-11.016,14.174-13.967c-2.099-0.944-3.611-1.849-5.247-2.302
			c-1.919-0.53-3.951-0.643-5.926-0.982c-1.609-0.277-3.304-0.382-4.785-0.991c-2.14-0.882-4.121-2.15-6.037-3.183
			c-2.294,2.278-1.9,5.255-2.138,8.156c-0.259,3.154,1.269,5.614,2.855,7.9C42.423,26.766,44.755,28.625,47.887,29.771z
			 M60.613,135.624c1.302-4.938,3.023-9.7,3.514-14.856c-3.821-0.117-6.975-2.158-10.571-3.233
			c-0.249,5.75-1.434,11.341-0.837,17.159c1.446,0,2.735-0.109,3.996,0.031C57.898,134.855,59.053,135.251,60.613,135.624z
			 M88.061,121.389c1.332,6.368,3.021,11.691,4.383,13.783c2.42-0.513,4.861-1.031,7.5-1.592
			c-1.004-5.085-0.307-10.132-1.695-14.803C94.84,119.65,91.535,120.497,88.061,121.389z M122.023,89.482
			c-2.693-0.461-5.147-0.881-7.762-1.328c-0.599,2.166-1.156,4.186-1.765,6.385c1.571-0.561,2.812-1.002,4.179-1.489
			c1.01,1.308,1.958,2.538,2.795,3.622c0.528-1.097,1.166-2.186,1.584-3.352C121.477,92.139,121.682,90.877,122.023,89.482z
			 M35.412,84.611c-2.692,0.418-5.229,0.813-7.785,1.209c0.041,0.139,0.453,1.537,0.453,1.537c0.358,2,0.88,3.929,2.218,5.563
			c1.41-0.982,1.26-3.081,2.961-3.46c1.253,0.511,2.422,0.985,3.947,1.604C36.597,88.878,36.054,86.924,35.412,84.611z
			 M55.041,139.602c1.028,1.349,2.062,2.705,3.189,4.184c0.805-2.485,1.534-4.733,2.339-7.217c-2.738-0.359-5.44-0.715-8.231-1.082
			c-0.589,2.14-1.103,4.006-1.72,6.242C52.293,140.923,53.55,140.318,55.041,139.602z M100.42,135.107
			c-2.454,0.408-4.8,0.76-7.128,1.209c-0.724,0.139-0.897,0.871-0.69,1.469c0.6,1.724,1.299,3.414,2.109,5.509
			c0.676-0.908,1.107-1.479,1.529-2.058c1.234-1.693,2.059-1.907,4.035-1.088c0.498,0.207,1.031,0.324,1.762,0.547
			C101.468,138.729,100.998,137.105,100.42,135.107z M118.27,114.948c-1.604-1.528-2.227-1.45-3.156,0.165
			c-0.661,1.148-1.004,2.296-0.532,3.658C116.434,118.07,117.443,116.661,118.27,114.948z"/>
	</g>
</g>
<linearGradient id="SVGID_2_" gradientUnits="userSpaceOnUse" x1="248.7979" y1="-262.6367" x2="346.498" y2="-262.6367" gradientTransform="matrix(1 0 0 -1 -222.6602 -194.96)">
	<stop  offset="0" style="stop-color:#FF96AC"/>
	<stop  offset="1" style="stop-color:#AC3281"/>
</linearGradient>
<path fill="url(#SVGID_2_)" d="M114.874,86.809c0.276-3.502,1.164-7.007-0.437-10.363c-0.094-0.193-0.479-0.248-0.944-0.473
	c0.126,1.598,0.063,3.021,0.38,4.353c0.564,2.377-0.199,4.542-0.773,6.741c-0.75,2.867-1.607,5.707-2.393,8.565
	c-0.07,0.255,0.055,0.563,0.111,1.022c1.858-0.668,3.584-1.287,5.341-1.918c0.782,1.078,1.526,2.088,2.251,3.111
	c0.419,0.592,0.525,1.172,0.131,1.889c-2.003,3.648-4.646,6.752-7.668,9.604c-4.908,4.633-10.773,7.457-17.165,9.219
	c-3.289,0.905-6.699,1.313-10.119,1.691c-3.399,0.375-6.772,0.294-10.157,0.348c-6.445,0.104-12.705-1.24-18.527-3.773
	c-4.742-2.064-9.304-4.639-13.288-8.172c-4.137-3.668-7.506-7.85-10.251-12.596c-0.149-0.257-0.376-0.47-0.739-0.914
	c0.957-1.33,1.941-2.697,2.897-4.025c1.829,0.648,3.431,1.216,5.258,1.865c0-0.635,0.118-1.213-0.019-1.721
	c-0.831-3.087-1.716-6.16-2.59-9.236c-0.736-2.588-0.537-5.189-0.155-7.8c0.081-0.555,0.085-1.122,0.155-2.121
	c-0.683,0.563-1.227,0.784-1.285,1.095c-0.489,2.65-0.992,5.31-0.332,8.016c0.139,0.572,0.165,1.171,0.265,1.916
	c-2.636,0.461-5.168,0.903-7.938,1.389c-0.237-1.715-0.589-3.305-0.649-4.903c-0.104-2.798-0.151-5.609,0-8.402
	c0.211-3.893,1.237-7.633,2.789-11.201c1.642-3.776,3.658-7.366,6.38-10.468c1.528-1.742,3.358-3.221,5.065-4.804
	c1.831-1.699,3.237-3.725,4.399-5.907c1.405-2.637,2.652-5.358,4.042-8.003c1.635-3.11,3.439-6.083,5.946-8.634
	c2.998-3.051,6.637-4.854,10.638-5.998c3.532-1.01,7.147-1.616,10.856-1.408c1.209,0.068,2.424,0.046,3.635,0.005
	c5.968-0.204,11.513,1.316,16.805,3.989c2.895,1.462,5.275,3.509,7.589,5.765c5.021,4.894,7.899,11.003,10.354,17.373
	c1.467,3.803,2.729,7.684,4.082,11.53c1.033,2.939,2.199,5.841,3.064,8.829c0.807,2.782,1.24,5.65,1.58,8.554
	c0.37,3.169,0.447,6.322,0.326,9.473c-0.1,2.577-0.612,5.139-0.963,7.875C120.043,87.702,117.525,87.268,114.874,86.809z
	 M75.415,74.444c2.183-0.29,4.948-0.51,7.649-1.054c2.86-0.576,5.625-1.736,7.811-3.629c4.168-3.609,6.195-8.09,4.9-13.813
	c-1.166-5.15-3.685-9.271-8.086-12.208c-3.209-2.14-6.877-2.825-10.606-3.067c-2-0.13-4.061,0.094-6.048,0.434
	c-4.803,0.821-9.025,2.733-12.27,6.602c-2.378,2.836-3.519,6.023-3.535,9.645c-0.005,1.181,0.269,2.365,0.43,3.546
	c0.651,4.781,3.185,8.289,7.293,10.711C66.623,73.774,70.732,74.062,75.415,74.444z M47.997,65.572
	c0.257-0.303,0.507-0.504,0.636-0.766c0.5-1.012,0.092-2.002-0.997-2.509c-0.877-0.407-1.879,0.072-2.217,1.123
	c-0.291,0.904,0.281,1.521,0.834,2.122c0.387,0.421,0.894,0.789,1.128,1.285c1.902,4.029,5.229,6.336,9.195,8.05
	c3.027,1.309,6.109,2.198,9.346,2.85c3.398,0.683,6.843,0.537,10.23,1.11c0.906,0.153,1.9-0.34,2.861-0.389
	c2.096-0.106,4.176-0.089,6.282-0.409c4.452-0.678,8.739-1.828,12.789-3.75c2.948-1.399,5.485-3.367,7.286-6.186
	c0.855-1.341,0.96-3.111,2.484-4.114c0.281-0.184,0.205-1.419-0.121-1.864c-0.303-0.414-1.17-0.601-1.772-0.568
	c-1.116,0.062-1.663,1.014-1.092,2.426c0.551,1.364,0.088,2.259-0.604,3.297c-1.615,2.425-3.709,4.281-6.297,5.61
	c-6.023,3.094-12.566,4.042-19.191,4.51c-3.82,0.271-7.616-0.258-11.417-0.803c-3.878-0.558-7.59-1.574-11.077-3.273
	C52.829,71.64,49.761,69.408,47.997,65.572z M90.284,33.072c-0.04-1.297-0.828-2.022-2.161-1.991
	c-1.188,0.028-2.031,0.837-2.003,1.918c0.037,1.401,0.909,2.297,2.192,2.251C89.605,35.205,90.325,34.41,90.284,33.072z
	 M63.39,32.185c-0.027,1.214,0.688,2.08,1.776,2.149c0.896,0.057,2.206-1.137,2.292-2.09c0.087-0.963-1.041-2.041-2.16-2.065
	C64.223,30.155,63.416,31.003,63.39,32.185z M72.084,107.686c-0.025,1.037-0.427,2.17,0.934,2.498
	c0.692,0.166,1.573,0.309,2.044-0.5c0.408-0.701,0.304-1.377-0.266-2.054C73.908,106.575,73.094,107.09,72.084,107.686z"/>
<linearGradient id="SVGID_3_" gradientUnits="userSpaceOnUse" x1="316.9229" y1="-212.1904" x2="339.5781" y2="-212.1904" gradientTransform="matrix(1 0 0 -1 -222.6602 -194.96)">
	<stop  offset="0" style="stop-color:#FF96AC"/>
	<stop  offset="1" style="stop-color:#AC3281"/>
</linearGradient>
<path fill="url(#SVGID_3_)" d="M116.918,6.162c-1.695,2.46-2.072,5.184-2.625,7.851c-0.618,2.986-1.08,6.013-1.867,8.953
	c-0.509,1.9-1.099,3.883-2.867,5.333c-0.768-0.915-1.543-1.782-2.254-2.701c-3.183-4.111-7.305-6.97-11.998-9.081
	c-0.934-0.419-1.293-1.121-0.865-2.223c0.615-1.592,1.521-3.028,2.887-4.133c2.523-2.042,5.492-2.919,8.609-3.567
	C109.538,5.843,113.145,6.34,116.918,6.162z"/>
<linearGradient id="SVGID_4_" gradientUnits="userSpaceOnUse" x1="260.5596" y1="-214.0186" x2="284.7207" y2="-214.0186" gradientTransform="matrix(1 0 0 -1 -222.6602 -194.96)">
	<stop  offset="0" style="stop-color:#FF96AC"/>
	<stop  offset="1" style="stop-color:#AC3281"/>
</linearGradient>
<path fill="url(#SVGID_4_)" d="M47.887,29.771c-3.132-1.146-5.464-3.005-7.104-5.369c-1.586-2.286-3.114-4.746-2.855-7.9
	c0.238-2.901-0.156-5.878,2.138-8.156c1.916,1.032,3.897,2.301,6.037,3.183c1.48,0.61,3.176,0.715,4.785,0.991
	c1.975,0.339,4.007,0.452,5.926,0.982c1.637,0.452,3.148,1.358,5.247,2.302C55.181,18.756,50.843,23.538,47.887,29.771z"/>
<linearGradient id="SVGID_5_" gradientUnits="userSpaceOnUse" x1="275.2129" y1="-321.5386" x2="286.7871" y2="-321.5386" gradientTransform="matrix(1 0 0 -1 -222.6602 -194.96)">
	<stop  offset="0" style="stop-color:#FF96AC"/>
	<stop  offset="1" style="stop-color:#AC3281"/>
</linearGradient>
<path fill="url(#SVGID_5_)" d="M60.613,135.624c-1.56-0.373-2.714-0.769-3.898-0.899c-1.261-0.141-2.55-0.033-3.996-0.033
	c-0.597-5.818,0.588-11.408,0.837-17.158c3.596,1.076,6.75,3.117,10.571,3.232C63.636,125.925,61.915,130.686,60.613,135.624z"/>
<linearGradient id="SVGID_6_" gradientUnits="userSpaceOnUse" x1="310.7207" y1="-321.9351" x2="322.6055" y2="-321.9351" gradientTransform="matrix(1 0 0 -1 -222.6602 -194.96)">
	<stop  offset="0" style="stop-color:#FF96AC"/>
	<stop  offset="1" style="stop-color:#AC3281"/>
</linearGradient>
<path fill="url(#SVGID_6_)" d="M88.061,121.389c3.476-0.891,6.78-1.738,10.188-2.611c1.388,4.671,0.69,9.719,1.696,14.804
	c-2.641,0.56-5.082,1.078-7.502,1.592C91.081,133.08,89.391,127.757,88.061,121.389z"/>
<path fill="#BF7119" d="M122.023,89.482c-0.342,1.396-0.547,2.656-0.971,3.838c-0.416,1.166-1.055,2.255-1.584,3.352
	c-0.836-1.084-1.785-2.314-2.794-3.622c-1.366,0.487-2.606,0.929-4.179,1.489c0.607-2.199,1.166-4.219,1.766-6.385
	C116.876,88.602,119.33,89.021,122.023,89.482z"/>
<path fill="#BF7119" d="M35.412,84.611c0.643,2.313,1.185,4.266,1.793,6.455c-1.525-0.621-2.693-1.096-3.947-1.605
	c-1.701,0.379-1.551,2.477-2.961,3.46c-1.338-1.634-1.859-3.563-2.218-5.562c0,0-0.412-1.399-0.453-1.537
	C30.183,85.424,32.719,85.029,35.412,84.611z"/>
<path fill="#BF7119" d="M55.041,139.602c-1.49,0.717-2.748,1.321-4.423,2.127c0.616-2.235,1.13-4.102,1.72-6.24
	c2.792,0.367,5.493,0.722,8.231,1.082c-0.805,2.484-1.534,4.73-2.339,7.216C57.103,142.307,56.069,140.95,55.041,139.602z"/>
<path fill="#BF7119" d="M100.42,135.107c0.578,1.998,1.048,3.621,1.618,5.59c-0.731-0.225-1.265-0.342-1.761-0.547
	c-1.978-0.82-2.803-0.607-4.036,1.086c-0.423,0.58-0.854,1.15-1.529,2.059c-0.812-2.095-1.51-3.785-2.108-5.509
	c-0.207-0.599-0.035-1.329,0.689-1.47C95.62,135.867,97.966,135.516,100.42,135.107z"/>
<path d="M75.415,74.444c-4.683-0.383-8.792-0.67-12.462-2.834c-4.108-2.422-6.642-5.93-7.293-10.711
	c-0.161-1.181-0.435-2.364-0.43-3.546c0.016-3.622,1.157-6.809,3.535-9.645c3.245-3.869,7.467-5.781,12.27-6.602
	c1.986-0.34,4.047-0.564,6.048-0.434c3.729,0.242,7.397,0.927,10.606,3.067c4.401,2.937,6.92,7.058,8.086,12.208
	c1.295,5.724-0.732,10.205-4.9,13.813c-2.186,1.893-4.95,3.052-7.811,3.629C80.363,73.934,77.598,74.155,75.415,74.444z
	 M74.998,73.08c2.159-0.215,4.339-0.303,6.473-0.672c4.309-0.745,8.12-2.56,10.901-6.035c1.301-1.626,2.205-3.544,2.366-5.692
	c0.212-2.806-0.17-5.517-1.354-8.104c-1.003-2.193-2.063-4.358-3.896-5.98c-3.063-2.711-6.783-4.114-10.762-4.465
	c-4.971-0.439-9.787,0.155-14.376,2.59c-3.629,1.925-5.943,4.707-7.206,8.438c-1.013,2.993-0.614,6.065,0.083,9.082
	c1.106,4.787,4.239,7.654,8.739,9.306C68.895,72.626,71.865,73.178,74.998,73.08z"/>
<path d="M47.997,65.572c1.763,3.836,4.832,6.067,8.288,7.752c3.487,1.7,7.199,2.715,11.077,3.273
	c3.8,0.545,7.596,1.074,11.417,0.803c6.623-0.469,13.166-1.416,19.191-4.51c2.586-1.329,4.68-3.184,6.297-5.61
	c0.691-1.038,1.154-1.934,0.604-3.297c-0.571-1.411-0.023-2.364,1.092-2.426c0.602-0.033,1.469,0.154,1.773,0.568
	c0.326,0.446,0.4,1.68,0.121,1.864c-1.524,1.004-1.629,2.773-2.485,4.114c-1.8,2.819-4.338,4.787-7.286,6.186
	c-4.05,1.922-8.338,3.072-12.789,3.75c-2.107,0.32-4.186,0.303-6.281,0.409c-0.961,0.049-1.957,0.542-2.861,0.389
	c-3.388-0.573-6.833-0.428-10.231-1.11c-3.237-0.651-6.319-1.541-9.346-2.85c-3.966-1.715-7.293-4.021-9.195-8.05
	c-0.234-0.496-0.741-0.864-1.128-1.285c-0.554-0.602-1.125-1.218-0.834-2.122c0.338-1.05,1.34-1.53,2.217-1.123
	c1.089,0.506,1.497,1.497,0.997,2.509C48.504,65.068,48.254,65.27,47.997,65.572z"/>
<path d="M90.284,33.072c0.041,1.337-0.679,2.132-1.974,2.179c-1.281,0.046-2.154-0.85-2.191-2.251
	c-0.028-1.082,0.816-1.89,2.003-1.918C89.456,31.05,90.244,31.776,90.284,33.072z"/>
<path d="M63.39,32.185c0.027-1.182,0.833-2.03,1.908-2.007c1.119,0.024,2.247,1.103,2.16,2.065c-0.086,0.953-1.396,2.147-2.292,2.09
	C64.078,34.265,63.362,33.399,63.39,32.185z"/>
<path d="M72.084,107.686c1.01-0.596,1.824-1.11,2.712-0.055c0.569,0.678,0.674,1.354,0.266,2.055
	c-0.471,0.808-1.352,0.664-2.044,0.498C71.656,109.855,72.059,108.723,72.084,107.686z"/>
<linearGradient id="SVGID_7_" gradientUnits="userSpaceOnUse" x1="279.1914" y1="-252.5059" x2="317.4531" y2="-252.5059" gradientTransform="matrix(1 0 0 -1 -222.6602 -194.96)">
	<stop  offset="0" style="stop-color:#FF96AC"/>
	<stop  offset="1" style="stop-color:#AC3281"/>
</linearGradient>
<path fill="url(#SVGID_7_)" d="M74.998,73.08c-3.133,0.098-6.103-0.454-9.033-1.53c-4.499-1.652-7.632-4.52-8.739-9.306
	c-0.697-3.017-1.096-6.089-0.083-9.082c1.263-3.732,3.577-6.513,7.206-8.438c4.59-2.436,9.405-3.03,14.375-2.59
	c3.979,0.352,7.699,1.754,10.764,4.465c1.832,1.622,2.893,3.787,3.896,5.98c1.183,2.587,1.565,5.297,1.354,8.104
	c-0.161,2.148-1.065,4.066-2.367,5.692c-2.781,3.475-6.594,5.29-10.902,6.035C79.337,72.777,77.157,72.865,74.998,73.08z
	 M71.653,53.89c0.007-2.738-1.762-4.546-4.403-4.499c-2.062,0.036-4.231,2.231-4.308,4.36c-0.083,2.27,1.964,4.193,4.501,4.227
	C69.823,58.01,71.647,56.24,71.653,53.89z M82.936,59.797c2.707,0.006,4.336-1.547,4.442-4.234c0.083-2.111-2.015-3.897-4.428-4.064
	c-2.603-0.18-4.367,2.302-4.533,4.055C78.204,57.803,80.398,59.791,82.936,59.797z"/>
<path d="M71.653,53.89c-0.006,2.35-1.83,4.12-4.211,4.088c-2.537-0.034-4.584-1.957-4.501-4.227c0.078-2.129,2.246-4.323,4.308-4.36
	C69.891,49.344,71.661,51.152,71.653,53.89z M67.537,56.528c1.588-0.005,3.161-1.47,3.061-2.851
	c-0.107-1.474-1.695-2.949-3.145-2.922c-1.486,0.028-3.072,1.608-3.063,3.052C64.399,55.449,65.654,56.534,67.537,56.528z"/>
<path d="M82.936,59.797c-2.537-0.006-4.731-1.994-4.519-4.243c0.166-1.752,1.931-4.235,4.533-4.055
	c2.413,0.167,4.511,1.953,4.428,4.064C87.271,58.25,85.643,59.803,82.936,59.797z M83.268,58.347
	c1.614-0.013,2.787-1.02,2.767-2.536c-0.019-1.494-0.796-2.804-3.002-2.86c-1.824-0.046-3.191,1.15-3.189,2.717
	C79.846,57.324,81.175,58.364,83.268,58.347z"/>
<path d="M67.537,56.528c-1.883,0.006-3.138-1.08-3.148-2.721c-0.009-1.444,1.577-3.024,3.063-3.052
	c1.451-0.027,3.038,1.448,3.145,2.922C70.698,55.058,69.125,56.523,67.537,56.528z"/>
<path d="M83.268,58.347c-2.093,0.017-3.422-1.023-3.425-2.679c-0.002-1.567,1.365-2.763,3.189-2.717
	c2.206,0.056,2.983,1.366,3.002,2.86C86.053,57.326,84.881,58.334,83.268,58.347z"/>
<g>
	<path fill="#FFFFFF" d="M145,5v140H5V5H145 M150,0H0v150h150V0L150,0z"/>
</g>
</svg>
