<?xml version="1.0" encoding="utf-8"?>
<!-- Generator: Adobe Illustrator 16.0.0, SVG Export Plug-In . SVG Version: 6.00 Build 0)  -->
<!DOCTYPE svg PUBLIC "-//W3C//DTD SVG 1.1//EN" "http://www.w3.org/Graphics/SVG/1.1/DTD/svg11.dtd">
<svg version="1.1" id="Layer_1" xmlns="http://www.w3.org/2000/svg" xmlns:xlink="http://www.w3.org/1999/xlink" x="0px" y="0px"
	 width="150px" height="150px" viewBox="0 0 150 150" enable-background="new 0 0 150 150" xml:space="preserve">
<radialGradient id="SVGID_1_" cx="298.5488" cy="-269.96" r="75" gradientTransform="matrix(1 0 0 -1 -222.6602 -194.96)" gradientUnits="userSpaceOnUse">
	<stop  offset="0.2966" style="stop-color:#FFFFFF"/>
	<stop  offset="1" style="stop-color:#FF7EC8"/>
</radialGradient>
<rect x="0.889" fill="url(#SVGID_1_)" width="150" height="150"/>
<path d="M100.279,140.253c-1.021-0.585-2.064-1.182-3.26-1.865c-0.711,1.143-1.811,1.961-3.094,2.575
	c-1.693-1.344-2.4-3.192-2.328-5.39c0.053-1.594-0.24-3.129-0.805-4.618c-0.316-0.837,0.381-1.859-0.461-2.609
	c0.053-1.94-0.826-3.731-0.918-5.667c-0.557-0.367-0.938-0.035-1.482,0.201c-1.844,0.797-6.176,1.091-8.143-1.202
	c-1.092,0.899-2.113,1.817-3.561,2.269c-1.63,0.508-3.238,0.274-4.826,0.209c-0.838-0.033-1.711-0.732-2.441-1.295
	c-0.545-0.418-1.586-0.389-1.563-1.469c0.002-0.053-0.709-0.275-0.943-0.148c-0.652,0.351-1.241,0.732-2.019,0.879
	c-0.589,0.109-0.754,0.867-0.823,1.443c-0.182,1.516-0.276,3.041-0.453,4.557c-0.086,0.736-0.313,1.457-0.41,2.193
	c-0.09,0.674-0.168,1.319-0.361,1.996c-0.303,1.063-0.135,2.277-0.068,3.422c0.102,1.713-0.619,3.049-1.75,4.232
	c-0.347,0.362-0.701,0.715-1.193,1.215c-1-1.044-1.981-2.068-2.936-3.064c-0.72,1.564-2.484,1.021-3.744,1.742
	c-1.16-1.657-0.625-3.431-0.681-5.123c0.866-0.711-0.097-1.979,0.813-2.676c0.145-1.449,0.268-2.898,0.438-4.344
	c0.104-0.878,0.339-1.744,0.407-2.623c0.072-0.927-0.206-1.938,0.07-2.779c0.385-1.174,0.347-2.326,0.377-3.5
	c0.004-0.142-0.004-0.285,0.025-0.422c0.281-1.293,0.063-1.586-1.119-1.484c-2.603,0.224-3.281-0.137-5.474-1.543
	c-1.769-1.137-2.229-2.9-2.885-4.613c-0.164-0.43-0.024-0.977-0.024-1.453c-6.266-0.867-8.914-5.804-7.341-10.779
	c-0.433-0.312-0.912-0.647-1.382-0.996c-1.359-1.008-2.331-2.33-3.075-3.832c-0.213-0.429-0.312-2.773-0.342-3.217
	c-0.11-1.556,0.455-2.943,1.122-4.221c-3.783-2.846-4.499-7.884-1.045-12.207c-2.861-3.445-3.453-8.037,1.383-12.624
	c-1.055-1.241-0.939-2.769-0.971-4.295c-0.029-1.493,0.328-2.899,1.209-4.015c0.945-1.198,2.022-2.354,3.535-3.043
	c-1.111-1.942-0.844-3.959-0.254-5.848c0.685-2.189,2.432-3.558,4.482-4.554c0.648-1.261-0.979-2.608,0.092-3.882
	c-0.21-1.408,0.648-2.434,1.352-3.737c-0.769,0-1.469,0.056-2.156-0.016c-0.666-0.07-1.314-0.294-1.977-0.411
	c-2.475-0.436-5.66-2.98-6.576-5.268c-0.194-0.487-0.189-0.897,0.209-1.326c1.758-1.887,3.647-3.609,6.069-4.59
	c1.05-0.426,2.134-0.83,3.296-0.879c0.287-0.013,0.577,0.023,0.861-0.007c2.182-0.233,4.239,0.272,6.229,1.085
	c0.797,0.326,1.332,0.174,2.09-0.271c1.258-0.738,2.668-1.292,4.388-1.267c0-0.619-0.218-1.363,0.046-1.84
	c0.52-0.936,0.561-2.06,1.417-2.881c1.159-1.111,2.321-2.162,3.903-2.566c2.369-0.606,2.283-0.711,4.809-0.011
	c0.659,0.183,1.176-0.137,1.434-0.655c0.479-0.961,1.422-1.401,2.1-2.121c0.859-0.912,2.014-1.135,3.063-1.471
	c0.912-0.291,1.998-0.143,2.992-0.035c0.852,0.092,1.467,0.863,2.432,0.931c0.438,0.03,0.816,0.903,1.324,1.519
	c1.396-1.578,3.088-1.857,4.764-2.018c1.664-0.16,3.266,0.484,4.592,1.328c1.307,0.834,2.52,1.998,2.984,3.83
	c0.549-0.142,1.148,0.24,1.725-0.303c0.164-0.154,0.561-0.205,0.787-0.125c1.385,0.486,3.006,0.24,4.201,1.281
	c1.059,0.921,2.229,1.782,3.035,2.896c0.631,0.867,0.781,2.08,1.197,3.295c1.561-1.355,3.391-1.971,5.266-2.482
	c0.391-0.105,0.785-0.24,1.182-0.257c0.932-0.038,1.867,0.013,2.799-0.017c2.727-0.086,5.1,0.74,7.104,2.621
	c0.443,0.414,1.029,0.676,1.479,1.086c0.52,0.473,0.594,1.293,0.201,1.886c-2.209,3.313-3.186,4.497-7.918,5.675
	c-1.123,0.279-2.189,0.271-3.408,0.395c-0.277,0.992,0.098,2.135-0.482,3.17c-0.305,0.543,0.016,1.174,0.703,1.557
	c1.771,0.984,2.615,2.578,3.188,4.514c0.564,1.913,0.412,3.594-0.475,5.301c-0.088,0.17-0.012,0.424-0.012,0.82
	c0.527,0.498,1.154,1.078,1.766,1.674c1.141,1.104,1.803,2.418,1.674,4.04c-0.104,1.308,0.246,2.632-0.383,3.935
	c-0.291,0.601,0.014,1.25,0.779,1.701c1.793,1.054,3.035,3.451,3.057,5.463c0.021,1.662,0.092,3.328-0.971,4.904
	c1.049,1.223,2.328,2.252,2.738,3.993c0.502,2.14,0.557,2.099,0.414,4.431c-0.109,1.797-1.027,3.068-2.268,4.353
	c0.783,1.283,1.967,2.444,1.809,4.16c-0.143,1.565,0.318,3.161-0.711,4.669c-0.883,1.293-1.477,2.777-3.172,3.372
	c1.178,1.97,1.238,4.17,0.752,6.079c-0.52,2.044-1.734,4.027-3.916,4.992c-0.605,0.269-1.25,0.445-2.021,0.715
	c0.533,1.639,0.299,3.334-0.434,4.912c-0.643,1.388-1.537,2.73-2.895,3.449c-1.539,0.814-3.141,1.734-5.109,1.236
	c-0.551,2.557-1.666,4.662-4.018,5.904c-0.436,0.23-0.615,0.699-0.428,1.094c0.535,1.126,0.539,2.361,0.811,3.536
	c0.279,1.2,0.205,2.485,0.484,3.687c0.574,2.456,1.166,4.902,1.27,7.437c0.594,0.641,0.422,1.438,0.426,2.19
	C101.947,137.885,101.576,138.752,100.279,140.253z M102.443,111.286c0.615,0.171,1.176,0.521,1.617,0.41
	c1.219-0.307,2.49-0.404,3.623-1.133c1.379-0.885,2.166-2.158,2.865-3.539c0.18-0.354,0.414-0.74,0.414-1.111
	c0-1.309,0.27-2.653-0.557-4.082c3.189,0.345,4.709-1.754,5.943-3.93c1.326-2.336,0.707-4.723-0.748-6.974
	c1.338-1.059,2.746-1.919,3.598-3.434c0.836-1.483,1.076-3.067,0.771-4.603c-0.316-1.591-1.039-3.135-2.605-4.063
	c1.531-0.832,2.945-3.241,3.117-4.788c0.375-3.354-1.121-5.666-3.793-7.303c0.682-1.434,1.553-2.719,1.629-4.342
	c0.057-1.203-0.264-2.278-0.779-3.346c-0.855-1.768-2.211-3.005-3.967-3.843c1.275-1.558,1.648-4.37,0.975-6.049
	c-0.789-1.968-1.766-3.722-4.059-4.372c1.805-2.006,1.311-4.303,1.35-6.5c-1.066-2.074-2.299-3.987-4.732-4.67
	c1.154-1.408,0.791-3.049,1.342-4.484c-4.098-0.585-7.893-1.467-11.297-3.719c1.479-1.383,2.211-3.262,4.043-4.08
	c0.201-0.09,0.322-0.616,0.289-0.919c-0.057-0.524-0.244-1.038-0.41-1.546c-0.939-2.885-2.969-4.939-6.492-4.895
	c-1.084,0.014-2.164,0.236-3.107,0.346c-0.832-1.224-1.398-2.7-2.469-3.498c-2.582-1.922-5.695-2.498-8.725-0.401
	c-0.271,0.188-0.518,0.417-0.846,0.685c-1.715-2.207-3.993-2.556-6.445-2.312c-2.679,0.267-4.25,1.933-5.293,4.339
	c-0.457-0.051-0.959-0.029-1.412-0.169c-2.453-0.759-2.479-0.88-4.68-0.271c-2.881,0.797-4.48,2.897-4.884,5.847
	c-0.083,0.61-0.013,1.241-0.013,2.241c-0.721-0.684-1.188-0.719-1.781-0.393c-0.512,0.283-1.211-0.197-1.807,0.34
	c-0.414,0.371-1.053,0.493-1.672,0.764c0.893,0.71,1.662,1.425,2.531,1.986c0.934,0.603,1.822,1.205,2.32,2.072
	c-0.866,0.794-1.572,1.559-2.393,2.169c-1.867,1.392-5.313,3.196-7.869,3.845c-1.195,0.303-1.74,0.98-2.254,1.902
	c-1.224,2.194-1.145,4.389-0.051,6.6c-1.918,0.996-4.046,1.598-4.964,4.033c-0.892,2.363-0.81,4.512,0.341,6.69
	c-4.928,1.303-6.775,7.269-3.602,11.214c-0.793,0.675-1.653,1.285-2.361,2.037c-1.374,1.461-2.162,3.324-1.768,5.238
	c0.31,1.505,0.603,3.289,2.298,4.187c0.187,0.099,0.26,0.675,0.169,0.958c-0.098,0.305-0.447,0.534-0.697,0.785
	c-1.885,1.889-2.375,4.463-1.279,7.178c0.662,1.637,1.742,2.885,3.334,3.682c-1.86,1.798-2.099,4.086-1.683,6.248
	c0.526,2.73,2.621,4.388,5.185,5.455c-1.32,2.494-1.361,4.92,0.252,7.168c1.568,2.188,3.832,3.27,6.625,3.435
	c-0.336,1.812,0.266,3.296,1.214,4.698c1.002,1.484,2.42,2.313,4.034,3.013c1.638,0.709,3.072,0.22,4.569-0.394
	c0.472,0.855,0.958,1.59,1.296,2.387c0.711,1.678,2.318,2.252,3.678,3.14c2.467,0.046,4.963,0.22,6.863-1.614
	c0.729,1.221,1.674,2.17,2.782,2.883c1.444,0.929,3.128,1.021,4.796,0.875c2.089-0.184,3.285-1.85,4.761-3.239
	c1.172,1.496,2.609,2.182,4.297,2.392c1.633,0.2,3.254-0.111,4.527-0.994c1.322-0.918,2.535-2.127,2.979-3.867
	c1.797,0.582,3.475,1.469,5.158,0.918c1.568-0.512,3.34-1.002,4.309-2.541C101.736,114.608,102.398,113.06,102.443,111.286z
	 M54.62,25.782c-0.078-0.327-0.072-0.412-0.112-0.454c-2.152-2.281-4.974-3.388-7.808-4.49c-1.636-0.636-3.351-0.578-4.974-0.351
	c-1.401,0.197-2.83,0.824-4.041,1.586c-1.407,0.887-2.589,2.128-3.803,3.16c0,0.565,0,0.994,0,1.445
	c0.548,0.543,1.071,1.139,1.674,1.643c0.981,0.822,1.983,1.635,3.249,2.005c2.593,0.758,5.336,0.639,7.945-0.191
	C49.641,29.215,52.182,27.606,54.62,25.782z M98.914,24.903c1.303,1.613,3.357,1.586,5.018,2.369c0.768,0.362,1.723,0.355,2.6,0.459
	c0.9,0.104,1.826,0.049,2.707,0.23c0.893,0.184,1.65-0.449,2.531-0.243c0.389,0.091,0.863,0.052,1.242-0.087
	c2.506-0.914,4.883-1.999,6.287-4.503c0.381-0.677,0.387-1.091-0.121-1.644c-1.684-1.824-3.904-2.82-6.207-3.149
	c-3.732-0.533-7.076,0.717-10.119,3.022C101.428,22.438,100.299,23.771,98.914,24.903z M100.213,133.504
	c-0.771-4.655-1.549-9.335-2.316-13.969c-1.912-0.229-3.838,0.34-5.654-0.464c-0.557,0.699-1.176,1.361-1.648,2.113
	c-0.234,0.373-0.428,1.063-0.238,1.351c0.428,0.657,0.248,1.345,0.414,1.991c0.186,0.728,0.242,1.509,0.469,2.17
	c0.33,0.964,0.086,1.998,0.438,2.82c0.328,0.771,0.043,1.639,0.414,2.176c0.525,0.764,0.285,1.485,0.369,2.224
	c0.104,0.937,0.637,1.26,1.619,0.978c1.166-0.334,2.326-0.752,3.553-0.742C98.545,134.157,99.41,134.096,100.213,133.504z
	 M55.637,118.202c-0.51,0.764-0.727,1.592-0.661,2.521c0.056,0.784,0.285,1.732-0.054,2.327c-0.48,0.843-0.238,1.636-0.368,2.44
	c-0.13,0.803-0.327,1.598-0.416,2.404c-0.101,0.905,0.155,1.961-0.229,2.696c-0.492,0.94,0.289,2.007-0.513,2.822
	c-0.032,0.032,0.341,0.465,0.526,0.711c0.463-0.864,0.883,0.108,1.373,0.06c1.664-0.162,3.279,0.649,4.982,0.402
	c0.176-0.025,0.395,0.238,0.82,0.514c0.516-4.295,0.995-8.408,1.705-12.502C59.552,122.282,57.125,120.987,55.637,118.202z"/>
<path fill="#FDFDFD" d="M102.443,111.286c-0.045,1.773-0.707,3.322-1.598,4.738c-0.969,1.539-2.74,2.028-4.309,2.541
	c-1.684,0.551-3.361-0.334-5.158-0.918c-0.443,1.742-1.656,2.949-2.979,3.867c-1.273,0.883-2.895,1.194-4.527,0.993
	c-1.686-0.208-3.125-0.896-4.297-2.39c-1.477,1.39-2.672,3.056-4.761,3.238c-1.668,0.146-3.352,0.055-4.796-0.875
	c-1.108-0.711-2.053-1.662-2.782-2.881c-1.9,1.832-4.396,1.659-6.863,1.613c-1.359-0.888-2.967-1.462-3.678-3.141
	c-0.336-0.797-0.824-1.53-1.295-2.385c-1.498,0.612-2.933,1.102-4.57,0.393c-1.614-0.699-3.033-1.529-4.034-3.012
	c-0.948-1.403-1.55-2.887-1.214-4.699c-2.793-0.165-5.055-1.245-6.625-3.434c-1.611-2.248-1.571-4.675-0.252-7.168
	c-2.562-1.068-4.657-2.726-5.184-5.457c-0.416-2.162-0.178-4.449,1.684-6.248c-1.592-0.795-2.674-2.043-3.334-3.681
	c-1.096-2.715-0.606-5.291,1.279-7.178c0.25-0.251,0.598-0.479,0.696-0.785c0.092-0.284,0.017-0.86-0.169-0.958
	c-1.695-0.898-1.988-2.682-2.298-4.188c-0.396-1.912,0.394-3.776,1.768-5.237c0.708-0.752,1.568-1.361,2.361-2.037
	c-3.175-3.946-1.326-9.911,3.601-11.214c-1.15-2.178-1.23-4.328-0.34-6.69c0.919-2.436,3.046-3.038,4.965-4.032
	c-1.094-2.211-1.174-4.406,0.049-6.601c0.515-0.922,1.06-1.601,2.254-1.903c2.559-0.648,6.004-2.453,7.871-3.844
	c0.819-0.611,1.525-1.376,2.392-2.17c-0.498-0.867-1.386-1.47-2.32-2.072c-0.868-0.562-1.639-1.277-2.53-1.986
	c0.619-0.27,1.258-0.392,1.67-0.764c0.597-0.537,1.295-0.057,1.808-0.34c0.593-0.326,1.062-0.291,1.782,0.393
	c0-1-0.071-1.631,0.012-2.241c0.402-2.948,2.002-5.05,4.884-5.847c2.201-0.609,2.228-0.487,4.681,0.271
	c0.451,0.14,0.953,0.119,1.41,0.169c1.045-2.404,2.616-4.072,5.293-4.339c2.455-0.244,4.732,0.104,6.447,2.312
	c0.328-0.268,0.572-0.496,0.846-0.685c3.027-2.097,6.141-1.521,8.725,0.401c1.07,0.797,1.635,2.274,2.469,3.498
	c0.941-0.109,2.023-0.332,3.107-0.346c3.521-0.044,5.553,2.01,6.492,4.895c0.164,0.508,0.354,1.021,0.41,1.546
	c0.033,0.303-0.088,0.829-0.291,0.919c-1.832,0.818-2.563,2.697-4.043,4.08c3.404,2.252,7.199,3.134,11.297,3.719
	c-0.551,1.436-0.186,3.077-1.342,4.484c2.434,0.683,3.666,2.595,4.734,4.67c-0.041,2.197,0.453,4.494-1.35,6.5
	c2.291,0.65,3.268,2.404,4.059,4.371c0.674,1.679,0.301,4.492-0.975,6.05c1.756,0.838,3.111,2.075,3.965,3.843
	c0.518,1.066,0.838,2.141,0.781,3.346c-0.078,1.623-0.949,2.909-1.629,4.342c2.672,1.637,4.166,3.947,3.793,7.303
	c-0.172,1.548-1.586,3.957-3.119,4.787c1.566,0.93,2.289,2.474,2.605,4.064c0.305,1.535,0.066,3.119-0.77,4.602
	c-0.854,1.516-2.262,2.375-3.598,3.435c1.455,2.251,2.072,4.638,0.748,6.974c-1.236,2.176-2.754,4.274-5.945,3.93
	c0.826,1.43,0.557,2.775,0.559,4.082c0,0.371-0.236,0.758-0.414,1.111c-0.701,1.381-1.486,2.654-2.865,3.539
	c-1.135,0.728-2.404,0.826-3.623,1.133C103.617,111.808,103.059,111.456,102.443,111.286z M61.679,24.3
	c-0.841,0.691-1.767,1.303-2.5,2.094c-0.776,0.836-1.692,1.506-2.474,2.348c-2.022,2.178-3.422,4.687-4.772,7.296
	c-1.385,2.675-2.032,5.547-2.474,8.43c-0.354,2.313-0.209,4.735-0.024,7.088c0.126,1.607,0.476,3.257,0.91,4.785
	c0.496,1.75,1.128,3.528,2.001,5.188c1.238,2.355,2.586,4.623,4.438,6.551c1.018,1.061,2.137,2.004,3.291,2.927
	c2.727,2.179,5.948,3.294,9.123,4.502c0.713,0.272,1.594,0.276,2.396,0.419c0.868,0.155,1.747,0.336,2.615,0.44
	c1.484,0.178,3.007,0.017,4.513,0.058c1.471,0.04,2.85-0.742,4.342-0.443c0.059,0.012,0.129-0.031,0.193-0.051
	c1.336-0.412,2.689-0.771,4.002-1.248c3.775-1.371,7.287-3.222,10.178-6.066c0.891-0.877,1.635-1.899,2.447-2.854
	c2.809-3.295,4.148-7.25,4.561-11.43c0.236-2.404,0.232-4.879-0.258-7.365c-0.404-2.057-0.805-4.113-1.414-6.109
	c-0.639-2.088-1.264-4.244-2.328-6.127c-1.625-2.873-3.344-5.75-6.086-7.785c-1.729,1.69-1.83,1.516-2.895,2.13
	c-1.35,0.778-2.633,0.428-3.727-0.111c-1.092-0.539-1.918-1.623-2.885-2.489c-0.174,0.244-0.459,0.496-0.559,0.809
	c-0.355,1.115-1.105,1.962-1.988,2.604c-1.799,1.307-4.082,1.811-5.945,0.86c-2.236-1.14-3.498-2.97-3.722-5.494
	c-0.02-0.21-0.184-0.407-0.361-0.778c-0.266,0.336-0.383,0.474-0.488,0.618c-0.744,1.017-1.09,2.388-2.518,2.798
	c-0.767,0.219-1.52,0.631-2.29,0.666c-0.782,0.033-1.831-0.035-2.317-0.514c-0.906-0.891-2.387-1.436-2.379-3.082
	C62.284,24.756,61.917,24.549,61.679,24.3z M54.864,102.291c0.457-0.769,1.17-1.521,1.368-2.392
	c0.464-2.021-0.173-4.062-0.489-6.035c-0.246-1.529-0.578-3.092-0.699-4.621c-0.207-2.641-0.059-5.309-0.055-7.965
	c0.002-0.422-0.027-0.86,0.072-1.262c0.438-1.771,0.412-2.535,0.133-3.633c-0.334-1.314-0.976-2.377-1.988-3.277
	c-1.459-1.297-4.01-1.351-5.433-0.028c-2.061,1.916-2.97,4.37-3.104,7.104c-0.102,2.077-0.073,4.164-0.002,6.244
	c0.055,1.596,0.27,3.184,0.412,4.775c0.857,0.794,0.074,1.939,0.574,2.775c0.567,0.947,0.319,1.957,0.242,2.894
	c-0.107,1.298,0.426,2.454,0.521,3.698c0.043,0.537,0.523,1.084,0.908,1.541c0.656,0.783,0.66,0.613,1.774,0.274
	c1.101-0.335,1.435-1.53,2.625-1.899C52.411,101.499,53.516,101.979,54.864,102.291z M95.006,103.713
	c0.705-0.521,1.352-1.01,2.012-1.481c0.969-0.692,1.061-1.848,1.535-2.809c1.359-2.759,3.084-5.318,4.529-8.029
	c0.969-1.811,1.889-3.674,2.561-5.607c0.502-1.442,1.018-2.903,1.199-4.484c0.092-0.809,0.436-1.59-0.008-2.328
	c-0.443-0.744-0.031-1.546-0.525-2.38c-1.863-3.147-4.342-3.508-7.281-1.772c-0.223,0.133-0.365,0.412-0.533,0.632
	c-1.121,1.463-1.557,3.231-2.145,4.923c-0.676,1.947-1.082,4.009-1.934,5.871c-1.445,3.158-3.164,6.186-5.1,9.092
	c-0.871,1.307-1.727,2.773-0.752,4.512c0.346,0.615,0.67,0.896,1.479,0.738c0.912-0.178,1.826-0.34,2.713-0.504
	C93.389,101.974,92.951,101.78,95.006,103.713z"/>
<path fill="#66431E" d="M54.62,25.782c-2.437,1.824-4.979,3.433-7.869,4.352c-2.61,0.829-5.354,0.949-7.946,0.191
	c-1.267-0.37-2.267-1.182-3.249-2.004c-0.602-0.504-1.126-1.1-1.674-1.644c0-0.45,0-0.88,0-1.446
	c1.214-1.03,2.396-2.272,3.803-3.158c1.211-0.764,2.641-1.389,4.041-1.586c1.623-0.229,3.338-0.286,4.973,0.349
	c2.836,1.103,5.656,2.209,7.809,4.49C54.546,25.369,54.542,25.454,54.62,25.782z"/>
<path fill="#66431E" d="M98.914,24.903c1.385-1.133,2.514-2.465,3.938-3.545c3.043-2.305,6.387-3.555,10.119-3.021
	c2.303,0.329,4.523,1.325,6.207,3.15c0.508,0.551,0.502,0.966,0.121,1.643c-1.406,2.504-3.781,3.589-6.287,4.503
	c-0.379,0.138-0.854,0.179-1.242,0.087c-0.883-0.206-1.639,0.426-2.531,0.243c-0.881-0.181-1.807-0.125-2.707-0.231
	c-0.877-0.103-1.832-0.096-2.6-0.459C102.271,26.489,100.217,26.517,98.914,24.903z"/>
<path fill="#B27E46" d="M100.213,133.504c-0.803,0.592-1.668,0.653-2.582,0.647c-1.227-0.01-2.387,0.408-3.553,0.742
	c-0.982,0.28-1.516-0.043-1.619-0.979c-0.082-0.738,0.156-1.46-0.369-2.225c-0.369-0.537-0.086-1.405-0.414-2.176
	c-0.352-0.82-0.109-1.855-0.438-2.82c-0.227-0.66-0.283-1.44-0.469-2.168c-0.166-0.647,0.016-1.336-0.414-1.992
	c-0.188-0.286,0.006-0.977,0.238-1.35c0.473-0.754,1.092-1.414,1.648-2.113c1.816,0.802,3.742,0.232,5.654,0.463
	C98.664,124.169,99.441,128.849,100.213,133.504z"/>
<path fill="#B27E46" d="M55.637,118.202c1.488,2.785,3.915,4.08,7.165,4.398c-0.71,4.092-1.19,8.205-1.705,12.502
	c-0.426-0.276-0.644-0.541-0.821-0.515c-1.703,0.247-3.318-0.563-4.982-0.401c-0.489,0.047-0.909-0.926-1.372-0.061
	c-0.185-0.246-0.558-0.678-0.526-0.711c0.801-0.814,0.02-1.883,0.512-2.822c0.385-0.736,0.131-1.791,0.23-2.697
	c0.089-0.807,0.286-1.601,0.416-2.403c0.13-0.804-0.112-1.599,0.368-2.44c0.339-0.595,0.11-1.543,0.054-2.328
	C54.911,119.794,55.127,118.966,55.637,118.202z"/>
<path d="M61.679,24.3c0.237,0.25,0.604,0.457,0.604,0.662c-0.008,1.646,1.473,2.193,2.379,3.082
	c0.485,0.479,1.535,0.547,2.317,0.514c0.771-0.035,1.522-0.447,2.29-0.666c1.428-0.41,1.773-1.781,2.518-2.798
	c0.105-0.146,0.222-0.282,0.488-0.618c0.178,0.371,0.344,0.568,0.361,0.778c0.225,2.524,1.486,4.354,3.722,5.494
	c1.863,0.95,4.146,0.448,5.945-0.86c0.883-0.643,1.633-1.488,1.988-2.604c0.1-0.313,0.385-0.564,0.559-0.809
	c0.967,0.866,1.793,1.95,2.885,2.489c1.094,0.539,2.375,0.89,3.727,0.111c1.064-0.614,1.164-0.439,2.895-2.13
	c2.742,2.035,4.461,4.914,6.086,7.785c1.064,1.883,1.689,4.039,2.328,6.127c0.609,1.996,1.01,4.053,1.414,6.109
	c0.49,2.486,0.494,4.96,0.258,7.365c-0.412,4.18-1.752,8.135-4.561,11.43c-0.813,0.954-1.557,1.977-2.447,2.854
	c-2.893,2.845-6.402,4.695-10.178,6.065c-1.313,0.478-2.668,0.835-4.002,1.248c-0.064,0.021-0.135,0.063-0.193,0.052
	c-1.492-0.301-2.871,0.483-4.342,0.443c-1.504-0.041-3.027,0.119-4.513-0.059c-0.868-0.104-1.748-0.284-2.615-0.439
	c-0.801-0.143-1.682-0.146-2.396-0.419c-3.175-1.208-6.396-2.323-9.123-4.502c-1.156-0.924-2.273-1.867-3.291-2.927
	c-1.852-1.928-3.199-4.195-4.438-6.551c-0.873-1.66-1.505-3.438-2.001-5.188c-0.435-1.528-0.784-3.178-0.91-4.785
	c-0.185-2.353-0.33-4.774,0.024-7.088c0.44-2.883,1.09-5.755,2.474-8.43c1.351-2.609,2.75-5.118,4.772-7.296
	c0.781-0.842,1.697-1.512,2.474-2.348C59.913,25.603,60.838,24.989,61.679,24.3z M61.339,25.944
	c-0.615,0.438-1.149,0.752-1.606,1.154c-3.041,2.672-5.24,5.922-6.933,9.602c-1.619,3.517-2.231,7.211-2.532,10.994
	c-0.098,1.238,0.262,2.492,0.316,3.697c0.086,1.892,0.99,3.576,0.975,5.441c1.395,3.798,3.325,7.913,6.239,10.536
	c1.196,1.077,2.173,2.362,3.595,3.241c1.487,0.92,3.09,1.576,4.594,2.422c2.361,1.332,4.954,1.757,7.536,2.035
	c2.411,0.261,4.872,0.056,7.309,0.056c0.359,0,0.777,0.121,1.066-0.021c1.76-0.858,3.734-0.936,5.559-1.641
	c3.273-1.264,6.273-2.846,8.768-5.329c1.016-1.012,2.273-1.881,2.99-3.073c1.324-2.212,2.854-4.354,3.283-7.031
	c0.166-1.041,0.811-2.049,0.701-3.123c-0.117-1.158,0.396-2.17,0.463-3.268c0.014-0.214,0.09-0.494-0.012-0.635
	c-0.695-0.954-0.238-2.053-0.438-3.055c-0.266-1.325-0.402-2.668-0.725-3.991c-0.557-2.28-1.447-4.421-2.197-6.622
	c-1.172-3.441-3.443-6.038-5.602-8.93c-1.465,1.393-3.021,2.02-4.938,1.966c-1.371-0.039-2.105-0.119-4.736-1.769
	c-1.645,2.678-4.021,3.717-7.145,3.474c-3.155-0.246-4.708-2.358-6.136-5.168c-1.356,2.306-3.332,2.716-5.523,2.554
	C63.961,29.296,62.417,28.092,61.339,25.944z"/>
<path d="M54.864,102.291c-1.348-0.312-2.453-0.792-3.141-1.806c-1.189,0.369-1.525,1.564-2.625,1.899
	c-1.113,0.341-1.117,0.509-1.775-0.274c-0.384-0.457-0.865-1.004-0.906-1.541c-0.098-1.244-0.629-2.4-0.522-3.698
	c0.077-0.938,0.325-1.947-0.243-2.894c-0.5-0.836,0.284-1.981-0.572-2.775c-0.145-1.592-0.358-3.182-0.414-4.775
	c-0.071-2.078-0.099-4.167,0.004-6.244c0.134-2.734,1.043-5.188,3.104-7.104c1.422-1.322,3.973-1.269,5.432,0.028
	c1.013,0.9,1.656,1.963,1.99,3.277c0.278,1.098,0.305,1.86-0.134,3.633c-0.099,0.402-0.071,0.84-0.071,1.262
	c-0.007,2.656-0.154,5.324,0.055,7.965c0.119,1.529,0.453,3.091,0.697,4.621c0.317,1.974,0.953,4.015,0.49,6.035
	C56.034,100.771,55.321,101.522,54.864,102.291z M47.364,96.756c2.293-0.183,4.457-0.345,6.616-0.539
	c0.247-0.022,0.501-0.194,0.705-0.354c0.101-0.078,0.179-0.34,0.123-0.436c-0.508-0.865,0.067-1.9-0.306-2.671
	c-0.432-0.897-0.32-1.758-0.377-2.646c-0.022-0.351,0.037-0.729-0.076-1.047c-0.805-2.216-0.135-4.5-0.355-6.742
	c0.961-1.889,0.377-3.908,0.362-5.849c-0.01-1.354-0.843-2.64-2.312-3.034c-0.803-0.216-1.711-0.037-2.58-0.037
	c-0.553,0.555-1.149,1.08-1.655,1.683c-0.433,0.515-0.964,1.069-1.099,1.685c-0.351,1.588-0.932,3.141-0.904,4.801
	c0.017,1.004-0.066,2.017,0.023,3.013c0.084,0.948-0.188,1.876,0.336,2.876c0.399,0.768,0.263,1.857,0.431,2.811
	C46.663,92.347,46.845,94.466,47.364,96.756z"/>
<path d="M95.006,103.713c-2.055-1.933-1.617-1.741-2.25-3.629c-0.887,0.164-1.801,0.326-2.711,0.504
	c-0.809,0.158-1.135-0.123-1.48-0.739c-0.973-1.736-0.117-3.203,0.752-4.511c1.936-2.907,3.654-5.933,5.1-9.092
	c0.854-1.862,1.26-3.925,1.936-5.871c0.588-1.692,1.021-3.46,2.143-4.923c0.168-0.221,0.311-0.5,0.535-0.633
	c2.938-1.734,5.418-1.373,7.279,1.773c0.494,0.835,0.082,1.635,0.527,2.379c0.441,0.739,0.098,1.521,0.006,2.329
	c-0.18,1.581-0.695,3.042-1.197,4.484c-0.674,1.933-1.594,3.796-2.561,5.608c-1.447,2.709-3.17,5.27-4.531,8.028
	c-0.475,0.961-0.566,2.116-1.535,2.81C96.357,102.704,95.711,103.192,95.006,103.713z M97.83,98.461
	c0.463-0.953,0.793-1.835,1.285-2.617c1.848-2.94,3.748-5.845,4.984-9.121c0.936-2.481,1.869-4.94,1.738-7.677
	c-0.068-1.386-0.637-2.508-1.535-3.443c-0.434-0.449-1.143-0.67-1.764-0.893c-0.484-0.174-0.895,0.256-1.33,0.375
	c-1.91,0.52-2.523,2.045-3.156,3.641c-1.076,2.715-1.355,5.717-2.984,8.228c-0.033,0.051-0.039,0.146-0.018,0.204
	c0.326,0.896-0.805,1.082-0.871,1.795c-0.07,0.766-0.486,1.361-0.914,1.99c-0.813,1.196-1.486,2.487-2.256,3.808
	C93.354,96.024,95.52,97.204,97.83,98.461z"/>
<radialGradient id="SVGID_2_" cx="372.1328" cy="141.5313" r="25.6977" gradientTransform="matrix(1 0 0 1 -295.1602 -90.96)" gradientUnits="userSpaceOnUse">
	<stop  offset="0" style="stop-color:#FFFFFF"/>
	<stop  offset="0.7" style="stop-color:#B27E46"/>
</radialGradient>
<path fill="url(#SVGID_2_)" d="M61.339,25.944c1.077,2.146,2.622,3.352,4.868,3.517c2.193,0.162,4.168-0.248,5.524-2.554
	c1.429,2.81,2.981,4.922,6.137,5.168c3.121,0.242,5.5-0.795,7.143-3.473c2.631,1.648,3.365,1.729,4.736,1.768
	c1.916,0.054,3.475-0.574,4.938-1.965c2.16,2.891,4.432,5.488,5.604,8.929c0.75,2.201,1.641,4.342,2.195,6.622
	c0.324,1.324,0.461,2.666,0.725,3.99c0.199,1.002-0.258,2.101,0.438,3.056c0.102,0.142,0.025,0.421,0.012,0.635
	c-0.064,1.099-0.58,2.11-0.463,3.267c0.109,1.076-0.533,2.082-0.701,3.125c-0.428,2.677-1.959,4.819-3.283,7.029
	c-0.715,1.193-1.973,2.063-2.99,3.074c-2.494,2.482-5.494,4.066-8.766,5.329c-1.828,0.706-3.799,0.783-5.559,1.642
	c-0.291,0.141-0.707,0.02-1.066,0.02c-2.439,0-4.898,0.204-7.31-0.055c-2.582-0.278-5.174-0.703-7.535-2.035
	c-1.505-0.848-3.107-1.504-4.595-2.424c-1.422-0.879-2.397-2.164-3.595-3.24c-2.914-2.622-4.846-6.738-6.239-10.536
	c0.017-1.865-0.89-3.55-0.976-5.44c-0.055-1.205-0.414-2.461-0.315-3.697c0.301-3.783,0.914-7.479,2.532-10.996
	c1.693-3.678,3.892-6.93,6.933-9.6C60.19,26.696,60.724,26.383,61.339,25.944z M94.555,55.838c0.539,0.353,0.305,1.321,1.201,1.288
	c0.041-0.001,0.232,0.568,0.131,0.752c-0.77,1.404-0.893,3.032-1.891,4.409c-1.01,1.39-2.238,2.403-3.529,3.444
	c-1.705,1.373-3.824,1.887-5.709,2.885c-0.799,0.423-1.865,0.338-2.813,0.476c-1.016,0.149-2.037,0.42-3.051,0.403
	c-1.883-0.031-3.759,0.228-5.656-0.34c-1.076-0.321-2.213-0.564-3.324-0.815c-2.086-0.471-3.871-1.569-5.53-2.745
	c-2.204-1.56-3.894-3.656-4.688-6.365c-0.201-0.683-0.467-1.119,0.178-1.765c0.634-0.636,0.377-1.493-0.381-2.173
	c-0.617-0.555-1.383-0.596-2.047-0.059c-0.314,0.254-0.568,0.582-0.894,0.924c0.526,0.714,0.979,1.305,1.403,1.914
	c0.189,0.272,0.41,0.568,0.463,0.881c0.373,2.146,1.557,3.877,2.912,5.465c1.668,1.953,3.791,3.287,6.187,4.273
	c2.843,1.17,5.789,1.795,8.811,2.112c2.518,0.265,4.965-0.36,7.389-0.885c1.678-0.363,3.359-0.822,4.898-1.675
	c1.324-0.732,2.451-1.734,3.695-2.545c2.078-1.355,3.162-3.28,4.039-5.453c0.496-1.229,0.396-2.659,1.496-3.708
	c0.619-0.591,0.172-1.765-0.664-2.325c-0.707-0.473-1.645-0.24-2.129,0.555C94.881,55.048,94.771,55.367,94.555,55.838z
	 M83.707,54.353c-0.299,0.115-0.627,0.158-0.648,0.262c-0.367,1.828-1.877,2.662-3.207,3.568c-1.461,0.995-5.045,0.996-6.968-0.714
	c-0.588-0.522-1.111-1.12-1.682-1.665c-0.391-0.371-0.811-0.711-1.617-1.412c0.145,0.938,0.057,1.52,0.304,1.762
	c1.174,1.162,2.246,2.373,3.849,3.133c2.332,1.105,4.472,1.132,6.636-0.122c0.941-0.544,1.807-1.244,2.629-1.959
	C83.848,56.471,84.041,55.508,83.707,54.353z M89.863,38.411c0.021-2.471,0.021-2.471-1.826-3.348
	c-2.682,1.477-2.289,1.944-1.574,3.539c0.156,0.348,0.68,0.652,1.086,0.74C88.422,39.53,89.063,38.933,89.863,38.411z M68.14,39.388
	c1.188-1.697,1.306-2.486,0.556-3.324c-0.479-0.535-1.5-0.597-2.352-0.14c-0.7,0.375-1.237,1.407-0.997,2.12
	c0.123,0.365,0.442,0.678,0.715,0.977C66.698,39.718,67.497,39.192,68.14,39.388z"/>
<path fill="#B27E46" d="M47.364,96.756c-0.519-2.29-0.701-4.407-1.066-6.487c-0.167-0.953-0.031-2.043-0.432-2.811
	c-0.521-1.001-0.25-1.928-0.336-2.876c-0.089-0.997-0.006-2.009-0.022-3.013c-0.027-1.662,0.554-3.213,0.903-4.801
	c0.136-0.615,0.668-1.17,1.1-1.685c0.507-0.601,1.104-1.128,1.656-1.683c0.867,0,1.777-0.178,2.58,0.037
	c1.467,0.395,2.301,1.681,2.311,3.035c0.014,1.939,0.6,3.959-0.361,5.848c0.221,2.24-0.451,4.527,0.354,6.742
	c0.114,0.316,0.054,0.696,0.075,1.047c0.058,0.888-0.055,1.748,0.379,2.646c0.371,0.771-0.203,1.806,0.305,2.671
	c0.057,0.096-0.023,0.358-0.123,0.436c-0.205,0.162-0.459,0.332-0.705,0.354C51.821,96.411,49.657,96.573,47.364,96.756z"/>
<path fill="#B27E46" d="M97.83,98.461c-2.311-1.257-4.477-2.437-6.82-3.711c0.77-1.32,1.443-2.611,2.256-3.808
	c0.428-0.631,0.844-1.225,0.914-1.99c0.066-0.713,1.195-0.897,0.871-1.795c-0.023-0.06-0.018-0.153,0.018-0.204
	c1.629-2.511,1.908-5.515,2.984-8.228c0.633-1.597,1.246-3.121,3.156-3.641c0.438-0.119,0.846-0.549,1.33-0.375
	c0.621,0.223,1.33,0.443,1.764,0.893c0.898,0.936,1.467,2.058,1.533,3.443c0.133,2.736-0.801,5.195-1.736,7.677
	c-1.236,3.277-3.139,6.181-4.984,9.121C98.623,96.626,98.293,97.508,97.83,98.461z"/>
<path d="M94.555,55.838c0.217-0.471,0.326-0.79,0.498-1.071c0.484-0.796,1.422-1.029,2.129-0.556
	c0.836,0.562,1.283,1.733,0.664,2.325c-1.1,1.05-1,2.479-1.496,3.708c-0.877,2.173-1.961,4.099-4.039,5.452
	c-1.244,0.812-2.371,1.813-3.695,2.546c-1.541,0.853-3.223,1.312-4.898,1.675c-2.426,0.525-4.873,1.148-7.389,0.885
	c-3.023-0.318-5.968-0.943-8.811-2.113c-2.396-0.986-4.519-2.319-6.187-4.272c-1.355-1.588-2.539-3.319-2.912-5.465
	c-0.053-0.313-0.273-0.608-0.463-0.88c-0.424-0.611-0.877-1.201-1.403-1.914c0.325-0.342,0.579-0.67,0.894-0.924
	c0.664-0.537,1.43-0.496,2.047,0.058c0.758,0.68,1.015,1.537,0.381,2.173c-0.645,0.646-0.379,1.082-0.178,1.764
	c0.795,2.709,2.484,4.805,4.688,6.366c1.659,1.175,3.444,2.274,5.53,2.745c1.111,0.251,2.248,0.494,3.324,0.816
	c1.896,0.566,3.773,0.308,5.656,0.339c1.014,0.017,2.035-0.255,3.051-0.403c0.947-0.138,2.014-0.054,2.813-0.477
	c1.885-0.996,4.004-1.512,5.709-2.885c1.291-1.039,2.52-2.053,3.529-3.443c0.998-1.376,1.121-3.006,1.891-4.409
	c0.1-0.183-0.09-0.753-0.131-0.752C94.859,57.159,95.094,56.19,94.555,55.838z"/>
<path d="M83.707,54.353c0.334,1.154,0.143,2.118-0.707,2.854c-0.822,0.715-1.688,1.415-2.627,1.959
	c-2.166,1.253-4.307,1.228-6.638,0.122c-1.601-0.76-2.673-1.971-3.848-3.133c-0.246-0.242-0.158-0.824-0.305-1.762
	c0.808,0.701,1.228,1.041,1.617,1.412c0.571,0.545,1.094,1.141,1.683,1.665c1.923,1.71,5.506,1.708,6.967,0.714
	c1.33-0.908,2.842-1.742,3.209-3.567C83.078,54.511,83.408,54.468,83.707,54.353z"/>
<path d="M89.863,38.411c-0.801,0.521-1.441,1.121-2.314,0.932c-0.406-0.088-0.93-0.393-1.084-0.74
	c-0.715-1.595-1.107-2.063,1.574-3.539C89.885,35.94,89.885,35.94,89.863,38.411z"/>
<path d="M68.14,39.388c-0.644-0.195-1.442,0.329-2.078-0.367c-0.272-0.3-0.592-0.611-0.715-0.978
	c-0.24-0.712,0.297-1.744,0.997-2.12c0.852-0.457,1.872-0.396,2.352,0.141C69.446,36.901,69.329,37.69,68.14,39.388z"/>
<g>
	<path fill="#FFFFFF" d="M145.889,5v140h-140V5H145.889 M150.889,0h-150v150h150V0L150.889,0z"/>
</g>
</svg>
